<?xml version="1.0" standalone="no"?>
<!DOCTYPE svg PUBLIC "-//W3C//DTD SVG 1.1//EN" "http://www.w3.org/Graphics/SVG/1.1/DTD/svg11.dtd" >
<svg>
<metadata>
Created by FontForge 20090914 at Mon Dec 30 02:07:54 2019
 By www-data
&#194;&#169; 2019 Microsoft Corporation. All Rights Reserved.
</metadata>
<defs>
<font id="CascadiaCode-Regular" horiz-adv-x="1200" >
  <font-face 
    font-family="Cascadia Code"
    font-weight="400"
    font-stretch="normal"
    units-per-em="2048"
    panose-1="0 0 5 9 0 0 0 0 0 0"
    ascent="1568"
    descent="-480"
    x-height="1060"
    cap-height="1420"
    bbox="-3360 -750 1384 2070"
    underline-thickness="50"
    underline-position="-50"
    unicode-range="U+0020-U+259F"
  />
<missing-glyph 
d="M1072 1420v-1420h-944v1420h944zM860 176v1068h-520v-1068h520z" />
    <glyph glyph-name=".notdef" 
d="M1072 1420v-1420h-944v1420h944zM860 176v1068h-520v-1068h520z" />
    <glyph glyph-name="space" unicode=" " 
d="M0 0z" />
    <glyph glyph-name="exclam" unicode="!" 
d="M496 1430h208l-10 -974h-192zM526 0c-22.667 13.333 -40.667 31.333 -54 54s-20 47.334 -20 74.001s6.66699 51.334 20 74.001s31.333 40.667 54 54s47.334 20 74.001 20s51.334 -6.66699 74.001 -20s40.667 -31.333 54 -54s20 -47.334 20 -74.001
s-6.66699 -51.334 -20 -74.001s-31.333 -40.667 -54 -54s-47.334 -20 -74.001 -20s-51.334 6.66699 -74.001 20z" />
    <glyph glyph-name="quotedbl" unicode="&#x22;" 
d="M282 1420h232l-20 -640h-192zM686 1420h232l-20 -640h-192z" />
    <glyph glyph-name="numbersign" unicode="#" 
d="M1120 890h-179l-30 -360h209v-170h-224l-30 -360h-176l30 360h-260l-30 -360h-176l30 360h-164v170h179l30 360h-209v170h224l30 360h176l-30 -360h260l30 360h176l-30 -360h164v-170zM735 530l30 360h-260l-30 -360h260z" />
    <glyph glyph-name="dollar" unicode="$" 
d="M682 -13l0.000976562 -321.001h-138v314c-158.667 0.666992 -297 26.667 -415 78l26 202c139.333 -60 269 -92 389 -96v461l-77 35c-100 45.333 -175 99.333 -225 162s-75 138.667 -75 228c0 111.333 32.667 200.333 98 267s158.333 106.334 279 119.001v284h138v-282
c84.667 -7.33301 158.167 -29.666 220.5 -66.999s108.5 -87.333 138.5 -150l-168 -127c-22.667 42 -50.334 76.167 -83.001 102.5s-68.667 44.166 -108 53.499v-453l53 -25c110 -52 191.167 -109.333 243.5 -172s78.5 -140.667 78.5 -234c0 -222 -125 -348.333 -375 -379z
M544.001 861.999v386.999c-52.667 -10.667 -93 -32 -121 -64s-42 -73.667 -42 -125c0 -44.667 11.833 -81.667 35.5 -111s60.5 -55.666 110.5 -78.999zM843.001 361.998c0 84.667 -43.333 146.667 -130 186l-31 14v-387c107.333 22.667 161 85 161 187z" />
    <glyph glyph-name="percent" unicode="%" 
d="M203 834c-47.333 26.667 -84 64.334 -110 113.001s-39 105 -39 169c0 64.667 13 121.5 39 170.5s62.667 86.833 110 113.5s102.333 40 165 40s117.5 -13.167 164.5 -39.5s83.333 -63.833 109 -112.5s38.5 -106 38.5 -172c0 -64 -13 -120.333 -39 -169
s-62.5 -86.334 -109.5 -113.001s-101.5 -40 -163.5 -40c-62.667 0 -117.667 13.333 -165 40zM459.5 1004.5c23 28.333 34.5 65.5 34.5 111.5c0 48 -11.5 86.333 -34.5 115s-53.5 43 -91.5 43c-38.667 0 -69.667 -14.333 -93 -43s-35 -67 -35 -115
c0 -46 11.667 -83.167 35 -111.5s54.333 -42.5 93 -42.5c38 0 68.5 14.167 91.5 42.5zM94 442l930 664l92 -130l-930 -670zM689 20c-47.333 26.667 -84 64.334 -110 113.001s-39 105 -39 169c0 64.667 13 121.5 39 170.5s62.667 86.833 110 113.5s102.333 40 165 40
c62 0 116.667 -13.333 164 -40s83.833 -64.5 109.5 -113.5s38.5 -105.833 38.5 -170.5c0 -64 -13 -120.333 -39 -169s-62.5 -86.334 -109.5 -113.001s-101.5 -40 -163.5 -40c-62.667 0 -117.667 13.333 -165 40zM945.5 190.5c23 28.333 34.5 65.5 34.5 111.5
c0 47.333 -11.5 85.166 -34.5 113.499s-53.5 42.5 -91.5 42.5c-38.667 0 -69.667 -14.167 -93 -42.5s-35 -66.166 -35 -113.499c0 -46 11.667 -83.167 35 -111.5s54.333 -42.5 93 -42.5c38 0 68.5 14.167 91.5 42.5z" />
    <glyph glyph-name="ampersand" unicode="&#x26;" 
d="M962 0l-102 116.003c-104 -90.667 -236.667 -136 -398 -136c-80.667 0 -151.667 15 -213 45s-108.833 72.5 -142.5 127.5s-50.5 118.833 -50.5 191.5c0 92.667 25 171.167 75 235.5s121.333 110.5 214 138.5c-42.667 60.667 -73.834 117 -93.501 169
s-29.5 103.667 -29.5 155c0 126.667 35.5 224.667 106.5 294s171.5 104 301.5 104c114 0 202.5 -27.833 265.5 -83.5s94.5 -133.834 94.5 -234.501h-214c0 42.667 -12.333 75.667 -37 99s-59.667 35 -105 35c-61.333 0 -108.666 -18.833 -141.999 -56.5
s-50 -90.834 -50 -159.501c0 -46 12 -91.667 36 -137s60 -96.333 108 -153l265 -312c32.667 92 49 201.333 49 328h192c0 -196.667 -34.667 -359.334 -104 -488.001l236 -278h-262zM737 257.003l-271 309l-19 22c-60.667 -23.333 -107.334 -55.166 -140.001 -95.499
s-49 -86.5 -49 -138.5c0 -38 9.33301 -71.333 28 -100s45.334 -50.834 80.001 -66.501s74.667 -23.5 120 -23.5c100 0 183.667 31 251 93z" />
    <glyph glyph-name="quotesingle" unicode="'" 
d="M482 1420h232l-20 -640h-192z" />
    <glyph glyph-name="parenleft" unicode="(" 
d="M580.5 -92.5c-102.333 71.667 -180.333 176 -234 313s-80.5 302.167 -80.5 495.5c0 190.667 26.833 353.667 80.5 489s131.667 238.333 234 309s225.5 106 369.5 106h48l-20 -180h-8c-104.667 0 -194 -28.333 -268 -85s-130.167 -139.167 -168.5 -247.5
s-57.5 -238.833 -57.5 -391.5c0 -155.333 19.167 -288 57.5 -398s94.5 -193.833 168.5 -251.5s163.333 -86.5 268 -86.5h8l20 -180h-48c-144 0 -267.167 35.833 -369.5 107.5z" />
    <glyph glyph-name="parenright" unicode=")" 
d="M230 -20c104.667 0 194 28.833 268 86.5s130.167 141.5 168.5 251.5s57.5 242.667 57.5 398c0 152.667 -19.167 283.167 -57.5 391.5s-94.5 190.833 -168.5 247.5s-163.333 85 -268 85h-8l-20 180h48c144 0 267.167 -35.333 369.5 -106s180.333 -173.667 234 -309
s80.5 -298.333 80.5 -489c0 -193.333 -26.833 -358.5 -80.5 -495.5s-131.667 -241.333 -234 -313s-225.5 -107.5 -369.5 -107.5h-48l20 180h8z" />
    <glyph glyph-name="asterisk" unicode="*" 
d="M1086 758l-349 -100l253 -260l-166 -140l-226 313l-226 -313l-166 140l253 260l-349 100l74 204l332 -148l-26 362h216l-26 -362l332 148z" />
    <glyph glyph-name="plus" unicode="+" 
d="M1100 803v-186h-404v-427h-192v427h-404v186h404v425h192v-425h404z" />
    <glyph glyph-name="comma" unicode="," 
d="M482 254h232l-120 -640h-192z" />
    <glyph glyph-name="hyphen" unicode="-" 
d="M100 802h1000v-186h-1000v186z" />
    <glyph glyph-name="period" unicode="." 
d="M526 0c-22.667 13.333 -40.667 31.333 -54 54s-20 47.334 -20 74.001s6.66699 51.334 20 74.001s31.333 40.667 54 54s47.334 20 74.001 20s51.334 -6.66699 74.001 -20s40.667 -31.333 54 -54s20 -47.334 20 -74.001s-6.66699 -51.334 -20 -74.001
s-31.333 -40.667 -54 -54s-47.334 -20 -74.001 -20s-51.334 6.66699 -74.001 20z" />
    <glyph glyph-name="slash" unicode="/" 
d="M908 1610h212l-804 -1800h-212z" />
    <glyph glyph-name="zero" unicode="0" 
d="M116 700c0 493.333 161.333 740 484 740s484 -246.667 484 -740c0 -480 -161.333 -720 -484 -720s-484 240 -484 720zM870 700c0 370.667 -90 556 -270 556s-270 -185.333 -270 -556c0 -357.333 90 -536 270 -536s270 178.667 270 536zM534 570
c-22.667 13.333 -40.667 31.5 -54 54.5s-20 48.167 -20 75.5c0 26.667 6.66699 51.334 20 74.001s31.333 40.667 54 54s47.334 20 74.001 20c27.333 0 52.5 -6.66699 75.5 -20s41.167 -31.333 54.5 -54s20 -47.334 20 -74.001c0 -27.333 -6.66699 -52.5 -20 -75.5
s-31.5 -41.167 -54.5 -54.5s-48.167 -20 -75.5 -20c-26.667 0 -51.334 6.66699 -74.001 20z" />
    <glyph glyph-name="one" unicode="1" 
d="M736 186h316v-186h-882v186h354v1028l-334 -116v202l334 120h212v-1234z" />
    <glyph glyph-name="two" unicode="2" 
d="M1096 186l-0.00195312 -186.001h-924v224c216.667 119.333 379.167 244.166 487.5 374.499s162.5 264.833 162.5 403.5c0 169.333 -82.667 254 -248 254c-67.333 0 -119.166 -16.833 -155.499 -50.5s-54.5 -81.5 -54.5 -143.5h-214c0 79.333 17.167 147.333 51.5 204
s84.333 99.834 150 129.501s144.5 44.5 236.5 44.5c149.333 0 261.333 -35.5 336 -106.5s112 -178.167 112 -321.5c0 -144.667 -45.667 -283.167 -137 -415.5s-229.666 -259.166 -414.999 -380.499v-30h612z" />
    <glyph glyph-name="three" unicode="3" 
d="M1003 626.5c60.667 -64.333 91.0029 -146.501 91.0029 -246.501c0 -84 -19.167 -156 -57.5 -216s-94.166 -105.667 -167.499 -137s-161.666 -47 -264.999 -47c-321.333 0 -482 139.333 -482 418h214c0 -156 86.667 -234 260 -234c90 0 159.833 20.667 209.5 62
s74.5 99.333 74.5 174c0 80 -37.333 141.667 -112 185s-180 65 -316 65h-32l-24 130c151.333 18.667 263.166 53.167 335.499 103.5s108.5 113.166 108.5 188.499c0 58 -20.333 103.167 -61 135.5s-98.334 48.5 -173.001 48.5c-76.667 0 -135.834 -16.833 -177.501 -50.5
s-62.5 -81.5 -62.5 -143.5h-214c0 79.333 18.667 147.333 56 204s91.666 99.834 162.999 129.501s157 44.5 257 44.5c136 0 241 -27.5 315 -82.5s111 -133.5 111 -235.5c0 -56 -12.333 -107.833 -37 -155.5s-59.334 -88.5 -104.001 -122.5s-96.334 -58.667 -155.001 -74v-21
c102.667 -17.333 184.334 -58.166 245.001 -122.499z" />
    <glyph glyph-name="four" unicode="4" 
d="M1120 494v-176h-134v-318h-202v318h-712l3 3l199 1019h206l-167 -846h471v926h202v-926h134z" />
    <glyph glyph-name="five" unicode="5" 
d="M983.5 807.5c73.667 -79 110.499 -195.499 110.499 -349.499c0 -100.667 -19.5 -186.834 -58.5 -258.501s-95.833 -126.167 -170.5 -163.5s-165 -56 -271 -56c-97.333 0 -180.666 16.333 -249.999 49s-122 80.334 -158 143.001s-54 138 -54 226h214
c0 -74 21.667 -131.5 65 -172.5s105 -61.5 185 -61.5c90.667 0 160.667 25.667 210 77s74 123.666 74 216.999c0 192 -99.333 288 -298 288c-90 0 -174 -22 -252 -66h-112l20 740h766v-186h-566l-20 -349c66.667 27.333 144.667 41 234 41
c147.333 0 257.833 -39.5 331.5 -118.5z" />
    <glyph glyph-name="six" unicode="6" 
d="M983 785c67.333 -76.667 101.003 -185.001 101.003 -325.001c0 -100.667 -18.167 -187 -54.5 -259s-89.333 -126.833 -159 -164.5s-153.834 -56.5 -252.501 -56.5c-106 0 -196.333 21.333 -271 64s-131.5 104.834 -170.5 186.501s-58.5 180.167 -58.5 295.5v48
c0 271.333 69 477.666 207 618.999s347.667 219 629 233l20 -190c-212.667 -8.66699 -371.334 -60.167 -476.001 -154.5s-157.334 -232.166 -158.001 -413.499h18c20 73.333 59.667 130.333 119 171s132.333 61 219 61c124 0 219.667 -38.333 287 -115zM805.003 241.499
c43.333 51.667 65.001 124.5 65.001 218.5c0 82 -22.833 145.167 -68.5 189.5s-110.834 66.5 -195.501 66.5s-150.167 -24 -196.5 -72s-69.5 -116 -69.5 -204c0 -184 93.333 -276 280 -276c80 0 141.667 25.833 185 77.5z" />
    <glyph glyph-name="seven" unicode="7" 
d="M1154 1420l-488 -1420h-219l423 1230h-552v-308h-206v498h1042z" />
    <glyph glyph-name="eight" unicode="8" 
d="M1002.5 624.5c54.333 -61 81.499 -139.166 81.499 -234.499c0 -86 -19 -159.667 -57 -221s-93.167 -108.166 -165.5 -140.499s-159.5 -48.5 -261.5 -48.5s-189.167 16.167 -261.5 48.5s-127.5 79.166 -165.5 140.499s-57 135 -57 221c0 95.333 27.5 173.666 82.5 234.999
s133.5 102.333 235.5 123v15c-90 20 -158.833 57.167 -206.5 111.5s-71.5 122.833 -71.5 205.5c0 75.333 17.333 140 52 194s85.334 95.167 152.001 123.5s146.667 42.5 240 42.5s173.333 -14.167 240 -42.5s117.334 -69.5 152.001 -123.5s52 -118.667 52 -194
c0 -82 -23.833 -150.167 -71.5 -204.5s-115.834 -91.833 -204.501 -112.5v-15c102 -21.333 180.167 -62.5 234.5 -123.5zM430.499 897.001c40.333 -34 96.833 -51 169.5 -51s129.167 17 169.5 51s60.5 81.667 60.5 143c0 68.667 -20 121.834 -60 159.501
s-96.667 56.5 -170 56.5s-130 -18.833 -170 -56.5s-60 -90.834 -60 -159.501c0 -61.333 20.167 -109 60.5 -143zM799.499 225.501c47 41 70.5 99.167 70.5 174.5c0 80 -23.5 142.333 -70.5 187s-113.5 67 -199.5 67s-152.5 -22.333 -199.5 -67s-70.5 -107 -70.5 -187
c0 -75.333 23.5 -133.5 70.5 -174.5s113.5 -61.5 199.5 -61.5s152.5 20.5 199.5 61.5z" />
    <glyph glyph-name="nine" unicode="9" 
d="M855 1376c74.667 -42.667 131.497 -104.833 170.497 -186.5s58.5 -180.167 58.5 -295.5v-48c0 -271.333 -69 -477.666 -207 -618.999s-347.667 -219 -629 -233l-20 190c212.667 8.66699 371.334 60.167 476.001 154.5s157.334 232.166 158.001 413.499h-18
c-20 -73.333 -59.667 -130.333 -119 -171s-132.333 -61 -219 -61c-124 0 -219.667 38.333 -287 115s-101 185 -101 325c0 100.667 18.167 187 54.5 259s89.333 126.833 159 164.5s153.834 56.5 252.501 56.5c106 0 196.333 -21.333 271 -64zM792.497 776.001
c46.333 48 69.499 116 69.499 204c0 184 -93.333 276 -280 276c-80 0 -141.667 -25.833 -185 -77.5s-65 -124.5 -65 -218.5c0 -82 22.833 -145.167 68.5 -189.5s110.834 -66.5 195.501 -66.5s150.167 24 196.5 72z" />
    <glyph glyph-name="colon" unicode=":" 
d="M526 804c-22.667 13.333 -40.667 31.333 -54 54s-20 47.334 -20 74.001s6.66699 51.334 20 74.001s31.333 40.667 54 54s47.334 20 74.001 20s51.334 -6.66699 74.001 -20s40.667 -31.333 54 -54s20 -47.334 20 -74.001s-6.66699 -51.334 -20 -74.001
s-31.333 -40.667 -54 -54s-47.334 -20 -74.001 -20s-51.334 6.66699 -74.001 20zM526 0c-22.667 13.333 -40.667 31.333 -54 54s-20 47.334 -20 74.001s6.66699 51.334 20 74.001s31.333 40.667 54 54s47.334 20 74.001 20s51.334 -6.66699 74.001 -20
s40.667 -31.333 54 -54s20 -47.334 20 -74.001s-6.66699 -51.334 -20 -74.001s-31.333 -40.667 -54 -54s-47.334 -20 -74.001 -20s-51.334 6.66699 -74.001 20z" />
    <glyph glyph-name="semicolon" unicode=";" 
d="M526 804c-22.667 13.333 -40.667 31.333 -54 54s-20 47.334 -20 74.001s6.66699 51.334 20 74.001s31.333 40.667 54 54s47.334 20 74.001 20s51.334 -6.66699 74.001 -20s40.667 -31.333 54 -54s20 -47.334 20 -74.001s-6.66699 -51.334 -20 -74.001
s-31.333 -40.667 -54 -54s-47.334 -20 -74.001 -20s-51.334 6.66699 -74.001 20zM714 254l-120 -640h-192l80 640h232z" />
    <glyph glyph-name="less" unicode="&#x3c;" 
d="M96 608v202l958 394v-220l-740 -266v-18l740 -266v-220z" />
    <glyph glyph-name="equal" unicode="=" 
d="M100 1052h1000v-186h-1000v186zM100 552h1000v-186h-1000v186z" />
    <glyph glyph-name="greater" unicode="&#x3e;" 
d="M146 434l700 266v18l-700 266v220l958 -394v-202l-958 -394v220z" />
    <glyph glyph-name="question" unicode="?" 
d="M664 854c108 67.333 162 146.667 162 238c0 50 -17.167 88.833 -51.5 116.5s-82.833 41.5 -145.5 41.5c-72.667 0 -129 -16.333 -169 -49s-60 -79 -60 -139h-202c0 79.333 17 147.333 51 204s83.333 99.834 148 129.501s142.667 44.5 234 44.5
c87.333 0 162 -13.333 224 -40s109.333 -65.334 142 -116.001s49 -111.334 49 -182.001c0 -147.333 -74 -268.666 -222 -363.999c-85.333 -55.333 -128 -122 -128 -200v-82h-196v96c0 132 54.667 232.667 164 302zM528 0.000976562c-22.667 13.333 -40.667 31.333 -54 54
s-20 47.334 -20 74.001s6.66699 51.334 20 74.001s31.333 40.667 54 54s47.334 20 74.001 20s51.334 -6.66699 74.001 -20s40.667 -31.333 54 -54s20 -47.334 20 -74.001s-6.66699 -51.334 -20 -74.001s-31.333 -40.667 -54 -54s-47.334 -20 -74.001 -20
s-51.334 6.66699 -74.001 20z" />
    <glyph glyph-name="at" unicode="@" 
d="M1072 944l-0.000976562 -124v-166v-356h-172v212h-12c-12 -74 -36.5 -131.167 -73.5 -171.5s-83.167 -60.5 -138.5 -60.5c-88.667 0 -157.5 36.833 -206.5 110.5s-73.5 177.5 -73.5 311.5c0 146 24.167 255.833 72.5 329.5s118.166 110.5 209.499 110.5
c51.333 0 95.5 -20.333 132.5 -61s62.833 -97.667 77.5 -171h12v30c0 110.667 -20.167 193.667 -60.5 249s-100.166 83 -179.499 83c-80.667 0 -149.834 -21.5 -207.501 -64.5s-101.5 -105.667 -131.5 -188s-45 -181.5 -45 -297.5c0 -186.667 32.833 -326.667 98.5 -420
s165.5 -140 299.5 -140c108.667 0 191.334 20 248.001 60l20 -180c-61.333 -40 -150.666 -60 -267.999 -60c-187.333 0 -328.5 62.167 -423.5 186.5s-142.5 308.833 -142.5 553.5c0 152 21.667 281.833 65 389.5s106.333 189.667 189 246s182 84.5 298 84.5
c274.667 0 412 -165.333 412 -496zM856.499 528.5c29 40.333 43.5 97.5 43.5 171.5c0 85.333 -12.833 148.333 -38.5 189s-63.5 61 -113.5 61c-114.667 0 -172 -83.333 -172 -250c0 -74 13.833 -131.167 41.5 -171.5s66.5 -60.5 116.5 -60.5
c52.667 0 93.5 20.167 122.5 60.5z" />
    <glyph glyph-name="A" unicode="A" 
d="M942 0l-93 346h-504l-93 -346h-210l410 1420h290l410 -1420h-210zM396 536h402l-192 712h-18z" />
    <glyph glyph-name="B" unicode="B" 
d="M1019.5 653c76.333 -60 114.5 -144.332 114.5 -252.999c0 -84 -16.833 -156 -50.5 -216s-82.667 -105.667 -147 -137s-141.833 -47 -232.5 -47h-544v1420h422c144 0 255.333 -31.333 334 -94s118 -151.334 118 -266.001c0 -86 -29.333 -155 -88 -207
s-142.667 -83.667 -252 -95v-12c140.667 -2 249.167 -33 325.5 -93zM360 1230v-385h186c88 0 156.333 17 205 51s73 82 73 144c0 60.667 -25.333 107.5 -76 140.5s-122.667 49.5 -216 49.5h-172zM851 250.501c48.667 40.333 73 96.833 73 169.5
c0 74.667 -25.5 132.5 -76.5 173.5s-122.833 61.5 -215.5 61.5h-272v-465h286c88 0 156.333 20.167 205 60.5z" />
    <glyph glyph-name="C" unicode="C" 
d="M886.5 1219c-46.333 24.667 -96.5 37 -150.5 37c-86 0 -161 -20.833 -225 -62.5s-113.5 -102.667 -148.5 -183s-52.5 -176.5 -52.5 -288.5c0 -186 40.333 -325.5 121 -418.5s201 -139.5 361 -139.5c96.667 0 192 20 286 60l46 -176c-116 -45.333 -238 -68 -366 -68
c-441.333 0 -662 244 -662 732c0 153.333 25 284.5 75 393.5s122.667 192 218 249s210.333 85.5 345 85.5c98 0 183.333 -15.667 256 -47s125.667 -75.333 159 -132l-148 -147c-30 45.333 -68.167 80.333 -114.5 105z" />
    <glyph glyph-name="D" unicode="D" 
d="M992 1233c108 -124.667 162 -312.333 162 -563c0 -224 -54 -391.667 -162 -503s-270.667 -167 -488 -167h-344v1420h344c217.333 0 380 -62.333 488 -187zM833.5 315.001c73.667 83.333 110.5 208.333 110.5 375c0 360 -146.667 540 -440 540h-144v-1040h144
c146 0 255.833 41.667 329.5 125z" />
    <glyph glyph-name="E" unicode="E" 
d="M1100 1230h-740v-424h560v-190h-560v-426h740v-190h-940v1420h940v-190z" />
    <glyph glyph-name="F" unicode="F" 
d="M1100 1230h-740v-484h560v-190h-560v-556h-200v1420h940v-190z" />
    <glyph glyph-name="G" unicode="G" 
d="M1120 40c-44.667 -14.667 -101 -28.333 -169 -41s-141 -19 -219 -19c-424 0 -636 244 -636 732c0 153.333 24.667 284.5 74 393.5s121 192 215 249s207 85.5 339 85.5c99.333 0 186.333 -15.5 261 -46.5s129.667 -74.833 165 -131.5l-149 -148
c-31.333 45.333 -70.166 80.333 -116.499 105s-95.833 37 -148.5 37c-89.333 0 -165.833 -20.833 -229.5 -62.5s-112.334 -102.5 -146.001 -182.5s-50.5 -176.333 -50.5 -289c0 -186 37.333 -325.5 112 -418.5s186 -139.5 334 -139.5c55.333 0 113.333 6.66699 174 20v336
h-290v190h480v-670z" />
    <glyph glyph-name="H" unicode="H" 
d="M858 1420h200v-1420h-200v612h-518v-612h-200v1420h200v-618h518v618z" />
    <glyph glyph-name="I" unicode="I" 
d="M1032 1230h-333v-1040h333v-190h-864v190h331v1040h-331v190h864v-190z" />
    <glyph glyph-name="J" unicode="J" 
d="M1072 436c0 -96 -19.334 -178.167 -58.001 -246.5s-94.667 -120.333 -168 -156s-160.666 -53.5 -261.999 -53.5c-103.333 0 -191.5 19.5 -264.5 58.5s-128.5 95.667 -166.5 170s-57 163.5 -57 267.5h200c0 -100 25.5 -177.667 76.5 -233s123.167 -83 216.5 -83
c90.667 0 160.5 24 209.5 72s73.5 116 73.5 204v794h-372v190h572v-984z" />
    <glyph glyph-name="K" unicode="K" 
d="M649 541c-89.333 -47.333 -185.668 -75.999 -289.001 -85.999v-455h-200v1420h200v-778c118.667 10.667 218.334 53.167 299.001 127.5s140.667 168.666 180 282.999s59 236.833 59 367.5h206c0 -148 -24.833 -288 -74.5 -420s-120.167 -243.333 -211.5 -334l354 -666
h-242z" />
    <glyph glyph-name="L" unicode="L" 
d="M360 190h740v-190h-940v1420h200v-1230z" />
    <glyph glyph-name="M" unicode="M" 
d="M1072 1420v-1420h-192v1168h-26l-152 -588h-204l-152 588h-26v-1168h-192v1420h312l152 -610h16l152 610h312z" />
    <glyph glyph-name="N" unicode="N" 
d="M860 1420h192v-1420h-252l-440 1050h-20v-1050h-192v1420h252l440 -1098h20v1098z" />
    <glyph glyph-name="O" unicode="O" 
d="M76 700c0 493.333 174.667 740 524 740s524 -246.667 524 -740c0 -480 -174.667 -720 -524 -720s-524 240 -524 720zM914 700c0 370.667 -104.667 556 -314 556s-314 -185.333 -314 -556c0 -357.333 104.667 -536 314 -536s314 178.667 314 536z" />
    <glyph glyph-name="P" unicode="P" 
d="M871 1364c81.333 -37.333 143.166 -92 185.499 -164s63.5 -158.667 63.5 -260c0 -105.333 -21.167 -195.5 -63.5 -270.5s-104.166 -132 -185.499 -171s-179 -58.5 -293 -58.5h-218v-440h-200v1420h418c114 0 211.667 -18.667 293 -56zM823 706c58 50.667 87 122 87 214
c0 98.667 -29 175 -87 229s-139.667 81 -245 81h-218v-600h218c105.333 0 187 25.333 245 76z" />
    <glyph glyph-name="Q" unicode="Q" 
d="M930 -280l102 0.000976562l-20 -180h-82c-289.333 0 -434 146.667 -434 440v8c-280 45.333 -420 282.666 -420 711.999c0 493.333 174.667 740 524 740s524 -246.667 524 -740c0 -434.667 -143.333 -672.667 -430 -714v-8c0 -172 78.667 -258 236 -258zM600 164.001
c209.333 0 314 178.667 314 536c0 370.667 -104.667 556 -314 556s-314 -185.333 -314 -556c0 -357.333 104.667 -536 314 -536z" />
    <glyph glyph-name="R" unicode="R" 
d="M900 0l-256.999 540h-15h-290v-540h-200v1420h490c97.333 0 180.666 -16.833 249.999 -50.5s122 -82.667 158 -147s54 -141.833 54 -232.5c0 -101.333 -20.667 -187 -62 -257s-101 -121.333 -179 -154l293 -579h-242zM338.001 730h290.001
c79.333 0 141.166 21 185.499 63s66.5 101 66.5 177c0 82.667 -22 146.667 -66 192s-106 68 -186 68h-290v-500z" />
    <glyph glyph-name="S" unicode="S" 
d="M978.5 600c52.333 -62.667 78.5 -140.669 78.5 -234.002c0 -128.667 -42 -225.167 -126 -289.5s-210.667 -96.5 -380 -96.5c-161.333 0 -302 26 -422 78l26 202c148 -64 285.333 -96 412 -96c92.667 0 161.834 16.333 207.501 49s68.5 82.334 68.5 149.001
c0 84.667 -43.333 146.667 -130 186l-246 112c-100 45.333 -175 99.333 -225 162s-75 138.667 -75 228c0 82 18 152.167 54 210.5s88.333 102.833 157 133.5s151.334 46 248.001 46h1c98 0 183.167 -19.167 255.5 -57.5s125.166 -92.166 158.499 -161.499l-168 -127
c-28 51.333 -63.5 91.166 -106.5 119.499s-89.5 42.5 -139.5 42.5c-78.667 0 -139.334 -16.667 -182.001 -50s-64 -82 -64 -146c0 -44.667 11.833 -81.667 35.5 -111s60.5 -55.666 110.5 -78.999l208 -98c110 -52 191.167 -109.333 243.5 -172z" />
    <glyph glyph-name="T" unicode="T" 
d="M1120 1420v-190h-420v-1230h-200v1230h-420v190h1040z" />
    <glyph glyph-name="U" unicode="U" 
d="M140 456v964h200v-964c0 -96 21 -167.667 63 -215s107.667 -71 197 -71c86 0 150.833 24 194.5 72s65.5 119.333 65.5 214v964h200v-964c0 -158 -39.167 -276.833 -117.5 -356.5s-193.833 -119.5 -346.5 -119.5c-304 0 -456 158.667 -456 476z" />
    <glyph glyph-name="V" unicode="V" 
d="M44 1420h214l332 -1250h18l332 1250h214l-400 -1420h-310z" />
    <glyph glyph-name="W" unicode="W" 
d="M970 1420h210l-160 -1420h-309l-105 862h-12l-105 -862h-309l-160 1420h210l120 -1260h20l131 900h200l129 -900h20z" />
    <glyph glyph-name="X" unicode="X" 
d="M1136 1420l-435 -717l435 -703h-230l-305 533l-305 -533h-230l435 703l-435 717h230l305 -544l305 544h230z" />
    <glyph glyph-name="Y" unicode="Y" 
d="M1176 1420l-473 -913v-507h-200v499l-477 921h220l346 -710h18l346 710h220z" />
    <glyph glyph-name="Z" unicode="Z" 
d="M374 176h696v-176h-920v176l656 1054h-656v190h900v-190z" />
    <glyph glyph-name="bracketleft" unicode="[" 
d="M998 1444h-426v-1468h426v-190h-626v1848h626v-190z" />
    <glyph glyph-name="backslash" unicode="\" 
d="M104 1610h212l804 -1800h-212z" />
    <glyph glyph-name="bracketright" unicode="]" 
d="M828 1634v-1848h-626v190h414v1468h-414v190h626z" />
    <glyph glyph-name="asciicircum" unicode="^" 
d="M464 1420h270l260 -600h-220l-166 440h-18l-166 -440h-220z" />
    <glyph glyph-name="underscore" unicode="_" 
d="M100 0h1000v-176h-1000v176z" />
    <glyph glyph-name="grave" unicode="`" 
d="M289 1628h212l170 -380h-192z" />
    <glyph glyph-name="a" unicode="a" 
d="M1158 170v-170.001l-340 -10l-10 234h-21c-7.33301 -80 -41.166 -140.667 -101.499 -182s-140.833 -62 -241.5 -62c-110.667 0 -196.334 26.5 -257.001 79.5s-91 128.5 -91 226.5c0 112 40.833 198 122.5 258s197.5 90 347.5 90c81.333 0 151.333 -8.33301 210 -25v57
c0 69.333 -24.5 120.833 -73.5 154.5s-123.167 51.834 -222.5 54.501l-254 7l20 188l214 -3c345.333 -4.66699 518 -149 518 -433v-442zM639.5 182.999c45 22 79 50.666 102 85.999s34.5 72.333 34.5 111v64c-33.333 8.66699 -66.5 14.167 -99.5 16.5s-74.5 3.5 -124.5 3.5
c-84 0 -147.667 -13.333 -191 -40s-65 -66 -65 -118c0 -51.333 15.333 -90.166 46 -116.499s76 -39.5 136 -39.5c62.667 0 116.5 11 161.5 33z" />
    <glyph glyph-name="b" unicode="b" 
d="M900 1016.5c66.667 -42.333 117.333 -103.833 152 -184.5s52 -178 52 -292c0 -118 -22.833 -218.833 -68.5 -302.5s-112 -147.5 -199 -191.5s-191.833 -66 -314.5 -66c-102.667 0 -220.667 6.66699 -354 20v1500h212v-632h20c10 141.333 96.667 212 260 212
c93.333 0 173.333 -21.167 240 -63.5zM807.999 259.5c57.333 66.333 86.001 159.834 86.001 280.501c0 115.333 -21.167 204.166 -63.5 266.499s-102.5 93.5 -180.5 93.5c-180 0 -270 -101.333 -270 -304v-430c40 -4 101.333 -6 184 -6
c105.333 0 186.666 33.167 243.999 99.5z" />
    <glyph glyph-name="c" unicode="c" 
d="M819 850c-46.667 26.667 -97.668 40.001 -153.001 40.001c-98 0 -174.167 -30.333 -228.5 -91s-81.5 -146.334 -81.5 -257.001c0 -120.667 30.167 -212.834 90.5 -276.501s146.833 -95.5 259.5 -95.5c100 0 204 8.66699 312 26l24 -186
c-96.667 -20 -216.667 -30 -360 -30c-116 0 -214.667 21.333 -296 64s-143.333 105.167 -186 187.5s-64 182.5 -64 300.5c0 115.333 20.833 214 62.5 296s102.834 144.5 183.501 187.5s178 64.5 292 64.5c103.333 0 191.833 -19.167 265.5 -57.5s126.167 -92.5 157.5 -162.5
l-163 -123c-30 48.667 -68.333 86.334 -115 113.001z" />
    <glyph glyph-name="d" unicode="d" 
d="M1032 1500l0.000976562 -1500l-190 -10l-18 174h-24c-6.66699 -60 -35 -105.667 -85 -137s-115.667 -47 -197 -47c-89.333 0 -165.5 20.833 -228.5 62.5s-111 102.834 -144 183.501s-49.5 178.667 -49.5 294c0 118 16.5 219 49.5 303s81.333 147.833 145 191.5
s140.167 65.5 229.5 65.5c84.667 0 150.167 -17.5 196.5 -52.5s74.166 -88.167 83.499 -159.5h20v632h212zM820.001 339.999l0.000976562 256.001c0 202.667 -90 304 -270 304c-78 0 -138.167 -33 -180.5 -99s-63.5 -159.667 -63.5 -281
c0 -118.667 20.667 -208.334 62 -269.001s102.666 -91 183.999 -91c178.667 0 268 60 268 180z" />
    <glyph glyph-name="e" unicode="e" 
d="M1058 436h-716.001c18.667 -88 60.667 -155 126 -201s151.333 -69 258 -69c82 0 168.667 9.33301 260 28l26 -186c-98 -18.667 -201.333 -28 -310 -28c-120.667 0 -223.167 21.333 -307.5 64s-148.5 105.167 -192.5 187.5s-66 182.5 -66 300.5
c0 114.667 18.667 213 56 295s91.833 144.667 163.5 188s157.834 65 258.501 65c144 0 255 -43.667 333 -131s117 -213 117 -377c0 -48.667 -2 -94 -6 -136zM871.999 598c0 94.667 -22.499 167.667 -67.499 219s-107.833 77 -188.5 77c-82 0 -147.333 -25.667 -196 -77
s-77.334 -124.333 -86.001 -219h538z" />
    <glyph glyph-name="f" unicode="f" 
d="M614 980v-160h434v-176h-434v-644h-212v644h-334v176h334v150c0 184 41.667 321.667 125 413s209 137 377 137c76 0 149.333 -6.66699 220 -20l-22 -184c-78.667 9.33301 -146.667 14 -204 14c-189.333 0 -284 -116.667 -284 -350z" />
    <glyph glyph-name="g" unicode="g" 
d="M1032 1060l0.000976562 -966.001c0 -126.667 -18.833 -230.334 -56.5 -311.001s-96.167 -141.5 -175.5 -182.5s-182 -63.833 -308 -68.5l-310 -10l-10 188l340 16c106 4.66699 183.5 34.334 232.5 89.001s73.5 137 73.5 247v102h-18c-6.66699 -60 -35 -105.667 -85 -137
s-115.667 -47 -197 -47c-89.333 0 -165.5 20.833 -228.5 62.5s-111 102.834 -144 183.501s-49.5 178.667 -49.5 294c0 118 16.5 219 49.5 303s81.333 147.833 145 191.5s140.167 65.5 229.5 65.5c84.667 0 150.167 -17.5 196.5 -52.5s74.166 -88.167 83.499 -159.5h23
l17 192h192zM820.001 339.999l0.000976562 256.001c0 202.667 -90 304 -270 304c-78 0 -138.167 -33 -180.5 -99s-63.5 -159.667 -63.5 -281c0 -118.667 20.667 -208.334 62 -269.001s102.666 -91 183.999 -91c178.667 0 268 60 268 180z" />
    <glyph glyph-name="h" unicode="h" 
d="M940 978c61.333 -68 92 -164.001 92 -288.001v-690h-212v690c0 66.667 -16.667 118.334 -50 155.001s-80 55 -140 55c-166.667 0 -250 -101.333 -250 -304v-596h-212v1500h212v-632h20c6 71.333 32 124.5 78 159.5s113.333 52.5 202 52.5c112 0 198.667 -34 260 -102z
" />
    <glyph glyph-name="i" unicode="i" 
d="M584 1248c-22.667 13.333 -40.667 31.333 -54 54s-20 47.334 -20 74.001s6.66699 51.334 20 74.001s31.333 40.667 54 54s47.334 20 74.001 20s51.334 -6.66699 74.001 -20s40.667 -31.333 54 -54s20 -47.334 20 -74.001s-6.66699 -51.334 -20 -74.001
s-31.333 -40.667 -54 -54s-47.334 -20 -74.001 -20s-51.334 6.66699 -74.001 20zM776 174h326v-174h-942v174h404v710h-344v176h556v-886z" />
    <glyph glyph-name="j" unicode="j" 
d="M686 1248c-22.667 13.333 -40.667 31.333 -54 54s-20 47.334 -20 74.001s6.66699 51.334 20 74.001s31.333 40.667 54 54s47.334 20 74.001 20s51.334 -6.66699 74.001 -20s40.667 -31.333 54 -54s20 -47.334 20 -74.001s-6.66699 -51.334 -20 -74.001
s-31.333 -40.667 -54 -54s-47.334 -20 -74.001 -20s-51.334 6.66699 -74.001 20zM888 94c0 -126 -18.668 -228.333 -56.001 -307s-95.166 -138.334 -173.499 -179.001s-181.166 -66 -308.499 -76l-170 -12l-10 188l200 18c107.333 10 185.166 41.333 233.499 94
s72.5 133.334 72.5 242.001v822h-412v176h624v-966z" />
    <glyph glyph-name="k" unicode="k" 
d="M878 0l-229.999 393c-52 -14 -108 -21 -168 -21h-108v-372h-212v1500h212v-938h58c89.333 0 162 16.167 218 48.5s100.167 84.5 132.5 156.5s56.166 169.667 71.499 293h220c-32 -264 -110 -452 -234 -564l302 -496h-262z" />
    <glyph glyph-name="l" unicode="l" 
d="M1064 22c-53.333 -14.667 -105 -25.332 -155 -31.999s-103.667 -10 -161 -10c-82.667 0 -149.334 14.667 -200.001 44s-88 74.666 -112 135.999s-36 141.333 -36 240v924h-312v176h524v-1090c0 -60 5.5 -106.833 16.5 -140.5s32 -58.667 63 -75s76.5 -24.5 136.5 -24.5
c29.333 0 60.833 3 94.5 9s72.834 15.667 117.501 29z" />
    <glyph glyph-name="m" unicode="m" 
d="M1038 1021c33.333 -39.333 50.002 -103 50.002 -191v-830h-212v810c0 37.333 -6.66699 65 -20 83s-34 27 -62 27c-69.333 0 -104 -48 -104 -144v-776h-180v830c0 60 -28 90 -84 90c-68 0 -102 -48 -102 -144v-776h-212v1060h188l14 -132h16
c4 51.333 20.833 89.5 50.5 114.5s73.5 37.5 131.5 37.5c45.333 0 82.666 -12.833 111.999 -38.5s49 -63.5 59 -113.5h17c3.33301 43.333 20.5 79.5 51.5 108.5s73.167 43.5 126.5 43.5c73.333 0 126.666 -19.667 159.999 -59z" />
    <glyph glyph-name="n" unicode="n" 
d="M940 978c61.333 -68 92 -164.001 92 -288.001v-690h-212v690c0 66.667 -16.667 118.334 -50 155.001s-80 55 -140 55c-166.667 0 -250 -101.333 -250 -304v-596h-212v1060h192l17 -192h23c6 71.333 32 124.5 78 159.5s113.333 52.5 202 52.5c112 0 198.667 -34 260 -102z
" />
    <glyph glyph-name="o" unicode="o" 
d="M349.5 44.5c-69.667 43 -122.667 105.667 -159 188s-54.5 181.5 -54.5 297.5s18.167 215.167 54.5 297.5s89.333 145 159 188s153.167 64.5 250.5 64.5s180.833 -21.5 250.5 -64.5s122.667 -105.667 159 -188s54.5 -181.5 54.5 -297.5s-18.167 -215.167 -54.5 -297.5
s-89.333 -145 -159 -188s-153.167 -64.5 -250.5 -64.5s-180.833 21.5 -250.5 64.5zM780.5 263.5c42.333 62.333 63.5 151.166 63.5 266.499s-21.167 204.166 -63.5 266.499s-102.5 93.5 -180.5 93.5s-138.167 -31.167 -180.5 -93.5s-63.5 -151.166 -63.5 -266.499
s21.167 -204.166 63.5 -266.499s102.5 -93.5 180.5 -93.5s138.167 31.167 180.5 93.5z" />
    <glyph glyph-name="p" unicode="p" 
d="M909.5 1014.5c63.667 -43.667 112.001 -107.499 145.001 -191.499s49.5 -185 49.5 -303c0 -115.333 -16.5 -213.333 -49.5 -294s-81 -141.834 -144 -183.501s-139.167 -62.5 -228.5 -62.5c-81.333 0 -147 15.667 -197 47s-78.333 77 -85 137h-20v-624h-212v1520h192
l17 -192h23c9.33301 71.333 37.166 124.5 83.499 159.5s111.833 52.5 196.5 52.5c89.333 0 165.833 -21.833 229.5 -65.5zM832.001 251.001c41.333 60.667 62.001 150.333 62.001 269c0 121.333 -21.167 215 -63.5 281s-102.5 99 -180.5 99c-180 0 -270 -101.333 -270 -304
v-256c0 -120 89.333 -180 268 -180c81.333 0 142.666 30.333 183.999 91z" />
    <glyph glyph-name="q" unicode="q" 
d="M1024 1060l0.000976562 -1520h-212v624h-20c-6.66699 -60 -35 -105.667 -85 -137s-115.667 -47 -197 -47c-89.333 0 -165.5 20.833 -228.5 62.5s-111 102.834 -144 183.501s-49.5 178.667 -49.5 294c0 118 16.5 219 49.5 303s81.333 147.833 145 191.5
s140.167 65.5 229.5 65.5c84.667 0 150.167 -17.5 196.5 -52.5s74.166 -88.167 83.499 -159.5h23l17 192h192zM812.001 339.999l0.000976562 256.001c0 202.667 -90 304 -270 304c-78 0 -138.167 -33 -180.5 -99s-63.5 -159.667 -63.5 -281
c0 -118.667 20.667 -208.334 62 -269.001s102.666 -91 183.999 -91c178.667 0 268 60 268 180z" />
    <glyph glyph-name="r" unicode="r" 
d="M1018.5 1038.5c45.667 -27.667 79.333 -70.5 101 -128.5s32.5 -134 32.5 -228h-210c0 76.667 -11.5 132.167 -34.5 166.5s-60.167 51.5 -111.5 51.5c-88.667 0 -155.5 -38 -200.5 -114s-67.5 -186 -67.5 -330v-280h260v-176h-708v176h236v708h-196v176h368l36 -272h24
c6 98 33.167 171.167 81.5 219.5s118.5 72.5 210.5 72.5c73.333 0 132.833 -13.833 178.5 -41.5z" />
    <glyph glyph-name="s" unicode="s" 
d="M310.5 -13c-57 4.66699 -108.501 12.3359 -154.501 23.0029l24 192c136 -21.333 248.667 -32 338 -32c106.667 0 184.334 10.5 233.001 31.5s73 54.5 73 100.5c0 30.667 -8.16699 54 -24.5 70s-42.833 28.667 -79.5 38l-244 62c-68 17.333 -122.333 37.333 -163 60
s-71 51.5 -91 86.5s-30 78.833 -30 131.5c0 78 18.833 141.167 56.5 189.5s96.334 83.833 176.001 106.5s183.5 34 311.5 34c97.333 0 190.666 -6.66699 279.999 -20l-22 -184c-100.667 9.33301 -188.667 14 -264 14c-112 0 -193 -10.167 -243 -30.5s-75 -53.5 -75 -99.5
c0 -29.333 8.66699 -51.333 26 -66s46.666 -27.334 87.999 -38.001l196 -48c76 -18.667 137.333 -40.667 184 -66s81.334 -57 104.001 -95s34 -85 34 -141c0 -76.667 -18.333 -138.834 -55 -186.501s-93.5 -82.834 -170.5 -105.501s-177.167 -34 -300.5 -34
c-81.333 0 -150.5 2.33301 -207.5 7z" />
    <glyph glyph-name="t" unicode="t" 
d="M1060 4c-94 -16 -186.666 -23.998 -277.999 -23.998c-108 0 -195.333 14.667 -262 44s-115.667 74.666 -147 135.999s-47 141.333 -47 240v484h-266v176h266v320h212v-320h482v-176h-482v-474c0 -84.667 20.667 -145.834 62 -183.501s108.666 -56.5 201.999 -56.5
c30.667 0 63.5 1.66699 98.5 5s80.167 8.33301 135.5 15z" />
    <glyph glyph-name="u" unicode="u" 
d="M1158 170l-0.000976562 -170.001l-340 -10l-15 214h-19c-16 -72 -46.5 -127.333 -91.5 -166s-100.5 -58 -166.5 -58c-118 0 -209.167 33 -273.5 99s-96.5 159.667 -96.5 281v720h208v-720c0 -64 17.667 -113.333 53 -148s85 -52 149 -52
c78.667 0 137.334 25.833 176.001 77.5s58 135.834 58 252.501v590h212v-888z" />
    <glyph glyph-name="v" unicode="v" 
d="M80 1060h226l290 -880h18l280 880h226l-374 -1060h-282z" />
    <glyph glyph-name="w" unicode="w" 
d="M920 1060h210l-150 -1060h-280l-104 842h-12l-104 -842h-290l-120 1060h200l80 -900h18l130 900h184l130 -900h18z" />
    <glyph glyph-name="x" unicode="x" 
d="M1094 1060l-384 -528l384 -532h-240l-259 368l-249 -368h-240l379 524l-379 536h240l254 -371l254 371h240z" />
    <glyph glyph-name="y" unicode="y" 
d="M1110 1060l-306.001 -966.001c-40 -127.333 -84.667 -229.5 -134 -306.5s-107.666 -135 -174.999 -174s-149 -63.5 -245 -73.5l-180 -20l-10 190l166 20c86 10.667 156.5 36.834 211.5 78.501s101.167 105.5 138.5 191.5h-114l-412 1060h220l336 -900h22v-9l262 909h220z
" />
    <glyph glyph-name="z" unicode="z" 
d="M415 176h621v-176h-876v176l617 708h-617v176h856v-176z" />
    <glyph glyph-name="braceleft" unicode="{" 
d="M573.5 -117c-59.667 64.667 -89.501 155.666 -89.501 272.999c0 73.333 0.333008 128 1 164l1 172c0 34.667 -12.667 62.667 -38 84s-55.666 36.666 -90.999 45.999s-69 14 -101 14v158c28.667 0 61.167 6 97.5 18s67.5 28.833 93.5 50.5s39 46.834 39 75.501l-1 175
c-0.666992 36 -1 89.667 -1 161c0 112 29.833 198.667 89.5 260s143.834 92 252.501 92c64.667 0 121.334 -6.66699 170.001 -20l-24 -170c-52 6.66699 -94.667 10 -128 10c-47.333 0 -83.5 -15 -108.5 -45s-37.5 -72.333 -37.5 -127c0 -26 0.333008 -55.833 1 -89.5
s1.33398 -59.167 2.00098 -76.5c2 -54 3 -109.333 3 -166c0 -66 -19.333 -117.167 -58 -153.5s-93.334 -55.166 -164.001 -56.499v-34c70 -1.33301 124.5 -20.666 163.5 -57.999s58.5 -88 58.5 -152c0 -28.667 -0.333008 -60.334 -1 -95.001
c-1.33301 -34.667 -2 -60.667 -2 -78c-2 -52.667 -3 -105.667 -3 -159c0 -60.667 12.5 -107.5 37.5 -140.5s61.167 -49.5 108.5 -49.5c33.333 0 76 3.33301 128 10l24 -170c-48.667 -13.333 -105.334 -20 -170.001 -20c-108.667 0 -192.834 32.333 -252.501 97z" />
    <glyph glyph-name="bar" unicode="|" 
d="M500 1730h200v-2040h-200v2040z" />
    <glyph glyph-name="braceright" unicode="}" 
d="M206 -194l23.999 170.001c52 -6.66699 94.667 -10 128 -10c47.333 0 83.5 16.5 108.5 49.5s37.5 79.833 37.5 140.5c0 53.333 -1 106.333 -3 159c0 17.333 -0.333008 43.333 -1 78c-1.33301 34.667 -2 66.334 -2 95.001c0 64 19.5 114.667 58.5 152
s93.5 56.666 163.5 57.999v34c-70.667 1.33301 -125.334 20.166 -164.001 56.499s-58 87.5 -58 153.5c0 26 0.333008 55.833 1 89.5s1.33398 59.167 2.00098 76.5c2 54 3 109.333 3 166c0 54.667 -12.5 97 -37.5 127s-61.167 45 -108.5 45c-33.333 0 -76 -3.33301 -128 -10
l-24 170c48.667 13.333 105.334 20 170.001 20c108.667 0 192.834 -30.667 252.501 -92s89.5 -148 89.5 -260c0 -71.333 -0.333008 -125 -1 -161l-1 -175c0 -28.667 13 -53.834 39 -75.501s57.167 -38.5 93.5 -50.5s68.833 -18 97.5 -18v-158
c-32 0 -65.667 -4.66699 -101 -14s-65.666 -24.666 -90.999 -45.999s-38 -49.333 -38 -84l1 -172c0.666992 -36 1 -90.667 1 -164c0 -117.333 -29.833 -208.333 -89.5 -273s-143.834 -97 -252.501 -97c-64.667 0 -121.334 6.66699 -170.001 20z" />
    <glyph glyph-name="asciitilde" unicode="~" 
d="M164.5 751.5c43 56.333 108.169 84.5 195.502 84.5c32.667 0 65.167 -2.5 97.5 -7.5s72.833 -12.5 121.5 -22.5s89.167 -17.5 121.5 -22.5s64.833 -7.5 97.5 -7.5c66.667 0 100 54.667 100 164v30h202v-50c0 -114 -18.167 -199.167 -54.5 -255.5
s-91.5 -84.5 -165.5 -84.5c-34 0 -67.833 2.5 -101.5 7.5s-75.834 12.5 -126.501 22.5s-92.834 17.5 -126.501 22.5s-67.5 7.5 -101.5 7.5c-80 0 -120 -54.667 -120 -164v-30h-204v50c0 114 21.5 199.167 64.5 255.5z" />
    <glyph glyph-name="exclamdown" unicode="&#xa1;" 
d="M674 1060c22.667 -13.333 40.667 -31.333 54 -54s20 -47.334 20 -74.001s-6.66699 -51.334 -20 -74.001s-31.333 -40.667 -54 -54s-47.334 -20 -74.001 -20s-51.334 6.66699 -74.001 20s-40.667 31.333 -54 54s-20 47.334 -20 74.001s6.66699 51.334 20 74.001
s31.333 40.667 54 54s47.334 20 74.001 20s51.334 -6.66699 74.001 -20zM502 604h192l10 -974h-208z" />
    <glyph glyph-name="cent" unicode="&#xa2;" 
d="M1042 10c-84 -17.333 -187.333 -27.335 -310 -30.002v-314h-138v318c-147.333 16 -260.5 70.833 -339.5 164.5s-118.5 221.5 -118.5 383.5c0 159.333 39.5 286.166 118.5 380.499s192.167 148.833 339.5 163.5v318h138v-316c88.667 -7.33301 164.5 -29.666 227.5 -66.999
s108.833 -87.666 137.5 -150.999l-163 -123c-24 38.667 -53.333 70.334 -88 95.001s-72.667 41.667 -114 51v-713c96.667 2 192 10.667 286 26zM417 302.998c40.667 -60.667 99.667 -100.666 177 -119.999v701c-76 -14 -134.667 -50.5 -176 -109.5s-62 -136.5 -62 -232.5
c0 -98.667 20.333 -178.334 61 -239.001z" />
    <glyph glyph-name="sterling" unicode="&#xa3;" 
d="M458 386.5c-26 -63.667 -64 -130.501 -114 -200.501h752v-186h-964v186c49.333 70 86.833 136.833 112.5 200.5s40.834 128.5 45.501 194.5h-181v138h183v317c0 85.333 16.5 158.166 49.5 218.499s80.833 106.333 143.5 138s137.667 47.5 225 47.5
c96 0 179.167 -19.167 249.5 -57.5s122.166 -92.166 155.499 -161.499l-168 -127c-28 49.333 -63.333 87.333 -106 114s-89 40 -139 40c-59.333 0 -106.833 -18.667 -142.5 -56s-53.5 -89.666 -53.5 -156.999v-316h391v-138h-393c-4.66699 -66 -20 -130.833 -46 -194.5z" />
    <glyph glyph-name="currency" unicode="&#xa4;" 
d="M949 452l179.001 -189.001l-116 -132l-191 216c-64 -31.333 -136.667 -47 -218 -47c-84 0 -158 16.333 -222 49l-193 -218l-116 132l183 192c-24.667 32.667 -43.5 69.834 -56.5 111.501s-19.5 86.167 -19.5 133.5c0 94.667 25 176.334 75 245.001l-182 190l127 124
l182 -208c64 32.667 138 49 222 49c83.333 0 155.666 -15.667 216.999 -47l181 206l127 -124l-178 -187c51.333 -69.333 77 -152 77 -248c0 -96.667 -26 -179.334 -78 -248.001zM751.001 547.499c37.333 38.333 56 89.166 56 152.499s-18.667 114.166 -56 152.499
s-86.666 57.5 -147.999 57.5s-110.666 -19.167 -147.999 -57.5s-56 -89.166 -56 -152.499s18.667 -114.166 56 -152.499s86.666 -57.5 147.999 -57.5s110.666 19.167 147.999 57.5z" />
    <glyph glyph-name="yen" unicode="&#xa5;" 
d="M1176 1420l-405 -781h269v-138h-337v-172h337v-138h-337v-191h-200v191h-341v138h341v170l-1 2h-340v138h269l-405 781h220l346 -710h18l346 710h220z" />
    <glyph glyph-name="brokenbar" unicode="&#xa6;" 
d="M500 1730h200v-860h-200v860zM500 550h200v-860h-200v860z" />
    <glyph glyph-name="section" unicode="&#xa7;" 
d="M1057.5 469c-49 -43.333 -127.499 -65.3359 -235.499 -66.0029v-28c73.333 -29.333 126.5 -64.333 159.5 -105s49.5 -95.334 49.5 -164.001c0 -76.667 -17.667 -138.834 -53 -186.501s-90 -82.834 -164 -105.501s-170.333 -34 -289 -34
c-81.333 0 -150.5 2.33301 -207.5 7s-108.5 12.334 -154.5 23.001l24 192c136 -21.333 248.667 -32 338 -32c100 0 172.667 10.5 218 31.5s68 54.5 68 100.5c0 31.333 -6.5 54.833 -19.5 70.5s-34.5 28.167 -64.5 37.5l-354 110c-73.333 22.667 -131.833 47.667 -175.5 75
s-76 62 -97 104s-31.5 95 -31.5 159c0 90.667 31.667 158.334 95 203.001s163.333 66.667 300 66v23l-31 10c-64.667 21.333 -115.5 43.166 -152.5 65.499s-64.833 50.333 -83.5 84s-28 76.5 -28 128.5c0 78 18.167 141.167 54.5 189.5s92.833 83.833 169.5 106.5
s176.667 34 300 34c97.333 0 190.666 -6.66699 279.999 -20l-22 -184c-100.667 9.33301 -188.667 14 -264 14c-105.333 0 -181.333 -10.167 -228 -30.5s-70 -53.5 -70 -99.5c0 -29.333 6.83301 -50.666 20.5 -63.999s38.167 -26.666 73.5 -39.999l326 -120
c79.333 -29.333 141.5 -58.166 186.5 -86.499s78.833 -63.166 101.5 -104.499s34 -94.333 34 -159c0 -93.333 -24.5 -161.666 -73.5 -204.999zM302.501 588.497c9 -20.333 23.168 -36.8311 42.501 -49.498s45.333 -24.334 78 -35.001
c59.333 -17.333 126.666 -26 201.999 -26c100 0 172.667 15.167 218 45.5s68 79.166 68 146.499c0 49.333 -8 86.333 -24 111s-42.667 43 -80 55l-6 2c-61.333 20 -126 30 -194 30c-112 0 -193 -15.667 -243 -47s-75 -82.333 -75 -153c0 -32.667 4.5 -59.167 13.5 -79.5z
" />
    <glyph glyph-name="dieresis" unicode="&#xa8;" 
d="M323 1256c-20.667 12 -37 28.333 -49 49s-18 43 -18 67c0 24.667 6 47.167 18 67.5s28.333 36.5 49 48.5s43 18 67 18s46.333 -6 67 -18s37 -28.167 49 -48.5s18 -42.833 18 -67.5c0 -24 -6 -46.333 -18 -67s-28.333 -37 -49 -49s-43 -18 -67 -18s-46.333 6 -67 18z
M743 1256c-20.667 12 -37 28.333 -49 49s-18 43 -18 67c0 24.667 6 47.167 18 67.5s28.333 36.5 49 48.5s43 18 67 18s46.333 -6 67 -18s37 -28.167 49 -48.5s18 -42.833 18 -67.5c0 -24 -6 -46.333 -18 -67s-28.333 -37 -49 -49s-43 -18 -67 -18s-46.333 6 -67 18z" />
    <glyph glyph-name="copyright" unicode="&#xa9;" 
d="M289.5 95c-85.667 53.333 -151 130.833 -196 232.5s-67.5 224.167 -67.5 367.5c0 149.333 22.5 277.166 67.5 383.499s110.333 187.333 196 243s189.167 83.5 310.5 83.5s224.833 -27.833 310.5 -83.5s151 -136.667 196 -243s67.5 -234.166 67.5 -383.499
c0 -143.333 -22.5 -265.833 -67.5 -367.5s-110.333 -179.167 -196 -232.5s-189.167 -80 -310.5 -80s-224.833 26.667 -310.5 80zM818.5 231c60.333 41.333 106.333 101.333 138 180s47.5 173.334 47.5 284.001c0 117.333 -15.833 217.5 -47.5 300.5
s-77.667 146.333 -138 190s-133.166 65.5 -218.499 65.5s-158.166 -21.833 -218.499 -65.5s-106.333 -107 -138 -190s-47.5 -183.167 -47.5 -300.5c0 -110.667 15.833 -205.334 47.5 -284.001s77.667 -138.667 138 -180s133.166 -62 218.499 -62s158.166 20.667 218.499 62z
M709.5 861c-22.333 12.667 -46.832 19 -73.499 19c-51.333 0 -90.833 -13.667 -118.5 -41s-41.5 -66.333 -41.5 -117c0 -58.667 17.167 -103.667 51.5 -135s83.833 -47 148.5 -47c55.333 0 112.666 8.66699 171.999 26l24 -156c-58 -20 -131.333 -30 -220 -30
c-116.667 0 -206.834 28.667 -270.501 86s-95.5 139.333 -95.5 246c0 104 31.167 184.667 93.5 242s150.5 86 264.5 86c58.667 0 109.334 -10.5 152.001 -31.5s73 -50.5 91 -88.5l-123 -113c-14 23.333 -32.167 41.333 -54.5 54z" />
    <glyph glyph-name="ordfeminine" unicode="&#xaa;" 
d="M994 897l-0.00195312 -112l-249 -6l-5 115h-27c-17.333 -42 -41.666 -72.667 -72.999 -92s-77.666 -29 -138.999 -29c-68.667 0 -122 16.833 -160 50.5s-57 81.167 -57 142.5c0 69.333 23 122.833 69 160.5s111.333 56.5 196 56.5c70 0 127.333 -2.33301 172 -7v2
c0 72.667 -58.333 110 -175 112l-185 4l11 146l162 -1c235.333 -0.666992 353 -94 353 -280v-249zM720.998 1059h-167.999c-62.667 0 -94 -25.333 -94 -76c0 -24 7.16699 -42.333 21.5 -55s35.833 -19 64.5 -19c37.333 0 69.166 4.83301 95.499 14.5s46.333 22.167 60 37.5
s20.5 31.333 20.5 48v50z" />
    <glyph glyph-name="guillemotleft" unicode="&#xab;" 
d="M76 458v142l488 384v-210l-300 -236v-18l300 -236v-210zM596 458v142l488 384v-210l-300 -236v-18l300 -236v-210z" />
    <glyph glyph-name="logicalnot" unicode="&#xac;" 
d="M100 903h1000v-553h-192v367h-808v186z" />
    <glyph glyph-name="uni00AD" unicode="&#xad;" 
d="M100 802h1000v-186h-1000v186z" />
    <glyph glyph-name="registered" unicode="&#xae;" 
d="M910.5 1321.5c85.667 -55.667 151 -136.667 196 -243s67.5 -234.166 67.5 -383.499c0 -143.333 -22.5 -265.833 -67.5 -367.5s-110.333 -179.167 -196 -232.5s-189.167 -80 -310.5 -80s-224.833 26.667 -310.5 80s-151 130.833 -196 232.5s-67.5 224.167 -67.5 367.5
c0 149.333 22.5 277.166 67.5 383.499s110.333 187.333 196 243s189.167 83.5 310.5 83.5s224.833 -27.833 310.5 -83.5zM818.5 231c60.333 41.333 106.333 101.333 138 180s47.5 173.334 47.5 284.001c0 117.333 -15.833 217.5 -47.5 300.5s-77.667 146.333 -138 190
s-133.166 65.5 -218.499 65.5s-158.166 -21.833 -218.499 -65.5s-106.333 -107 -138 -190s-47.5 -183.167 -47.5 -300.5c0 -110.667 15.833 -205.334 47.5 -284.001s77.667 -138.667 138 -180s133.166 -62 218.499 -62s158.166 20.667 218.499 62zM904 396h-187l-110 204
h-99v-204h-160v634h300c76.667 0 136.167 -17.833 178.5 -53.5s63.5 -86.167 63.5 -151.5c0 -50 -10.667 -92.5 -32 -127.5s-52 -60.5 -92 -76.5zM508 730h140c29.333 0 52 7.5 68 22.5s24 35.833 24 62.5s-8 47.5 -24 62.5s-38.667 22.5 -68 22.5h-140v-170z" />
    <glyph glyph-name="macron" unicode="&#xaf;" 
d="M170 1436h860v-188h-860v188z" />
    <glyph glyph-name="degree" unicode="&#xb0;" 
d="M420.5 811.5c-51.667 27.667 -91.667 66.834 -120 117.501s-42.5 109.334 -42.5 176.001s14.167 125.334 42.5 176.001s68.333 89.834 120 117.501s111.5 41.5 179.5 41.5s127.833 -13.833 179.5 -41.5s91.667 -66.834 120 -117.501s42.5 -109.334 42.5 -176.001
s-14.167 -125.334 -42.5 -176.001s-68.333 -89.834 -120 -117.501s-111.5 -41.5 -179.5 -41.5s-127.833 13.833 -179.5 41.5zM721.5 971c30.333 34 45.5 78.667 45.5 134c0 56 -15.167 101 -45.5 135s-70.833 51 -121.5 51s-91.167 -17 -121.5 -51s-45.5 -79 -45.5 -135
c0 -55.333 15.167 -100 45.5 -134s70.833 -51 121.5 -51s91.167 17 121.5 51z" />
    <glyph glyph-name="plusminus" unicode="&#xb1;" 
d="M1100 683h-404v-311h404v-186h-1000v186h404v311h-404v186h404v355h192v-355h404v-186z" />
    <glyph glyph-name="uni00B2" unicode="&#xb2;" 
d="M858 943l-0.00195312 -140h-516v157c98.667 34.667 172.834 71.167 222.501 109.5s74.5 77.5 74.5 117.5c0 60.667 -40.667 91 -122 91c-20.667 0 -42.667 -4 -66 -12s-46 -19.333 -68 -34l-66 138c29.333 22 66.333 38.833 111 50.5s93.334 17.5 146.001 17.5
c51.333 0 96.5 -8.16699 135.5 -24.5s69.167 -39.333 90.5 -69s32 -63.834 32 -102.501c0 -103.333 -81.333 -198.666 -244 -285.999v-13h270z" />
    <glyph glyph-name="uni00B3" unicode="&#xb3;" 
d="M802.5 1087c29.667 -25.333 44.501 -58.334 44.501 -99.001c0 -63.333 -26.5 -111.666 -79.5 -144.999s-128.167 -50 -225.5 -50c-78.667 0 -147.334 8.66699 -206.001 26l41 146c5.33301 -1.33301 18 -4 38 -8s40.667 -7.16699 62 -9.5s42.333 -3.5 63 -3.5
c42.667 0 75.667 5.5 99 16.5s35 26.5 35 46.5c0 16.667 -11 29.5 -33 38.5s-53.333 13.5 -94 13.5h-64l-10 116c62 4.66699 108 12.667 138 24s45 25.333 45 42c0 15.333 -9.83301 27.333 -29.5 36s-47.167 13 -82.5 13c-64.667 0 -123 -9.66699 -175 -29l-21 149
c62.667 20 138 30 226 30c82 0 145.167 -11.833 189.5 -35.5s66.5 -57.834 66.5 -102.501c0 -34 -13.667 -63.667 -41 -89s-63.333 -42.666 -108 -51.999v-24c51.333 -8 91.833 -24.667 121.5 -50z" />
    <glyph glyph-name="acute" unicode="&#xb4;" 
d="M469 1248l170 380h212l-190 -380h-192z" />
    <glyph glyph-name="uni00B5" unicode="&#xb5;" 
d="M1158 170l-0.000976562 -169.999l-340 -10l-15 214h-19c-28 -149.333 -100.667 -224 -218 -224c-115.333 0 -188.333 74.667 -219 224h-22l63 -664h-232v1540h208v-650c0 -76.667 17.667 -135.834 53 -177.501s85 -62.5 149 -62.5c78.667 0 137.334 23.5 176.001 70.5
s58 123.5 58 229.5v590h212v-888z" />
    <glyph glyph-name="paragraph" unicode="&#xb6;" 
d="M1160 1230l-168 -0.000976562v-1230h-200v1230h-170v-1230h-200v644c-124 12.667 -219.333 51.334 -286 116.001s-100 152 -100 262c0 83.333 19 154.833 57 214.5s93.5 105.167 166.5 136.5s161.167 47 264.5 47h636v-190z" />
    <glyph glyph-name="periodcentered" unicode="&#xb7;" 
d="M526 402c-22.667 13.333 -40.667 31.333 -54 54s-20 47.334 -20 74.001s6.66699 51.334 20 74.001s31.333 40.667 54 54s47.334 20 74.001 20s51.334 -6.66699 74.001 -20s40.667 -31.333 54 -54s20 -47.334 20 -74.001s-6.66699 -51.334 -20 -74.001
s-31.333 -40.667 -54 -54s-47.334 -20 -74.001 -20s-51.334 6.66699 -74.001 20z" />
    <glyph glyph-name="cedilla" unicode="&#xb8;" 
d="M750 12l-29.999 -112c114.667 -24 172 -79.667 172 -167c0 -142 -126 -213 -378 -213v150c125.333 0 188 24 188 72c0 22.667 -13.333 39.667 -40 51s-67.334 17 -122.001 17l84 239z" />
    <glyph glyph-name="uni00B9" unicode="&#xb9;" 
d="M697 943h163v-141h-518v141h199v319l-190 -51v158l190 53h156v-479z" />
    <glyph glyph-name="ordmasculine" unicode="&#xba;" 
d="M420.5 811.5c-51.667 27.667 -91.667 66.834 -120 117.501s-42.5 109.334 -42.5 176.001s14.167 125.334 42.5 176.001s68.333 89.834 120 117.501s111.5 41.5 179.5 41.5s127.833 -13.833 179.5 -41.5s91.667 -66.834 120 -117.501s42.5 -109.334 42.5 -176.001
s-14.167 -125.334 -42.5 -176.001s-68.333 -89.834 -120 -117.501s-111.5 -41.5 -179.5 -41.5s-127.833 13.833 -179.5 41.5zM714 971c28.667 34 43 78.667 43 134c0 56 -14.333 101 -43 135s-66.667 51 -114 51s-85.333 -17 -114 -51s-43 -79 -43 -135
c0 -55.333 14.333 -100 43 -134s66.667 -51 114 -51s85.333 17 114 51z" />
    <glyph glyph-name="guillemotright" unicode="&#xbb;" 
d="M116 284l300 236v18l-300 236v210l488 -384v-142l-488 -384v210zM636 284l300 236v18l-300 236v210l488 -384v-142l-488 -384v210z" />
    <glyph glyph-name="onequarter" unicode="&#xbc;" 
d="M82 802v141h199v319l-190 -51v158l190 53h156v-479h163v-141h-518zM1024 1086l92 -130l-930 -670l-92 136zM1037 620v-374h69v-140h-69v-106h-156v106h-321l2 4l77 475h164l-55 -339h133v374h156z" />
    <glyph glyph-name="onehalf" unicode="&#xbd;" 
d="M82 802v141h199v319l-190 -51v158l190 53h156v-479h163v-141h-518zM1024 1096l92 -130l-930 -670l-92 136zM1128 140l-0.00195312 -140h-516v157c98.667 34.667 172.834 71.167 222.501 109.5s74.5 77.5 74.5 117.5c0 60.667 -40.667 91 -122 91
c-20.667 0 -42.667 -4 -66 -12s-46 -19.333 -68 -34l-66 138c29.333 22 66.333 38.833 111 50.5s93.334 17.5 146.001 17.5c51.333 0 96.5 -8.16699 135.5 -24.5s69.167 -39.333 90.5 -69s32 -63.834 32 -102.501c0 -103.333 -81.333 -198.666 -244 -285.999v-13h270z" />
    <glyph glyph-name="threequarters" unicode="&#xbe;" 
d="M399 960.5c23.333 11 35.001 26.499 35.001 46.499c0 16.667 -11 29.5 -33 38.5s-53.333 13.5 -94 13.5h-64l-10 116c62 4.66699 108 12.667 138 24s45 25.333 45 42c0 15.333 -9.83301 27.333 -29.5 36s-47.167 13 -82.5 13c-64.667 0 -123 -9.66699 -175 -29l-21 149
c62.667 20 138 30 226 30c82 0 145.167 -11.833 189.5 -35.5s66.5 -57.834 66.5 -102.501c0 -34 -13.667 -63.667 -41 -89s-63.333 -42.666 -108 -51.999v-24c51.333 -8 91.833 -24.667 121.5 -50s44.5 -58.333 44.5 -99c0 -63.333 -26.5 -111.666 -79.5 -144.999
s-128.167 -50 -225.5 -50c-78.667 0 -147.334 8.66699 -206.001 26l41 146c5.33301 -1.33301 18 -4 38 -8s40.667 -7.16699 62 -9.5s42.333 -3.5 63 -3.5c42.667 0 75.667 5.5 99 16.5zM1024 1106l92 -130l-930 -670l-92 136zM1037 619.999v-374h69v-140h-69v-106h-156v106
h-321l2 4l77 475h164l-55 -339h133v374h156z" />
    <glyph glyph-name="questiondown" unicode="&#xbf;" 
d="M672 1060c22.667 -13.333 40.667 -31.333 54 -54s20 -47.334 20 -74.001s-6.66699 -51.334 -20 -74.001s-31.333 -40.667 -54 -54s-47.334 -20 -74.001 -20s-51.334 6.66699 -74.001 20s-40.667 31.333 -54 54s-20 47.334 -20 74.001s6.66699 51.334 20 74.001
s31.333 40.667 54 54s47.334 20 74.001 20s51.334 -6.66699 74.001 -20zM536 206c-108 -67.333 -162 -146.668 -162 -238.001c0 -50 17.167 -88.833 51.5 -116.5s82.833 -41.5 145.5 -41.5c72.667 0 129 16.333 169 49s60 79 60 139h202c0 -79.333 -17 -147.333 -51 -204
s-83.333 -99.834 -148 -129.501s-142.667 -44.5 -234 -44.5c-87.333 0 -162 13.333 -224 40s-109.333 65.334 -142 116.001s-49 111.334 -49 182.001c0 148 74 269.333 222 364c85.333 55.333 128 122 128 200v82h196v-96c0 -132 -54.667 -232.667 -164 -302z" />
    <glyph glyph-name="Agrave" unicode="&#xc0;" 
d="M942 0l-93 346h-504l-93 -346h-210l410 1420h290l410 -1420h-210zM396 536h402l-192 712h-18zM239 1830h282l220 -250h-242z" />
    <glyph glyph-name="Aacute" unicode="&#xc1;" 
d="M942 0l-93 346h-504l-93 -346h-210l410 1420h290l410 -1420h-210zM396 536h402l-192 712h-18zM489 1580l220 250h282l-260 -250h-242z" />
    <glyph glyph-name="Acircumflex" unicode="&#xc2;" 
d="M942 0l-93 346h-504l-93 -346h-210l410 1420h290l410 -1420h-210zM396 536h402l-192 712h-18zM951 1580h-222l-124 144l-124 -144h-222l260 260h172z" />
    <glyph glyph-name="Atilde" unicode="&#xc3;" 
d="M942 0l-93 346h-504l-93 -346h-210l410 1420h290l410 -1420h-210zM396 536h402l-192 712h-18zM425 1866c25.333 0 51.832 -3.83203 79.499 -11.499s67.167 -20.167 118.5 -37.5l65 -24c29.333 -10.667 50.5 -17.834 63.5 -21.501s25.5 -5.5 37.5 -5.5
c36 0 54 31.333 54 94v30h172v-50c0 -160 -66 -240 -198 -240c-21.333 0 -46.833 4.33301 -76.5 13s-71.834 22.667 -126.501 42c-45.333 16 -79.166 27.5 -101.499 34.5s-42.166 10.5 -59.499 10.5c-49.333 0 -74 -34.667 -74 -104v-30h-174v50
c0 166.667 73.333 250 220 250z" />
    <glyph glyph-name="Adieresis" unicode="&#xc4;" 
d="M942 0l-93 346h-504l-93 -346h-210l410 1420h290l410 -1420h-210zM396 536h402l-192 712h-18zM321 1598c-20.667 12 -37 28.333 -49 49s-18 43 -18 67c0 24.667 6 47.167 18 67.5s28.333 36.5 49 48.5s43 18 67 18s46.333 -6 67 -18s37 -28.167 49 -48.5
s18 -42.833 18 -67.5c0 -24 -6 -46.333 -18 -67s-28.333 -37 -49 -49s-43 -18 -67 -18s-46.333 6 -67 18zM741 1598c-20.667 12 -37 28.333 -49 49s-18 43 -18 67c0 24.667 6 47.167 18 67.5s28.333 36.5 49 48.5s43 18 67 18s46.333 -6 67 -18s37 -28.167 49 -48.5
s18 -42.833 18 -67.5c0 -24 -6 -46.333 -18 -67s-28.333 -37 -49 -49s-43 -18 -67 -18s-46.333 6 -67 18z" />
    <glyph glyph-name="Aring" unicode="&#xc5;" 
d="M942 0l-93 346h-504l-93 -346h-210l410 1420h290l410 -1420h-210zM396 536h402l-192 712h-18zM424.5 1542c-41.667 36 -62.5 86.667 -62.5 152s20.833 116 62.5 152s100.167 54 175.5 54s133.833 -18 175.5 -54s62.5 -86.667 62.5 -152s-20.833 -116 -62.5 -152
s-100.167 -54 -175.5 -54s-133.833 18 -175.5 54zM671 1627c16.667 15.333 25 37.666 25 66.999s-8.33301 51.833 -25 67.5s-40.334 23.5 -71.001 23.5s-54.334 -7.83301 -71.001 -23.5s-25 -38.167 -25 -67.5s8.33301 -51.666 25 -66.999s40.334 -23 71.001 -23
s54.334 7.66699 71.001 23z" />
    <glyph glyph-name="AE" unicode="&#xc6;" 
d="M1100 1240h-320v-439h260v-180h-260v-441h320v-180h-500v246h-299l-69 -246h-190l400 1420h658v-180zM600 1248h-17l-235 -837h252v837z" />
    <glyph glyph-name="Ccedilla" unicode="&#xc7;" 
d="M741 -20l-20.999 -80c114.667 -24 172 -79.667 172 -167c0 -142 -126 -213 -378 -213v150c125.333 0 188 24 188 72c0 22.667 -13.333 39.667 -40 51s-67.334 17 -122.001 17l64 181c-338.667 54 -508 294.333 -508 721c0 153.333 25 284.5 75 393.5s122.667 192 218 249
s210.333 85.5 345 85.5c98 0 183.333 -15.667 256 -47s125.667 -75.333 159 -132l-148 -147c-30 45.333 -68.167 80.333 -114.5 105s-96.5 37 -150.5 37c-86 0 -161 -20.833 -225 -62.5s-113.5 -102.667 -148.5 -183s-52.5 -176.5 -52.5 -288.5
c0 -186 40.333 -325.5 121 -418.5s201 -139.5 361 -139.5c96.667 0 192 20 286 60l46 -176c-116 -45.333 -238 -68 -366 -68h-17z" />
    <glyph glyph-name="Egrave" unicode="&#xc8;" 
d="M1100 1230h-740v-424h560v-190h-560v-426h740v-190h-940v1420h940v-190zM269 1830h282l220 -250h-242z" />
    <glyph glyph-name="Eacute" unicode="&#xc9;" 
d="M1100 1230h-740v-424h560v-190h-560v-426h740v-190h-940v1420h940v-190zM519 1580l220 250h282l-260 -250h-242z" />
    <glyph glyph-name="Ecircumflex" unicode="&#xca;" 
d="M1100 1230h-740v-424h560v-190h-560v-426h740v-190h-940v1420h940v-190zM981 1580h-222l-124 144l-124 -144h-222l260 260h172z" />
    <glyph glyph-name="Edieresis" unicode="&#xcb;" 
d="M1100 1230h-740v-424h560v-190h-560v-426h740v-190h-940v1420h940v-190zM351 1598c-20.667 12 -37 28.333 -49 49s-18 43 -18 67c0 24.667 6 47.167 18 67.5s28.333 36.5 49 48.5s43 18 67 18s46.333 -6 67 -18s37 -28.167 49 -48.5s18 -42.833 18 -67.5
c0 -24 -6 -46.333 -18 -67s-28.333 -37 -49 -49s-43 -18 -67 -18s-46.333 6 -67 18zM771 1598c-20.667 12 -37 28.333 -49 49s-18 43 -18 67c0 24.667 6 47.167 18 67.5s28.333 36.5 49 48.5s43 18 67 18s46.333 -6 67 -18s37 -28.167 49 -48.5s18 -42.833 18 -67.5
c0 -24 -6 -46.333 -18 -67s-28.333 -37 -49 -49s-43 -18 -67 -18s-46.333 6 -67 18z" />
    <glyph glyph-name="Igrave" unicode="&#xcc;" 
d="M1032 1230h-333v-1040h333v-190h-864v190h331v1040h-331v190h864v-190zM239 1830h282l220 -250h-242z" />
    <glyph glyph-name="Iacute" unicode="&#xcd;" 
d="M1032 1230h-333v-1040h333v-190h-864v190h331v1040h-331v190h864v-190zM489 1580l220 250h282l-260 -250h-242z" />
    <glyph glyph-name="Icircumflex" unicode="&#xce;" 
d="M1032 1230h-333v-1040h333v-190h-864v190h331v1040h-331v190h864v-190zM951 1580h-222l-124 144l-124 -144h-222l260 260h172z" />
    <glyph glyph-name="Idieresis" unicode="&#xcf;" 
d="M1032 1230h-333v-1040h333v-190h-864v190h331v1040h-331v190h864v-190zM321 1598c-20.667 12 -37 28.333 -49 49s-18 43 -18 67c0 24.667 6 47.167 18 67.5s28.333 36.5 49 48.5s43 18 67 18s46.333 -6 67 -18s37 -28.167 49 -48.5s18 -42.833 18 -67.5
c0 -24 -6 -46.333 -18 -67s-28.333 -37 -49 -49s-43 -18 -67 -18s-46.333 6 -67 18zM741 1598c-20.667 12 -37 28.333 -49 49s-18 43 -18 67c0 24.667 6 47.167 18 67.5s28.333 36.5 49 48.5s43 18 67 18s46.333 -6 67 -18s37 -28.167 49 -48.5s18 -42.833 18 -67.5
c0 -24 -6 -46.333 -18 -67s-28.333 -37 -49 -49s-43 -18 -67 -18s-46.333 6 -67 18z" />
    <glyph glyph-name="Eth" unicode="&#xd0;" 
d="M992 1233c108 -124.667 162 -312.333 162 -563c0 -224 -54 -391.667 -162 -503s-270.667 -167 -488 -167h-344v612h-118v190h118v618h344c217.333 0 380 -62.333 488 -187zM833.5 315.001c73.667 83.333 110.5 208.333 110.5 375c0 360 -146.667 540 -440 540h-144v-428
h321v-190h-321v-422h144c146 0 255.833 41.667 329.5 125z" />
    <glyph glyph-name="Ntilde" unicode="&#xd1;" 
d="M860 1420h192v-1420h-252l-440 1050h-20v-1050h-192v1420h252l440 -1098h20v1098zM425 1866c25.333 0 51.832 -3.83203 79.499 -11.499s67.167 -20.167 118.5 -37.5l65 -24c29.333 -10.667 50.5 -17.834 63.5 -21.501s25.5 -5.5 37.5 -5.5c36 0 54 31.333 54 94v30h172
v-50c0 -160 -66 -240 -198 -240c-21.333 0 -46.833 4.33301 -76.5 13s-71.834 22.667 -126.501 42c-45.333 16 -79.166 27.5 -101.499 34.5s-42.166 10.5 -59.499 10.5c-49.333 0 -74 -34.667 -74 -104v-30h-174v50c0 166.667 73.333 250 220 250z" />
    <glyph glyph-name="Ograve" unicode="&#xd2;" 
d="M76 700c0 493.333 174.667 740 524 740s524 -246.667 524 -740c0 -480 -174.667 -720 -524 -720s-524 240 -524 720zM914 700c0 370.667 -104.667 556 -314 556s-314 -185.333 -314 -556c0 -357.333 104.667 -536 314 -536s314 178.667 314 536zM239 1830h282l220 -250
h-242z" />
    <glyph glyph-name="Oacute" unicode="&#xd3;" 
d="M76 700c0 493.333 174.667 740 524 740s524 -246.667 524 -740c0 -480 -174.667 -720 -524 -720s-524 240 -524 720zM914 700c0 370.667 -104.667 556 -314 556s-314 -185.333 -314 -556c0 -357.333 104.667 -536 314 -536s314 178.667 314 536zM489 1580l220 250h282
l-260 -250h-242z" />
    <glyph glyph-name="Ocircumflex" unicode="&#xd4;" 
d="M76 700c0 493.333 174.667 740 524 740s524 -246.667 524 -740c0 -480 -174.667 -720 -524 -720s-524 240 -524 720zM914 700c0 370.667 -104.667 556 -314 556s-314 -185.333 -314 -556c0 -357.333 104.667 -536 314 -536s314 178.667 314 536zM951 1580h-222l-124 144
l-124 -144h-222l260 260h172z" />
    <glyph glyph-name="Otilde" unicode="&#xd5;" 
d="M76 700c0 493.333 174.667 740 524 740s524 -246.667 524 -740c0 -480 -174.667 -720 -524 -720s-524 240 -524 720zM914 700c0 370.667 -104.667 556 -314 556s-314 -185.333 -314 -556c0 -357.333 104.667 -536 314 -536s314 178.667 314 536zM425 1866
c25.333 0 51.832 -3.83203 79.499 -11.499s67.167 -20.167 118.5 -37.5l65 -24c29.333 -10.667 50.5 -17.834 63.5 -21.501s25.5 -5.5 37.5 -5.5c36 0 54 31.333 54 94v30h172v-50c0 -160 -66 -240 -198 -240c-21.333 0 -46.833 4.33301 -76.5 13
s-71.834 22.667 -126.501 42c-45.333 16 -79.166 27.5 -101.499 34.5s-42.166 10.5 -59.499 10.5c-49.333 0 -74 -34.667 -74 -104v-30h-174v50c0 166.667 73.333 250 220 250z" />
    <glyph glyph-name="Odieresis" unicode="&#xd6;" 
d="M76 700c0 493.333 174.667 740 524 740s524 -246.667 524 -740c0 -480 -174.667 -720 -524 -720s-524 240 -524 720zM914 700c0 370.667 -104.667 556 -314 556s-314 -185.333 -314 -556c0 -357.333 104.667 -536 314 -536s314 178.667 314 536zM321 1598
c-20.667 12 -37 28.333 -49 49s-18 43 -18 67c0 24.667 6 47.167 18 67.5s28.333 36.5 49 48.5s43 18 67 18s46.333 -6 67 -18s37 -28.167 49 -48.5s18 -42.833 18 -67.5c0 -24 -6 -46.333 -18 -67s-28.333 -37 -49 -49s-43 -18 -67 -18s-46.333 6 -67 18zM741 1598
c-20.667 12 -37 28.333 -49 49s-18 43 -18 67c0 24.667 6 47.167 18 67.5s28.333 36.5 49 48.5s43 18 67 18s46.333 -6 67 -18s37 -28.167 49 -48.5s18 -42.833 18 -67.5c0 -24 -6 -46.333 -18 -67s-28.333 -37 -49 -49s-43 -18 -67 -18s-46.333 6 -67 18z" />
    <glyph glyph-name="multiply" unicode="&#xd7;" 
d="M1079 1065l-357 -378l357 -378l-128 -121l-351 371l-351 -371l-128 121l357 378l-357 378l128 123l351 -372l351 372z" />
    <glyph glyph-name="Oslash" unicode="&#xd8;" 
d="M1124 700c0 -480 -174.667 -720 -524 -720c-114.667 0 -211 26 -289 78l-110 -192l-135 75l133 231c-82 120 -123 296 -123 528c0 493.333 174.667 740 524 740c112.667 0 206.667 -25.333 282 -76l97 168l135 -75l-118 -206c85.333 -123.333 128 -307 128 -551zM324 391
l458.001 797c-48.667 45.333 -109.334 68 -182.001 68c-209.333 0 -314 -185.333 -314 -556c0 -124 12.667 -227 38 -309zM914.001 700c0 137.333 -14.333 248.667 -43 334l-458 -799c48.667 -47.333 111 -71 187 -71c209.333 0 314 178.667 314 536z" />
    <glyph glyph-name="Ugrave" unicode="&#xd9;" 
d="M140 456v964h200v-964c0 -96 21 -167.667 63 -215s107.667 -71 197 -71c86 0 150.833 24 194.5 72s65.5 119.333 65.5 214v964h200v-964c0 -158 -39.167 -276.833 -117.5 -356.5s-193.833 -119.5 -346.5 -119.5c-304 0 -456 158.667 -456 476zM239 1830h282l220 -250
h-242z" />
    <glyph glyph-name="Uacute" unicode="&#xda;" 
d="M140 456v964h200v-964c0 -96 21 -167.667 63 -215s107.667 -71 197 -71c86 0 150.833 24 194.5 72s65.5 119.333 65.5 214v964h200v-964c0 -158 -39.167 -276.833 -117.5 -356.5s-193.833 -119.5 -346.5 -119.5c-304 0 -456 158.667 -456 476zM489 1580l220 250h282
l-260 -250h-242z" />
    <glyph glyph-name="Ucircumflex" unicode="&#xdb;" 
d="M140 456v964h200v-964c0 -96 21 -167.667 63 -215s107.667 -71 197 -71c86 0 150.833 24 194.5 72s65.5 119.333 65.5 214v964h200v-964c0 -158 -39.167 -276.833 -117.5 -356.5s-193.833 -119.5 -346.5 -119.5c-304 0 -456 158.667 -456 476zM951 1580h-222l-124 144
l-124 -144h-222l260 260h172z" />
    <glyph glyph-name="Udieresis" unicode="&#xdc;" 
d="M140 456v964h200v-964c0 -96 21 -167.667 63 -215s107.667 -71 197 -71c86 0 150.833 24 194.5 72s65.5 119.333 65.5 214v964h200v-964c0 -158 -39.167 -276.833 -117.5 -356.5s-193.833 -119.5 -346.5 -119.5c-304 0 -456 158.667 -456 476zM321 1598
c-20.667 12 -37 28.333 -49 49s-18 43 -18 67c0 24.667 6 47.167 18 67.5s28.333 36.5 49 48.5s43 18 67 18s46.333 -6 67 -18s37 -28.167 49 -48.5s18 -42.833 18 -67.5c0 -24 -6 -46.333 -18 -67s-28.333 -37 -49 -49s-43 -18 -67 -18s-46.333 6 -67 18zM741 1598
c-20.667 12 -37 28.333 -49 49s-18 43 -18 67c0 24.667 6 47.167 18 67.5s28.333 36.5 49 48.5s43 18 67 18s46.333 -6 67 -18s37 -28.167 49 -48.5s18 -42.833 18 -67.5c0 -24 -6 -46.333 -18 -67s-28.333 -37 -49 -49s-43 -18 -67 -18s-46.333 6 -67 18z" />
    <glyph glyph-name="Yacute" unicode="&#xdd;" 
d="M1176 1420l-473 -913v-507h-200v499l-477 921h220l346 -710h18l346 710h220zM489 1580l220 250h282l-260 -250h-242z" />
    <glyph glyph-name="Thorn" unicode="&#xde;" 
d="M871 1144c81.333 -37.333 143.166 -92 185.499 -164s63.5 -158.667 63.5 -260c0 -105.333 -21.167 -195.5 -63.5 -270.5s-104.166 -132 -185.499 -171s-179 -58.5 -293 -58.5h-218v-220h-200v1420h200v-220h218c114 0 211.667 -18.667 293 -56zM823 486
c58 50.667 87 122 87 214c0 98.667 -29 175 -87 229s-139.667 81 -245 81h-218v-600h218c105.333 0 187 25.333 245 76z" />
    <glyph glyph-name="germandbls" unicode="&#xdf;" 
d="M1075.5 503c24.333 -27.333 45.1699 -59.333 62.5029 -96s26 -77 26 -121c0 -97.333 -30.167 -172.666 -90.5 -225.999s-145.5 -80 -255.5 -80c-99.333 0 -183.333 10 -252 30l24 192c103.333 -21.333 179.333 -32 228 -32c40 0 71 9.83301 93 29.5s33 47.167 33 82.5
c0 44 -10.667 81.833 -32 113.5s-51.666 62.834 -90.999 93.501l-16 14c-34 29.333 -61 54.833 -81 76.5s-37 48.334 -51 80.001s-21 68.5 -21 110.5c0 36.667 5.5 70 16.5 100s26.833 63.667 47.5 101l11 20c19.333 29.333 34 53 44 71s18.833 39.667 26.5 65
s11.5 53 11.5 83c0 37.333 -12.333 66.5 -37 87.5s-59.334 31.833 -104.001 32.5c-74.667 0 -132.334 -21.833 -173.001 -65.5s-61 -105.167 -61 -184.5v-1080h-212v644h-154v176h154v250c0 94.667 17.667 175.667 53 243s86.833 118.666 154.5 153.999s149.167 53 244.5 53
c112.667 0 200 -27 262 -81s93 -130.333 93 -229c0 -38 -3.66699 -70.833 -11 -98.5s-16.333 -51.167 -27 -70.5s-25 -41.333 -43 -66l-11 -16l-9 -13l-12 -22c-14.667 -26.667 -25.667 -50.167 -33 -70.5s-11 -44.833 -11 -73.5s8.66699 -55.834 26 -81.501
s44.666 -58.834 81.999 -99.501c39.333 -36.667 71.166 -68.667 95.499 -96z" />
    <glyph glyph-name="agrave" unicode="&#xe0;" 
d="M1158 170v-170.001l-340 -10l-10 234h-21c-7.33301 -80 -41.166 -140.667 -101.499 -182s-140.833 -62 -241.5 -62c-110.667 0 -196.334 26.5 -257.001 79.5s-91 128.5 -91 226.5c0 112 40.833 198 122.5 258s197.5 90 347.5 90c81.333 0 151.333 -8.33301 210 -25v57
c0 69.333 -24.5 120.833 -73.5 154.5s-123.167 51.834 -222.5 54.501l-254 7l20 188l214 -3c345.333 -4.66699 518 -149 518 -433v-442zM639.5 182.999c45 22 79 50.666 102 85.999s34.5 72.333 34.5 111v64c-33.333 8.66699 -66.5 14.167 -99.5 16.5s-74.5 3.5 -124.5 3.5
c-84 0 -147.667 -13.333 -191 -40s-65 -66 -65 -118c0 -51.333 15.333 -90.166 46 -116.499s76 -39.5 136 -39.5c62.667 0 116.5 11 161.5 33zM314 1628h212l170 -380h-192z" />
    <glyph glyph-name="aacute" unicode="&#xe1;" 
d="M1158 170v-170.001l-340 -10l-10 234h-21c-7.33301 -80 -41.166 -140.667 -101.499 -182s-140.833 -62 -241.5 -62c-110.667 0 -196.334 26.5 -257.001 79.5s-91 128.5 -91 226.5c0 112 40.833 198 122.5 258s197.5 90 347.5 90c81.333 0 151.333 -8.33301 210 -25v57
c0 69.333 -24.5 120.833 -73.5 154.5s-123.167 51.834 -222.5 54.501l-254 7l20 188l214 -3c345.333 -4.66699 518 -149 518 -433v-442zM639.5 182.999c45 22 79 50.666 102 85.999s34.5 72.333 34.5 111v64c-33.333 8.66699 -66.5 14.167 -99.5 16.5s-74.5 3.5 -124.5 3.5
c-84 0 -147.667 -13.333 -191 -40s-65 -66 -65 -118c0 -51.333 15.333 -90.166 46 -116.499s76 -39.5 136 -39.5c62.667 0 116.5 11 161.5 33zM479 1248l170 380h212l-190 -380h-192z" />
    <glyph glyph-name="acircumflex" unicode="&#xe2;" 
d="M1158 170v-170.001l-340 -10l-10 234h-21c-7.33301 -80 -41.166 -140.667 -101.499 -182s-140.833 -62 -241.5 -62c-110.667 0 -196.334 26.5 -257.001 79.5s-91 128.5 -91 226.5c0 112 40.833 198 122.5 258s197.5 90 347.5 90c81.333 0 151.333 -8.33301 210 -25v57
c0 69.333 -24.5 120.833 -73.5 154.5s-123.167 51.834 -222.5 54.501l-254 7l20 188l214 -3c345.333 -4.66699 518 -149 518 -433v-442zM639.5 182.999c45 22 79 50.666 102 85.999s34.5 72.333 34.5 111v64c-33.333 8.66699 -66.5 14.167 -99.5 16.5s-74.5 3.5 -124.5 3.5
c-84 0 -147.667 -13.333 -191 -40s-65 -66 -65 -118c0 -51.333 15.333 -90.166 46 -116.499s76 -39.5 136 -39.5c62.667 0 116.5 11 161.5 33zM906 1248h-212l-114 235l-114 -235h-212l240 380h172z" />
    <glyph glyph-name="atilde" unicode="&#xe3;" 
d="M1158 170v-170.001l-340 -10l-10 234h-21c-7.33301 -80 -41.166 -140.667 -101.499 -182s-140.833 -62 -241.5 -62c-110.667 0 -196.334 26.5 -257.001 79.5s-91 128.5 -91 226.5c0 112 40.833 198 122.5 258s197.5 90 347.5 90c81.333 0 151.333 -8.33301 210 -25v57
c0 69.333 -24.5 120.833 -73.5 154.5s-123.167 51.834 -222.5 54.501l-254 7l20 188l214 -3c345.333 -4.66699 518 -149 518 -433v-442zM639.5 182.999c45 22 79 50.666 102 85.999s34.5 72.333 34.5 111v64c-33.333 8.66699 -66.5 14.167 -99.5 16.5s-74.5 3.5 -124.5 3.5
c-84 0 -147.667 -13.333 -191 -40s-65 -66 -65 -118c0 -51.333 15.333 -90.166 46 -116.499s76 -39.5 136 -39.5c62.667 0 116.5 11 161.5 33zM425 1556c46 0 102.001 -16.334 168.001 -49.001c44 -21.333 74 -35.166 90 -41.499s31.333 -9.5 46 -9.5c36 0 54 31.333 54 94
v60h172v-80c0 -160 -66 -240 -198 -240c-22 0 -47.667 4.5 -77 13.5s-61.333 22.833 -96 41.5c-54.667 30 -98.334 45 -131.001 45c-49.333 0 -74 -34.667 -74 -104v-60h-174v80c0 166.667 73.333 250 220 250z" />
    <glyph glyph-name="adieresis" unicode="&#xe4;" 
d="M1158 170v-170.001l-340 -10l-10 234h-21c-7.33301 -80 -41.166 -140.667 -101.499 -182s-140.833 -62 -241.5 -62c-110.667 0 -196.334 26.5 -257.001 79.5s-91 128.5 -91 226.5c0 112 40.833 198 122.5 258s197.5 90 347.5 90c81.333 0 151.333 -8.33301 210 -25v57
c0 69.333 -24.5 120.833 -73.5 154.5s-123.167 51.834 -222.5 54.501l-254 7l20 188l214 -3c345.333 -4.66699 518 -149 518 -433v-442zM639.5 182.999c45 22 79 50.666 102 85.999s34.5 72.333 34.5 111v64c-33.333 8.66699 -66.5 14.167 -99.5 16.5s-74.5 3.5 -124.5 3.5
c-84 0 -147.667 -13.333 -191 -40s-65 -66 -65 -118c0 -51.333 15.333 -90.166 46 -116.499s76 -39.5 136 -39.5c62.667 0 116.5 11 161.5 33zM305 1256c-20.667 12 -37 28.333 -49 49s-18 43 -18 67c0 24.667 6 47.167 18 67.5s28.333 36.5 49 48.5s43 18 67 18
s46.333 -6 67 -18s37 -28.167 49 -48.5s18 -42.833 18 -67.5c0 -24 -6 -46.333 -18 -67s-28.333 -37 -49 -49s-43 -18 -67 -18s-46.333 6 -67 18zM725 1256c-20.667 12 -37 28.333 -49 49s-18 43 -18 67c0 24.667 6 47.167 18 67.5s28.333 36.5 49 48.5s43 18 67 18
s46.333 -6 67 -18s37 -28.167 49 -48.5s18 -42.833 18 -67.5c0 -24 -6 -46.333 -18 -67s-28.333 -37 -49 -49s-43 -18 -67 -18s-46.333 6 -67 18z" />
    <glyph glyph-name="aring" unicode="&#xe5;" 
d="M1158 170v-170.001l-340 -10l-10 234h-21c-7.33301 -80 -41.166 -140.667 -101.499 -182s-140.833 -62 -241.5 -62c-110.667 0 -196.334 26.5 -257.001 79.5s-91 128.5 -91 226.5c0 112 40.833 198 122.5 258s197.5 90 347.5 90c81.333 0 151.333 -8.33301 210 -25v57
c0 69.333 -24.5 120.833 -73.5 154.5s-123.167 51.834 -222.5 54.501l-254 7l20 188l214 -3c345.333 -4.66699 518 -149 518 -433v-442zM639.5 182.999c45 22 79 50.666 102 85.999s34.5 72.333 34.5 111v64c-33.333 8.66699 -66.5 14.167 -99.5 16.5s-74.5 3.5 -124.5 3.5
c-84 0 -147.667 -13.333 -191 -40s-65 -66 -65 -118c0 -51.333 15.333 -90.166 46 -116.499s76 -39.5 136 -39.5c62.667 0 116.5 11 161.5 33zM404.5 1254.5c-41.667 37.667 -62.5 90.834 -62.5 159.501s20.833 121.834 62.5 159.501s100.167 56.5 175.5 56.5
s133.833 -18.833 175.5 -56.5s62.5 -90.834 62.5 -159.501s-20.833 -121.834 -62.5 -159.501s-100.167 -56.5 -175.5 -56.5s-133.833 18.833 -175.5 56.5zM651 1340c16.667 17.333 25 42 25 74s-8.33301 56.833 -25 74.5s-40.334 26.5 -71.001 26.5
s-54.334 -8.83301 -71.001 -26.5s-25 -42.5 -25 -74.5s8.33301 -56.667 25 -74s40.334 -26 71.001 -26s54.334 8.66699 71.001 26z" />
    <glyph glyph-name="ae" unicode="&#xe6;" 
d="M1169 436l-459 0.000976562c13.333 -90 43.833 -159.167 91.5 -207.5s109.5 -72.5 185.5 -72.5c38 0 78 4.33301 120 13l26 -171c-58 -12 -114.667 -18 -170 -18c-82 0 -152.667 20 -212 60s-105.333 98 -138 174h-25c-14.667 -76.667 -45.167 -134.834 -91.5 -174.501
s-112.166 -59.5 -197.499 -59.5c-88.667 0 -157.167 26.667 -205.5 80s-72.5 128.666 -72.5 225.999c0 110.667 32.333 196.334 97 257.001s155.667 91 273 91c47.333 0 90.666 -7 129.999 -21v53c0 66 -26 118.333 -78 157s-124.667 59.334 -218 62.001l-94 3l20 182l94 -3
c86 -2.66699 160.167 -19.834 222.5 -51.501s110.833 -76.5 145.5 -134.5c26 64.667 60.833 114 104.5 148s94.5 51 152.5 51c64.667 0 119.667 -19.833 165 -59.5s80 -97.5 104 -173.5s36 -167.667 36 -275c0 -50.667 -2 -96 -6 -136zM993 588.001
c0 107.333 -11.499 185.168 -34.499 233.501s-60.167 72.5 -111.5 72.5c-47.333 0 -82.333 -24.333 -105 -73s-35.334 -126.334 -38.001 -233.001h289zM477.001 210.503c29.333 40.333 44.001 96.8311 44.001 169.498v74c-36 13.333 -80.667 20 -134 20
c-56 0 -99.333 -14.667 -130 -44s-46 -70.666 -46 -123.999c0 -49.333 12.333 -87.666 37 -114.999s59.667 -41 105 -41c53.333 0 94.666 20.167 123.999 60.5z" />
    <glyph glyph-name="ccedilla" unicode="&#xe7;" 
d="M716 -20l-21 -79.999c114.667 -24 172 -79.667 172 -167c0 -142 -126 -213 -378 -213v150c125.333 0 188 24 188 72c0 22.667 -13.333 39.667 -40 51s-67.334 17 -122.001 17l62 176c-142 18.667 -251 74.667 -327 168s-114 219.333 -114 378
c0 115.333 20.833 214 62.5 296s102.834 144.5 183.501 187.5s178 64.5 292 64.5c103.333 0 191.833 -19.167 265.5 -57.5s126.167 -92.5 157.5 -162.5l-163 -123c-30 48.667 -68.333 86.334 -115 113.001s-97.667 40 -153 40c-98 0 -174.167 -30.333 -228.5 -91
s-81.5 -146.334 -81.5 -257.001c0 -120.667 30.167 -212.834 90.5 -276.501s146.833 -95.5 259.5 -95.5c100 0 204 8.66699 312 26l24 -186c-90 -18.667 -198.667 -28.667 -326 -30z" />
    <glyph glyph-name="egrave" unicode="&#xe8;" 
d="M1058 436h-716.001c18.667 -88 60.667 -155 126 -201s151.333 -69 258 -69c82 0 168.667 9.33301 260 28l26 -186c-98 -18.667 -201.333 -28 -310 -28c-120.667 0 -223.167 21.333 -307.5 64s-148.5 105.167 -192.5 187.5s-66 182.5 -66 300.5
c0 114.667 18.667 213 56 295s91.833 144.667 163.5 188s157.834 65 258.501 65c144 0 255 -43.667 333 -131s117 -213 117 -377c0 -48.667 -2 -94 -6 -136zM871.999 598c0 94.667 -22.499 167.667 -67.499 219s-107.833 77 -188.5 77c-82 0 -147.333 -25.667 -196 -77
s-77.334 -124.333 -86.001 -219h538zM354 1628h212l170 -380h-192z" />
    <glyph glyph-name="eacute" unicode="&#xe9;" 
d="M1058 436h-716.001c18.667 -88 60.667 -155 126 -201s151.333 -69 258 -69c82 0 168.667 9.33301 260 28l26 -186c-98 -18.667 -201.333 -28 -310 -28c-120.667 0 -223.167 21.333 -307.5 64s-148.5 105.167 -192.5 187.5s-66 182.5 -66 300.5
c0 114.667 18.667 213 56 295s91.833 144.667 163.5 188s157.834 65 258.501 65c144 0 255 -43.667 333 -131s117 -213 117 -377c0 -48.667 -2 -94 -6 -136zM871.999 598c0 94.667 -22.499 167.667 -67.499 219s-107.833 77 -188.5 77c-82 0 -147.333 -25.667 -196 -77
s-77.334 -124.333 -86.001 -219h538zM519 1248l170 380h212l-190 -380h-192z" />
    <glyph glyph-name="ecircumflex" unicode="&#xea;" 
d="M1058 436h-716.001c18.667 -88 60.667 -155 126 -201s151.333 -69 258 -69c82 0 168.667 9.33301 260 28l26 -186c-98 -18.667 -201.333 -28 -310 -28c-120.667 0 -223.167 21.333 -307.5 64s-148.5 105.167 -192.5 187.5s-66 182.5 -66 300.5
c0 114.667 18.667 213 56 295s91.833 144.667 163.5 188s157.834 65 258.501 65c144 0 255 -43.667 333 -131s117 -213 117 -377c0 -48.667 -2 -94 -6 -136zM871.999 598c0 94.667 -22.499 167.667 -67.499 219s-107.833 77 -188.5 77c-82 0 -147.333 -25.667 -196 -77
s-77.334 -124.333 -86.001 -219h538zM946 1248h-212l-114 235l-114 -235h-212l240 380h172z" />
    <glyph glyph-name="edieresis" unicode="&#xeb;" 
d="M1058 436h-716.001c18.667 -88 60.667 -155 126 -201s151.333 -69 258 -69c82 0 168.667 9.33301 260 28l26 -186c-98 -18.667 -201.333 -28 -310 -28c-120.667 0 -223.167 21.333 -307.5 64s-148.5 105.167 -192.5 187.5s-66 182.5 -66 300.5
c0 114.667 18.667 213 56 295s91.833 144.667 163.5 188s157.834 65 258.501 65c144 0 255 -43.667 333 -131s117 -213 117 -377c0 -48.667 -2 -94 -6 -136zM871.999 598c0 94.667 -22.499 167.667 -67.499 219s-107.833 77 -188.5 77c-82 0 -147.333 -25.667 -196 -77
s-77.334 -124.333 -86.001 -219h538zM345 1256c-20.667 12 -37 28.333 -49 49s-18 43 -18 67c0 24.667 6 47.167 18 67.5s28.333 36.5 49 48.5s43 18 67 18s46.333 -6 67 -18s37 -28.167 49 -48.5s18 -42.833 18 -67.5c0 -24 -6 -46.333 -18 -67s-28.333 -37 -49 -49
s-43 -18 -67 -18s-46.333 6 -67 18zM765 1256c-20.667 12 -37 28.333 -49 49s-18 43 -18 67c0 24.667 6 47.167 18 67.5s28.333 36.5 49 48.5s43 18 67 18s46.333 -6 67 -18s37 -28.167 49 -48.5s18 -42.833 18 -67.5c0 -24 -6 -46.333 -18 -67s-28.333 -37 -49 -49
s-43 -18 -67 -18s-46.333 6 -67 18z" />
    <glyph glyph-name="igrave" unicode="&#xec;" 
d="M776 174h326v-174h-942v174h404v710h-344v176h556v-886zM384 1628h212l170 -380h-192z" />
    <glyph glyph-name="iacute" unicode="&#xed;" 
d="M776 174h326v-174h-942v174h404v710h-344v176h556v-886zM549 1248l170 380h212l-190 -380h-192z" />
    <glyph glyph-name="icircumflex" unicode="&#xee;" 
d="M776 174h326v-174h-942v174h404v710h-344v176h556v-886zM976 1248h-212l-114 235l-114 -235h-212l240 380h172z" />
    <glyph glyph-name="idieresis" unicode="&#xef;" 
d="M776 174h326v-174h-942v174h404v710h-344v176h556v-886zM375 1256c-20.667 12 -37 28.333 -49 49s-18 43 -18 67c0 24.667 6 47.167 18 67.5s28.333 36.5 49 48.5s43 18 67 18s46.333 -6 67 -18s37 -28.167 49 -48.5s18 -42.833 18 -67.5c0 -24 -6 -46.333 -18 -67
s-28.333 -37 -49 -49s-43 -18 -67 -18s-46.333 6 -67 18zM795 1256c-20.667 12 -37 28.333 -49 49s-18 43 -18 67c0 24.667 6 47.167 18 67.5s28.333 36.5 49 48.5s43 18 67 18s46.333 -6 67 -18s37 -28.167 49 -48.5s18 -42.833 18 -67.5c0 -24 -6 -46.333 -18 -67
s-28.333 -37 -49 -49s-43 -18 -67 -18s-46.333 6 -67 18z" />
    <glyph glyph-name="eth" unicode="&#xf0;" 
d="M906 1199c60.667 -76.667 105.501 -166.502 134.501 -269.502s43.5 -221.5 43.5 -355.5v-48c0 -115.333 -19.5 -213.833 -58.5 -295.5s-95.833 -143.834 -170.5 -186.501s-165 -64 -271 -64c-98.667 0 -182.834 19.667 -252.501 59s-122.667 96.333 -159 171
s-54.5 164.667 -54.5 270c0 101.333 15.167 187.833 45.5 259.5s74.5 126.334 132.5 164.001s128 56.5 210 56.5c86.667 0 159.667 -20.333 219 -61s99 -97.667 119 -171h17c-4.66699 90.667 -18.5 171.834 -41.5 243.501s-56.5 135.167 -100.5 190.5l-441 -85l-40 175
l313 61c-60 38 -131 72.333 -213 103l50 100c142.667 -43.333 261.667 -98.666 357 -165.999l319 62l40 -175zM862.001 439.998c0 107.333 -23.166 190.167 -69.499 248.5s-111.833 87.5 -196.5 87.5s-149.834 -25.5 -195.501 -76.5s-68.5 -124.167 -68.5 -219.5
c0 -100.667 21.667 -178.5 65 -233.5s105 -82.5 185 -82.5c186.667 0 280 92 280 276z" />
    <glyph glyph-name="ntilde" unicode="&#xf1;" 
d="M940 978c61.333 -68 92 -164.001 92 -288.001v-690h-212v690c0 66.667 -16.667 118.334 -50 155.001s-80 55 -140 55c-166.667 0 -250 -101.333 -250 -304v-596h-212v1060h192l17 -192h23c6 71.333 32 124.5 78 159.5s113.333 52.5 202 52.5c112 0 198.667 -34 260 -102z
M435 1556c46 0 102.001 -16.334 168.001 -49.001c44 -21.333 74 -35.166 90 -41.499s31.333 -9.5 46 -9.5c36 0 54 31.333 54 94v60h172v-80c0 -160 -66 -240 -198 -240c-22 0 -47.667 4.5 -77 13.5s-61.333 22.833 -96 41.5c-54.667 30 -98.334 45 -131.001 45
c-49.333 0 -74 -34.667 -74 -104v-60h-174v80c0 166.667 73.333 250 220 250z" />
    <glyph glyph-name="ograve" unicode="&#xf2;" 
d="M349.5 44.5c-69.667 43 -122.667 105.667 -159 188s-54.5 181.5 -54.5 297.5s18.167 215.167 54.5 297.5s89.333 145 159 188s153.167 64.5 250.5 64.5s180.833 -21.5 250.5 -64.5s122.667 -105.667 159 -188s54.5 -181.5 54.5 -297.5s-18.167 -215.167 -54.5 -297.5
s-89.333 -145 -159 -188s-153.167 -64.5 -250.5 -64.5s-180.833 21.5 -250.5 64.5zM780.5 263.5c42.333 62.333 63.5 151.166 63.5 266.499s-21.167 204.166 -63.5 266.499s-102.5 93.5 -180.5 93.5s-138.167 -31.167 -180.5 -93.5s-63.5 -151.166 -63.5 -266.499
s21.167 -204.166 63.5 -266.499s102.5 -93.5 180.5 -93.5s138.167 31.167 180.5 93.5zM334 1628h212l170 -380h-192z" />
    <glyph glyph-name="oacute" unicode="&#xf3;" 
d="M349.5 44.5c-69.667 43 -122.667 105.667 -159 188s-54.5 181.5 -54.5 297.5s18.167 215.167 54.5 297.5s89.333 145 159 188s153.167 64.5 250.5 64.5s180.833 -21.5 250.5 -64.5s122.667 -105.667 159 -188s54.5 -181.5 54.5 -297.5s-18.167 -215.167 -54.5 -297.5
s-89.333 -145 -159 -188s-153.167 -64.5 -250.5 -64.5s-180.833 21.5 -250.5 64.5zM780.5 263.5c42.333 62.333 63.5 151.166 63.5 266.499s-21.167 204.166 -63.5 266.499s-102.5 93.5 -180.5 93.5s-138.167 -31.167 -180.5 -93.5s-63.5 -151.166 -63.5 -266.499
s21.167 -204.166 63.5 -266.499s102.5 -93.5 180.5 -93.5s138.167 31.167 180.5 93.5zM499 1248l170 380h212l-190 -380h-192z" />
    <glyph glyph-name="ocircumflex" unicode="&#xf4;" 
d="M349.5 44.5c-69.667 43 -122.667 105.667 -159 188s-54.5 181.5 -54.5 297.5s18.167 215.167 54.5 297.5s89.333 145 159 188s153.167 64.5 250.5 64.5s180.833 -21.5 250.5 -64.5s122.667 -105.667 159 -188s54.5 -181.5 54.5 -297.5s-18.167 -215.167 -54.5 -297.5
s-89.333 -145 -159 -188s-153.167 -64.5 -250.5 -64.5s-180.833 21.5 -250.5 64.5zM780.5 263.5c42.333 62.333 63.5 151.166 63.5 266.499s-21.167 204.166 -63.5 266.499s-102.5 93.5 -180.5 93.5s-138.167 -31.167 -180.5 -93.5s-63.5 -151.166 -63.5 -266.499
s21.167 -204.166 63.5 -266.499s102.5 -93.5 180.5 -93.5s138.167 31.167 180.5 93.5zM926 1248h-212l-114 235l-114 -235h-212l240 380h172z" />
    <glyph glyph-name="otilde" unicode="&#xf5;" 
d="M349.5 44.5c-69.667 43 -122.667 105.667 -159 188s-54.5 181.5 -54.5 297.5s18.167 215.167 54.5 297.5s89.333 145 159 188s153.167 64.5 250.5 64.5s180.833 -21.5 250.5 -64.5s122.667 -105.667 159 -188s54.5 -181.5 54.5 -297.5s-18.167 -215.167 -54.5 -297.5
s-89.333 -145 -159 -188s-153.167 -64.5 -250.5 -64.5s-180.833 21.5 -250.5 64.5zM780.5 263.5c42.333 62.333 63.5 151.166 63.5 266.499s-21.167 204.166 -63.5 266.499s-102.5 93.5 -180.5 93.5s-138.167 -31.167 -180.5 -93.5s-63.5 -151.166 -63.5 -266.499
s21.167 -204.166 63.5 -266.499s102.5 -93.5 180.5 -93.5s138.167 31.167 180.5 93.5zM445 1556c46 0 102.001 -16.334 168.001 -49.001c44 -21.333 74 -35.166 90 -41.499s31.333 -9.5 46 -9.5c36 0 54 31.333 54 94v60h172v-80c0 -160 -66 -240 -198 -240
c-22 0 -47.667 4.5 -77 13.5s-61.333 22.833 -96 41.5c-54.667 30 -98.334 45 -131.001 45c-49.333 0 -74 -34.667 -74 -104v-60h-174v80c0 166.667 73.333 250 220 250z" />
    <glyph glyph-name="odieresis" unicode="&#xf6;" 
d="M349.5 44.5c-69.667 43 -122.667 105.667 -159 188s-54.5 181.5 -54.5 297.5s18.167 215.167 54.5 297.5s89.333 145 159 188s153.167 64.5 250.5 64.5s180.833 -21.5 250.5 -64.5s122.667 -105.667 159 -188s54.5 -181.5 54.5 -297.5s-18.167 -215.167 -54.5 -297.5
s-89.333 -145 -159 -188s-153.167 -64.5 -250.5 -64.5s-180.833 21.5 -250.5 64.5zM780.5 263.5c42.333 62.333 63.5 151.166 63.5 266.499s-21.167 204.166 -63.5 266.499s-102.5 93.5 -180.5 93.5s-138.167 -31.167 -180.5 -93.5s-63.5 -151.166 -63.5 -266.499
s21.167 -204.166 63.5 -266.499s102.5 -93.5 180.5 -93.5s138.167 31.167 180.5 93.5zM325 1256c-20.667 12 -37 28.333 -49 49s-18 43 -18 67c0 24.667 6 47.167 18 67.5s28.333 36.5 49 48.5s43 18 67 18s46.333 -6 67 -18s37 -28.167 49 -48.5s18 -42.833 18 -67.5
c0 -24 -6 -46.333 -18 -67s-28.333 -37 -49 -49s-43 -18 -67 -18s-46.333 6 -67 18zM745 1256c-20.667 12 -37 28.333 -49 49s-18 43 -18 67c0 24.667 6 47.167 18 67.5s28.333 36.5 49 48.5s43 18 67 18s46.333 -6 67 -18s37 -28.167 49 -48.5s18 -42.833 18 -67.5
c0 -24 -6 -46.333 -18 -67s-28.333 -37 -49 -49s-43 -18 -67 -18s-46.333 6 -67 18z" />
    <glyph glyph-name="divide" unicode="&#xf7;" 
d="M529.5 963c-21.667 12.667 -38.834 29.834 -51.501 51.501s-19 45.167 -19 70.5s6.33301 48.666 19 69.999s29.834 38.333 51.501 51s45.167 19 70.5 19s48.833 -6.33301 70.5 -19s38.834 -29.667 51.501 -51s19 -44.666 19 -69.999s-6.33301 -48.833 -19 -70.5
s-29.834 -38.834 -51.501 -51.501s-45.167 -19 -70.5 -19s-48.833 6.33301 -70.5 19zM1100 802v-186h-1000v186h1000zM529.5 170c-21.667 12.667 -38.834 29.667 -51.501 51s-19 44.666 -19 69.999s6.33301 48.833 19 70.5s29.834 38.834 51.501 51.501s45.167 19 70.5 19
s48.833 -6.33301 70.5 -19s38.834 -29.834 51.501 -51.501s19 -45.167 19 -70.5s-6.33301 -48.666 -19 -69.999s-29.834 -38.333 -51.501 -51s-45.167 -19 -70.5 -19s-48.833 6.33301 -70.5 19z" />
    <glyph glyph-name="oslash" unicode="&#xf8;" 
d="M1026 784c25.333 -73.333 38 -158 38 -254c0 -116 -18.167 -215.167 -54.5 -297.5s-89.333 -145 -159 -188s-153.167 -64.5 -250.5 -64.5c-78 0 -148.333 14.333 -211 43l-88 -157l-105 75l87 156c-48 46.667 -84.5 106.5 -109.5 179.5s-37.5 157.5 -37.5 253.5
c0 116 18.167 215.167 54.5 297.5s89.333 145 159 188s153.167 64.5 250.5 64.5c77.333 0 146.333 -13.667 207 -41l89 159l115 -65l-95 -169c48 -46.667 84.667 -106.667 110 -180zM397 303l312 560c-30.667 18 -67 27 -109 27c-78 0 -138.167 -31.167 -180.5 -93.5
s-63.5 -151.166 -63.5 -266.499c0 -92.667 13.667 -168.334 41 -227.001zM780.5 263.5c42.333 62.333 63.5 151.167 63.5 266.5c0 92.667 -14 169 -42 229l-315 -560c33.333 -19.333 71 -29 113 -29c78 0 138.167 31.167 180.5 93.5z" />
    <glyph glyph-name="ugrave" unicode="&#xf9;" 
d="M1158 170l-0.000976562 -170.001l-340 -10l-15 214h-19c-16 -72 -46.5 -127.333 -91.5 -166s-100.5 -58 -166.5 -58c-118 0 -209.167 33 -273.5 99s-96.5 159.667 -96.5 281v720h208v-720c0 -64 17.667 -113.333 53 -148s85 -52 149 -52
c78.667 0 137.334 25.833 176.001 77.5s58 135.834 58 252.501v590h212v-888zM323.999 1628h212l170 -380h-192z" />
    <glyph glyph-name="uacute" unicode="&#xfa;" 
d="M1158 170l-0.000976562 -170.001l-340 -10l-15 214h-19c-16 -72 -46.5 -127.333 -91.5 -166s-100.5 -58 -166.5 -58c-118 0 -209.167 33 -273.5 99s-96.5 159.667 -96.5 281v720h208v-720c0 -64 17.667 -113.333 53 -148s85 -52 149 -52
c78.667 0 137.334 25.833 176.001 77.5s58 135.834 58 252.501v590h212v-888zM488.999 1248l170 380h212l-190 -380h-192z" />
    <glyph glyph-name="ucircumflex" unicode="&#xfb;" 
d="M1158 170l-0.000976562 -170.001l-340 -10l-15 214h-19c-16 -72 -46.5 -127.333 -91.5 -166s-100.5 -58 -166.5 -58c-118 0 -209.167 33 -273.5 99s-96.5 159.667 -96.5 281v720h208v-720c0 -64 17.667 -113.333 53 -148s85 -52 149 -52
c78.667 0 137.334 25.833 176.001 77.5s58 135.834 58 252.501v590h212v-888zM915.999 1248h-212l-114 235l-114 -235h-212l240 380h172z" />
    <glyph glyph-name="udieresis" unicode="&#xfc;" 
d="M1158 170l-0.000976562 -170.001l-340 -10l-15 214h-19c-16 -72 -46.5 -127.333 -91.5 -166s-100.5 -58 -166.5 -58c-118 0 -209.167 33 -273.5 99s-96.5 159.667 -96.5 281v720h208v-720c0 -64 17.667 -113.333 53 -148s85 -52 149 -52
c78.667 0 137.334 25.833 176.001 77.5s58 135.834 58 252.501v590h212v-888zM314.999 1256c-20.667 12 -37 28.333 -49 49s-18 43 -18 67c0 24.667 6 47.167 18 67.5s28.333 36.5 49 48.5s43 18 67 18s46.333 -6 67 -18s37 -28.167 49 -48.5s18 -42.833 18 -67.5
c0 -24 -6 -46.333 -18 -67s-28.333 -37 -49 -49s-43 -18 -67 -18s-46.333 6 -67 18zM734.999 1256c-20.667 12 -37 28.333 -49 49s-18 43 -18 67c0 24.667 6 47.167 18 67.5s28.333 36.5 49 48.5s43 18 67 18s46.333 -6 67 -18s37 -28.167 49 -48.5s18 -42.833 18 -67.5
c0 -24 -6 -46.333 -18 -67s-28.333 -37 -49 -49s-43 -18 -67 -18s-46.333 6 -67 18z" />
    <glyph glyph-name="yacute" unicode="&#xfd;" 
d="M1110 1060l-306.001 -966.001c-40 -127.333 -84.667 -229.5 -134 -306.5s-107.666 -135 -174.999 -174s-149 -63.5 -245 -73.5l-180 -20l-10 190l166 20c86 10.667 156.5 36.834 211.5 78.501s101.167 105.5 138.5 191.5h-114l-412 1060h220l336 -900h22v-9l262 909h220z
M508.999 1248l170 380h212l-190 -380h-192z" />
    <glyph glyph-name="thorn" unicode="&#xfe;" 
d="M909.5 1014.5c63.667 -43.667 112.001 -107.499 145.001 -191.499s49.5 -185 49.5 -303c0 -115.333 -16.5 -213.333 -49.5 -294s-81 -141.834 -144 -183.501s-139.167 -62.5 -228.5 -62.5c-81.333 0 -147 15.667 -197 47s-78.333 77 -85 137h-20v-624h-212v1960h212v-632
h20c9.33301 71.333 37.166 124.5 83.499 159.5s111.833 52.5 196.5 52.5c89.333 0 165.833 -21.833 229.5 -65.5zM832.001 251.001c41.333 60.667 62.001 150.333 62.001 269c0 121.333 -21.167 215 -63.5 281s-102.5 99 -180.5 99c-180 0 -270 -101.333 -270 -304v-256
c0 -120 89.333 -180 268 -180c81.333 0 142.666 30.333 183.999 91z" />
    <glyph glyph-name="ydieresis" unicode="&#xff;" 
d="M1110 1060l-306.001 -966.001c-40 -127.333 -84.667 -229.5 -134 -306.5s-107.666 -135 -174.999 -174s-149 -63.5 -245 -73.5l-180 -20l-10 190l166 20c86 10.667 156.5 36.834 211.5 78.501s101.167 105.5 138.5 191.5h-114l-412 1060h220l336 -900h22v-9l262 909h220z
M334.999 1256c-20.667 12 -37 28.333 -49 49s-18 43 -18 67c0 24.667 6 47.167 18 67.5s28.333 36.5 49 48.5s43 18 67 18s46.333 -6 67 -18s37 -28.167 49 -48.5s18 -42.833 18 -67.5c0 -24 -6 -46.333 -18 -67s-28.333 -37 -49 -49s-43 -18 -67 -18s-46.333 6 -67 18z
M754.999 1256c-20.667 12 -37 28.333 -49 49s-18 43 -18 67c0 24.667 6 47.167 18 67.5s28.333 36.5 49 48.5s43 18 67 18s46.333 -6 67 -18s37 -28.167 49 -48.5s18 -42.833 18 -67.5c0 -24 -6 -46.333 -18 -67s-28.333 -37 -49 -49s-43 -18 -67 -18s-46.333 6 -67 18z" />
    <glyph glyph-name="Amacron" unicode="&#x100;" 
d="M942 0l-93 346h-504l-93 -346h-210l410 1420h290l410 -1420h-210zM396 536h402l-192 712h-18zM213 1768h774v-188h-774v188z" />
    <glyph glyph-name="amacron" unicode="&#x101;" 
d="M1158 170v-170.001l-340 -10l-10 234h-21c-7.33301 -80 -41.166 -140.667 -101.499 -182s-140.833 -62 -241.5 -62c-110.667 0 -196.334 26.5 -257.001 79.5s-91 128.5 -91 226.5c0 112 40.833 198 122.5 258s197.5 90 347.5 90c81.333 0 151.333 -8.33301 210 -25v57
c0 69.333 -24.5 120.833 -73.5 154.5s-123.167 51.834 -222.5 54.501l-254 7l20 188l214 -3c345.333 -4.66699 518 -149 518 -433v-442zM639.5 182.999c45 22 79 50.666 102 85.999s34.5 72.333 34.5 111v64c-33.333 8.66699 -66.5 14.167 -99.5 16.5s-74.5 3.5 -124.5 3.5
c-84 0 -147.667 -13.333 -191 -40s-65 -66 -65 -118c0 -51.333 15.333 -90.166 46 -116.499s76 -39.5 136 -39.5c62.667 0 116.5 11 161.5 33zM150 1436h860v-188h-860v188z" />
    <glyph glyph-name="Abreve" unicode="&#x102;" 
d="M942 0l-93 346h-504l-93 -346h-210l410 1420h290l410 -1420h-210zM396 536h402l-192 712h-18zM824.5 1648c-53 -45.333 -127.831 -68 -224.498 -68s-171.5 22.667 -224.5 68s-79.5 109.333 -79.5 192h175c0 -39.333 11.167 -69.833 33.5 -91.5s54.166 -32.5 95.499 -32.5
s73.166 10.833 95.499 32.5s33.5 52.167 33.5 91.5h175c0 -82.667 -26.5 -146.667 -79.5 -192z" />
    <glyph glyph-name="abreve" unicode="&#x103;" 
d="M1158 170v-170.001l-340 -10l-10 234h-21c-7.33301 -80 -41.166 -140.667 -101.499 -182s-140.833 -62 -241.5 -62c-110.667 0 -196.334 26.5 -257.001 79.5s-91 128.5 -91 226.5c0 112 40.833 198 122.5 258s197.5 90 347.5 90c81.333 0 151.333 -8.33301 210 -25v57
c0 69.333 -24.5 120.833 -73.5 154.5s-123.167 51.834 -222.5 54.501l-254 7l20 188l214 -3c345.333 -4.66699 518 -149 518 -433v-442zM639.5 182.999c45 22 79 50.666 102 85.999s34.5 72.333 34.5 111v64c-33.333 8.66699 -66.5 14.167 -99.5 16.5s-74.5 3.5 -124.5 3.5
c-84 0 -147.667 -13.333 -191 -40s-65 -66 -65 -118c0 -51.333 15.333 -90.166 46 -116.499s76 -39.5 136 -39.5c62.667 0 116.5 11 161.5 33zM363 1317c-51.333 52.667 -77.002 127 -77.002 223v53h175v-53c0 -53.333 10.333 -94.333 31 -123s50 -43 88 -43
s67.333 14.333 88 43s31 69.667 31 123v53h175v-53c0 -96 -25.667 -170.333 -77 -223s-123.666 -79 -216.999 -79s-165.666 26.333 -216.999 79z" />
    <glyph glyph-name="Aogonek" unicode="&#x104;" 
d="M958.5 -233c20.333 -15.333 48.835 -22.999 85.502 -22.999c23.333 0 50.666 3.66699 81.999 11l-18 -170c-30.667 -6 -60.667 -9 -90 -9c-76.667 0 -135.834 16.667 -177.501 50s-62.5 80.666 -62.5 141.999c0 59.333 14.333 109.166 43 149.499s69 67.833 121 82.5
l-93 346h-504l-93 -346h-210l410 1420h290l410 -1420c-71.333 0 -126.5 -14.667 -165.5 -44s-58.5 -70.666 -58.5 -123.999c0 -28 10.167 -49.667 30.5 -65zM396.002 536.001h402l-192 712h-18z" />
    <glyph glyph-name="aogonek" unicode="&#x105;" 
d="M978 -51c-33.333 -28.667 -49.999 -67.667 -49.999 -117c0 -28 10.167 -49.667 30.5 -65s48.833 -23 85.5 -23c23.333 0 50.666 3.66699 81.999 11l-18 -170c-30 -6 -60 -9 -90 -9c-76.667 0 -135.834 16.667 -177.501 50s-62.5 80.666 -62.5 141.999
c0 48.667 11.667 89.834 35 123.501s56.333 56.5 99 68.5v33l-94 -3l-10 234h-21c-7.33301 -80 -41.166 -140.667 -101.499 -182s-140.833 -62 -241.5 -62c-110.667 0 -196.334 26.5 -257.001 79.5s-91 128.5 -91 226.5c0 112 40.833 198 122.5 258s197.5 90 347.5 90
c81.333 0 151.333 -8.33301 210 -25v57c0 69.333 -24.5 120.833 -73.5 154.5s-123.167 51.834 -222.5 54.501l-254 7l20 188l214 -3c345.333 -4.66699 518 -149 518 -433v-442l180 -22v-170l-38 -1c-61.333 -4.66699 -108.666 -21.334 -141.999 -50.001zM639.501 183
c45 22 79 50.666 102 85.999s34.5 72.333 34.5 111v64c-33.333 8.66699 -66.5 14.167 -99.5 16.5s-74.5 3.5 -124.5 3.5c-84 0 -147.667 -13.333 -191 -40s-65 -66 -65 -118c0 -51.333 15.333 -90.166 46 -116.499s76 -39.5 136 -39.5c62.667 0 116.5 11 161.5 33z" />
    <glyph glyph-name="Cacute" unicode="&#x106;" 
d="M886.5 1219c-46.333 24.667 -96.5 37 -150.5 37c-86 0 -161 -20.833 -225 -62.5s-113.5 -102.667 -148.5 -183s-52.5 -176.5 -52.5 -288.5c0 -186 40.333 -325.5 121 -418.5s201 -139.5 361 -139.5c96.667 0 192 20 286 60l46 -176c-116 -45.333 -238 -68 -366 -68
c-441.333 0 -662 244 -662 732c0 153.333 25 284.5 75 393.5s122.667 192 218 249s210.333 85.5 345 85.5c98 0 183.333 -15.667 256 -47s125.667 -75.333 159 -132l-148 -147c-30 45.333 -68.167 80.333 -114.5 105zM594 1580l220 250h282l-260 -250h-242z" />
    <glyph glyph-name="cacute" unicode="&#x107;" 
d="M819 850c-46.667 26.667 -97.668 40.001 -153.001 40.001c-98 0 -174.167 -30.333 -228.5 -91s-81.5 -146.334 -81.5 -257.001c0 -120.667 30.167 -212.834 90.5 -276.501s146.833 -95.5 259.5 -95.5c100 0 204 8.66699 312 26l24 -186
c-96.667 -20 -216.667 -30 -360 -30c-116 0 -214.667 21.333 -296 64s-143.333 105.167 -186 187.5s-64 182.5 -64 300.5c0 115.333 20.833 214 62.5 296s102.834 144.5 183.501 187.5s178 64.5 292 64.5c103.333 0 191.833 -19.167 265.5 -57.5s126.167 -92.5 157.5 -162.5
l-163 -123c-30 48.667 -68.333 86.334 -115 113.001zM548.999 1248l170 380h212l-190 -380h-192z" />
    <glyph glyph-name="Ccircumflex" unicode="&#x108;" 
d="M886.5 1219c-46.333 24.667 -96.5 37 -150.5 37c-86 0 -161 -20.833 -225 -62.5s-113.5 -102.667 -148.5 -183s-52.5 -176.5 -52.5 -288.5c0 -186 40.333 -325.5 121 -418.5s201 -139.5 361 -139.5c96.667 0 192 20 286 60l46 -176c-116 -45.333 -238 -68 -366 -68
c-441.333 0 -662 244 -662 732c0 153.333 25 284.5 75 393.5s122.667 192 218 249s210.333 85.5 345 85.5c98 0 183.333 -15.667 256 -47s125.667 -75.333 159 -132l-148 -147c-30 45.333 -68.167 80.333 -114.5 105zM1056 1580h-222l-124 144l-124 -144h-222l260 260h172z
" />
    <glyph glyph-name="ccircumflex" unicode="&#x109;" 
d="M819 850c-46.667 26.667 -97.668 40.001 -153.001 40.001c-98 0 -174.167 -30.333 -228.5 -91s-81.5 -146.334 -81.5 -257.001c0 -120.667 30.167 -212.834 90.5 -276.501s146.833 -95.5 259.5 -95.5c100 0 204 8.66699 312 26l24 -186
c-96.667 -20 -216.667 -30 -360 -30c-116 0 -214.667 21.333 -296 64s-143.333 105.167 -186 187.5s-64 182.5 -64 300.5c0 115.333 20.833 214 62.5 296s102.834 144.5 183.501 187.5s178 64.5 292 64.5c103.333 0 191.833 -19.167 265.5 -57.5s126.167 -92.5 157.5 -162.5
l-163 -123c-30 48.667 -68.333 86.334 -115 113.001zM975.999 1248h-212l-114 235l-114 -235h-212l240 380h172z" />
    <glyph glyph-name="Cdotaccent" unicode="&#x10a;" 
d="M886.5 1219c-46.333 24.667 -96.5 37 -150.5 37c-86 0 -161 -20.833 -225 -62.5s-113.5 -102.667 -148.5 -183s-52.5 -176.5 -52.5 -288.5c0 -186 40.333 -325.5 121 -418.5s201 -139.5 361 -139.5c96.667 0 192 20 286 60l46 -176c-116 -45.333 -238 -68 -366 -68
c-441.333 0 -662 244 -662 732c0 153.333 25 284.5 75 393.5s122.667 192 218 249s210.333 85.5 345 85.5c98 0 183.333 -15.667 256 -47s125.667 -75.333 159 -132l-148 -147c-30 45.333 -68.167 80.333 -114.5 105zM638 1598c-20.667 12 -37 28.333 -49 49s-18 43 -18 67
c0 24.667 6 47.167 18 67.5s28.333 36.5 49 48.5s43 18 67 18s46.333 -6 67 -18s37 -28.167 49 -48.5s18 -42.833 18 -67.5c0 -24 -6 -46.333 -18 -67s-28.333 -37 -49 -49s-43 -18 -67 -18s-46.333 6 -67 18z" />
    <glyph glyph-name="cdotaccent" unicode="&#x10b;" 
d="M819 850c-46.667 26.667 -97.668 40.001 -153.001 40.001c-98 0 -174.167 -30.333 -228.5 -91s-81.5 -146.334 -81.5 -257.001c0 -120.667 30.167 -212.834 90.5 -276.501s146.833 -95.5 259.5 -95.5c100 0 204 8.66699 312 26l24 -186
c-96.667 -20 -216.667 -30 -360 -30c-116 0 -214.667 21.333 -296 64s-143.333 105.167 -186 187.5s-64 182.5 -64 300.5c0 115.333 20.833 214 62.5 296s102.834 144.5 183.501 187.5s178 64.5 292 64.5c103.333 0 191.833 -19.167 265.5 -57.5s126.167 -92.5 157.5 -162.5
l-163 -123c-30 48.667 -68.333 86.334 -115 113.001zM580.999 1256c-20.667 12 -37 28.333 -49 49s-18 43 -18 67c0 24.667 6 47.167 18 67.5s28.333 36.5 49 48.5s43 18 67 18s46.333 -6 67 -18s37 -28.167 49 -48.5s18 -42.833 18 -67.5c0 -24 -6 -46.333 -18 -67
s-28.333 -37 -49 -49s-43 -18 -67 -18s-46.333 6 -67 18z" />
    <glyph glyph-name="Ccaron" unicode="&#x10c;" 
d="M886.5 1219c-46.333 24.667 -96.5 37 -150.5 37c-86 0 -161 -20.833 -225 -62.5s-113.5 -102.667 -148.5 -183s-52.5 -176.5 -52.5 -288.5c0 -186 40.333 -325.5 121 -418.5s201 -139.5 361 -139.5c96.667 0 192 20 286 60l46 -176c-116 -45.333 -238 -68 -366 -68
c-441.333 0 -662 244 -662 732c0 153.333 25 284.5 75 393.5s122.667 192 218 249s210.333 85.5 345 85.5c98 0 183.333 -15.667 256 -47s125.667 -75.333 159 -132l-148 -147c-30 45.333 -68.167 80.333 -114.5 105zM829 1840h222l-260 -260h-172l-260 260h222l124 -144z
" />
    <glyph glyph-name="ccaron" unicode="&#x10d;" 
d="M819 850c-46.667 26.667 -97.668 40.001 -153.001 40.001c-98 0 -174.167 -30.333 -228.5 -91s-81.5 -146.334 -81.5 -257.001c0 -120.667 30.167 -212.834 90.5 -276.501s146.833 -95.5 259.5 -95.5c100 0 204 8.66699 312 26l24 -186
c-96.667 -20 -216.667 -30 -360 -30c-116 0 -214.667 21.333 -296 64s-143.333 105.167 -186 187.5s-64 182.5 -64 300.5c0 115.333 20.833 214 62.5 296s102.834 144.5 183.501 187.5s178 64.5 292 64.5c103.333 0 191.833 -19.167 265.5 -57.5s126.167 -92.5 157.5 -162.5
l-163 -123c-30 48.667 -68.333 86.334 -115 113.001zM763.999 1628h212l-240 -380h-172l-240 380h212l114 -235z" />
    <glyph glyph-name="Dcaron" unicode="&#x10e;" 
d="M992 1233c108 -124.667 162 -312.333 162 -563c0 -224 -54 -391.667 -162 -503s-270.667 -167 -488 -167h-344v1420h344c217.333 0 380 -62.333 488 -187zM833.5 315.001c73.667 83.333 110.5 208.333 110.5 375c0 360 -146.667 540 -440 540h-144v-1040h144
c146 0 255.833 41.667 329.5 125zM674 1840h222l-260 -260h-172l-260 260h222l124 -144z" />
    <glyph glyph-name="dcaron" unicode="&#x10f;" 
d="M1172 1568h212l-90 -380h-172zM820 1500l212.002 -0.000976562v-1500l-190 -10l-18 174h-24c-6.66699 -60 -34 -105.667 -82 -137s-111.333 -47 -190 -47c-144.667 0 -252.834 44.833 -324.501 134.5s-107.5 224.834 -107.5 405.501c0 373.333 144.667 560 434 560
c82 0 145.167 -17.5 189.5 -52.5s71.166 -88.167 80.499 -159.5h20v632zM820.002 339.999v256c0 202.667 -86.667 304 -260 304c-169.333 0 -254 -126.667 -254 -380c0 -240 85.333 -360 256 -360c172 0 258 60 258 180z" />
    <glyph glyph-name="Dcroat" unicode="&#x110;" 
d="M992 1233c108 -124.667 162 -312.333 162 -563c0 -224 -54 -391.667 -162 -503s-270.667 -167 -488 -167h-344v612h-118v190h118v618h344c217.333 0 380 -62.333 488 -187zM833.5 315.001c73.667 83.333 110.5 208.333 110.5 375c0 360 -146.667 540 -440 540h-144v-428
h321v-190h-321v-422h144c146 0 255.833 41.667 329.5 125z" />
    <glyph glyph-name="dcroat" unicode="&#x111;" 
d="M1138 1216l-105.999 -0.000976562v-1216l-190 -10l-18 174h-24c-6.66699 -60 -35 -105.667 -85 -137s-115.667 -47 -197 -47c-89.333 0 -165.5 20.833 -228.5 62.5s-111 102.834 -144 183.501s-49.5 178.667 -49.5 294c0 118 16.5 219 49.5 303s81.333 147.833 145 191.5
s140.167 65.5 229.5 65.5c84.667 0 150.167 -17.5 196.5 -52.5s74.166 -88.167 83.499 -159.5h20v348h-358v176h358v108h212v-108h106v-176zM820.001 339.999l0.000976562 256.001c0 202.667 -90 304 -270 304c-78 0 -138.167 -33 -180.5 -99s-63.5 -159.667 -63.5 -281
c0 -118.667 20.667 -208.334 62 -269.001s102.666 -91 183.999 -91c178.667 0 268 60 268 180z" />
    <glyph glyph-name="Emacron" unicode="&#x112;" 
d="M1100 1230h-740v-424h560v-190h-560v-426h740v-190h-940v1420h940v-190zM243 1768h774v-188h-774v188z" />
    <glyph glyph-name="emacron" unicode="&#x113;" 
d="M1058 436h-716.001c18.667 -88 60.667 -155 126 -201s151.333 -69 258 -69c82 0 168.667 9.33301 260 28l26 -186c-98 -18.667 -201.333 -28 -310 -28c-120.667 0 -223.167 21.333 -307.5 64s-148.5 105.167 -192.5 187.5s-66 182.5 -66 300.5
c0 114.667 18.667 213 56 295s91.833 144.667 163.5 188s157.834 65 258.501 65c144 0 255 -43.667 333 -131s117 -213 117 -377c0 -48.667 -2 -94 -6 -136zM871.999 598c0 94.667 -22.499 167.667 -67.499 219s-107.833 77 -188.5 77c-82 0 -147.333 -25.667 -196 -77
s-77.334 -124.333 -86.001 -219h538zM190 1436h860v-188h-860v188z" />
    <glyph glyph-name="Ebreve" unicode="&#x114;" 
d="M1100 1230h-740v-424h560v-190h-560v-426h740v-190h-940v1420h940v-190zM854.5 1648c-53 -45.333 -127.831 -68 -224.498 -68s-171.5 22.667 -224.5 68s-79.5 109.333 -79.5 192h175c0 -39.333 11.167 -69.833 33.5 -91.5s54.166 -32.5 95.499 -32.5
s73.166 10.833 95.499 32.5s33.5 52.167 33.5 91.5h175c0 -82.667 -26.5 -146.667 -79.5 -192z" />
    <glyph glyph-name="ebreve" unicode="&#x115;" 
d="M1058 436h-716.001c18.667 -88 60.667 -155 126 -201s151.333 -69 258 -69c82 0 168.667 9.33301 260 28l26 -186c-98 -18.667 -201.333 -28 -310 -28c-120.667 0 -223.167 21.333 -307.5 64s-148.5 105.167 -192.5 187.5s-66 182.5 -66 300.5
c0 114.667 18.667 213 56 295s91.833 144.667 163.5 188s157.834 65 258.501 65c144 0 255 -43.667 333 -131s117 -213 117 -377c0 -48.667 -2 -94 -6 -136zM871.999 598c0 94.667 -22.499 167.667 -67.499 219s-107.833 77 -188.5 77c-82 0 -147.333 -25.667 -196 -77
s-77.334 -124.333 -86.001 -219h538zM403 1317c-51.333 52.667 -77.002 127 -77.002 223v53h175v-53c0 -53.333 10.333 -94.333 31 -123s50 -43 88 -43s67.333 14.333 88 43s31 69.667 31 123v53h175v-53c0 -96 -25.667 -170.333 -77 -223s-123.666 -79 -216.999 -79
s-165.666 26.333 -216.999 79z" />
    <glyph glyph-name="Edotaccent" unicode="&#x116;" 
d="M1100 1230h-740v-424h560v-190h-560v-426h740v-190h-940v1420h940v-190zM563 1598c-20.667 12 -37 28.333 -49 49s-18 43 -18 67c0 24.667 6 47.167 18 67.5s28.333 36.5 49 48.5s43 18 67 18s46.333 -6 67 -18s37 -28.167 49 -48.5s18 -42.833 18 -67.5
c0 -24 -6 -46.333 -18 -67s-28.333 -37 -49 -49s-43 -18 -67 -18s-46.333 6 -67 18z" />
    <glyph glyph-name="edotaccent" unicode="&#x117;" 
d="M1058 436h-716.001c18.667 -88 60.667 -155 126 -201s151.333 -69 258 -69c82 0 168.667 9.33301 260 28l26 -186c-98 -18.667 -201.333 -28 -310 -28c-120.667 0 -223.167 21.333 -307.5 64s-148.5 105.167 -192.5 187.5s-66 182.5 -66 300.5
c0 114.667 18.667 213 56 295s91.833 144.667 163.5 188s157.834 65 258.501 65c144 0 255 -43.667 333 -131s117 -213 117 -377c0 -48.667 -2 -94 -6 -136zM871.999 598c0 94.667 -22.499 167.667 -67.499 219s-107.833 77 -188.5 77c-82 0 -147.333 -25.667 -196 -77
s-77.334 -124.333 -86.001 -219h538zM551 1256c-20.667 12 -37 28.333 -49 49s-18 43 -18 67c0 24.667 6 47.167 18 67.5s28.333 36.5 49 48.5s43 18 67 18s46.333 -6 67 -18s37 -28.167 49 -48.5s18 -42.833 18 -67.5c0 -24 -6 -46.333 -18 -67s-28.333 -37 -49 -49
s-43 -18 -67 -18s-46.333 6 -67 18z" />
    <glyph glyph-name="Eogonek" unicode="&#x118;" 
d="M360 1230l0.00195312 -424h560v-190h-560v-426h740v-190c-71.333 -0 -126.5 -14.667 -165.5 -44s-58.5 -70.666 -58.5 -123.999c0 -28 10.167 -49.667 30.5 -65s48.833 -23 85.5 -23c23.333 0 50.666 3.66699 81.999 11l-18 -170c-30.667 -6 -60.667 -9 -90 -9
c-76.667 0 -135.834 16.667 -177.501 50s-62.5 80.666 -62.5 141.999c0 54 13.333 99.5 40 136.5s64.667 62.167 114 75.5v20h-720v1420h940v-190h-740z" />
    <glyph glyph-name="eogonek" unicode="&#x119;" 
d="M1058 436h-716c18.667 -88 60.667 -155 126 -201s151.333 -69 258 -69c82 0 168.667 9.33301 260 28l26 -186c-66.667 -16 -120.667 -36.667 -162 -62s-62 -63.333 -62 -114c0 -22.667 9 -43 27 -61s47.667 -27 89 -27c24.667 0 52 3.66699 82 11l-18 -170
c-34 -6 -64 -9 -90 -9c-76.667 0 -135.834 16.667 -177.501 50s-62.5 80.666 -62.5 141.999c0 48.667 11.667 89.834 35 123.501s56.333 56.5 99 68.5v21c-16.667 -0.666992 -40 -1 -70 -1c-120.667 0 -223.167 21.333 -307.5 64s-148.5 105.167 -192.5 187.5
s-66 182.5 -66 300.5c0 114.667 18.667 213 56 295s91.833 144.667 163.5 188s157.834 65 258.501 65c144 0 255 -43.667 333 -131s117 -213 117 -377c0 -48.667 -2 -94 -6 -136zM872 598c0 94.667 -22.499 167.667 -67.499 219s-107.833 77 -188.5 77
c-82 0 -147.333 -25.667 -196 -77s-77.334 -124.333 -86.001 -219h538z" />
    <glyph glyph-name="Ecaron" unicode="&#x11a;" 
d="M1100 1230h-740v-424h560v-190h-560v-426h740v-190h-940v1420h940v-190zM754 1840h222l-260 -260h-172l-260 260h222l124 -144z" />
    <glyph glyph-name="ecaron" unicode="&#x11b;" 
d="M1058 436h-716.001c18.667 -88 60.667 -155 126 -201s151.333 -69 258 -69c82 0 168.667 9.33301 260 28l26 -186c-98 -18.667 -201.333 -28 -310 -28c-120.667 0 -223.167 21.333 -307.5 64s-148.5 105.167 -192.5 187.5s-66 182.5 -66 300.5
c0 114.667 18.667 213 56 295s91.833 144.667 163.5 188s157.834 65 258.501 65c144 0 255 -43.667 333 -131s117 -213 117 -377c0 -48.667 -2 -94 -6 -136zM871.999 598c0 94.667 -22.499 167.667 -67.499 219s-107.833 77 -188.5 77c-82 0 -147.333 -25.667 -196 -77
s-77.334 -124.333 -86.001 -219h538zM734 1628h212l-240 -380h-172l-240 380h212l114 -235z" />
    <glyph glyph-name="Gcircumflex" unicode="&#x11c;" 
d="M1120 40c-44.667 -14.667 -101 -28.333 -169 -41s-141 -19 -219 -19c-424 0 -636 244 -636 732c0 153.333 24.667 284.5 74 393.5s121 192 215 249s207 85.5 339 85.5c99.333 0 186.333 -15.5 261 -46.5s129.667 -74.833 165 -131.5l-149 -148
c-31.333 45.333 -70.166 80.333 -116.499 105s-95.833 37 -148.5 37c-89.333 0 -165.833 -20.833 -229.5 -62.5s-112.334 -102.5 -146.001 -182.5s-50.5 -176.333 -50.5 -289c0 -186 37.333 -325.5 112 -418.5s186 -139.5 334 -139.5c55.333 0 113.333 6.66699 174 20v336
h-290v190h480v-670zM1056 1580h-222l-124 144l-124 -144h-222l260 260h172z" />
    <glyph glyph-name="gcircumflex" unicode="&#x11d;" 
d="M1032 1060l0.000976562 -966.001c0 -126.667 -18.833 -230.334 -56.5 -311.001s-96.167 -141.5 -175.5 -182.5s-182 -63.833 -308 -68.5l-310 -10l-10 188l340 16c106 4.66699 183.5 34.334 232.5 89.001s73.5 137 73.5 247v102h-18c-6.66699 -60 -35 -105.667 -85 -137
s-115.667 -47 -197 -47c-89.333 0 -165.5 20.833 -228.5 62.5s-111 102.834 -144 183.501s-49.5 178.667 -49.5 294c0 118 16.5 219 49.5 303s81.333 147.833 145 191.5s140.167 65.5 229.5 65.5c84.667 0 150.167 -17.5 196.5 -52.5s74.166 -88.167 83.499 -159.5h23
l17 192h192zM820.001 339.999l0.000976562 256.001c0 202.667 -90 304 -270 304c-78 0 -138.167 -33 -180.5 -99s-63.5 -159.667 -63.5 -281c0 -118.667 20.667 -208.334 62 -269.001s102.666 -91 183.999 -91c178.667 0 268 60 268 180zM906.002 1248h-212l-114 235
l-114 -235h-212l240 380h172z" />
    <glyph glyph-name="Gbreve" unicode="&#x11e;" 
d="M1120 40c-44.667 -14.667 -101 -28.333 -169 -41s-141 -19 -219 -19c-424 0 -636 244 -636 732c0 153.333 24.667 284.5 74 393.5s121 192 215 249s207 85.5 339 85.5c99.333 0 186.333 -15.5 261 -46.5s129.667 -74.833 165 -131.5l-149 -148
c-31.333 45.333 -70.166 80.333 -116.499 105s-95.833 37 -148.5 37c-89.333 0 -165.833 -20.833 -229.5 -62.5s-112.334 -102.5 -146.001 -182.5s-50.5 -176.333 -50.5 -289c0 -186 37.333 -325.5 112 -418.5s186 -139.5 334 -139.5c55.333 0 113.333 6.66699 174 20v336
h-290v190h480v-670zM929.5 1648c-53 -45.333 -127.831 -68 -224.498 -68s-171.5 22.667 -224.5 68s-79.5 109.333 -79.5 192h175c0 -39.333 11.167 -69.833 33.5 -91.5s54.166 -32.5 95.499 -32.5s73.166 10.833 95.499 32.5s33.5 52.167 33.5 91.5h175
c0 -82.667 -26.5 -146.667 -79.5 -192z" />
    <glyph glyph-name="gbreve" unicode="&#x11f;" 
d="M1032 1060l0.000976562 -966.001c0 -126.667 -18.833 -230.334 -56.5 -311.001s-96.167 -141.5 -175.5 -182.5s-182 -63.833 -308 -68.5l-310 -10l-10 188l340 16c106 4.66699 183.5 34.334 232.5 89.001s73.5 137 73.5 247v102h-18c-6.66699 -60 -35 -105.667 -85 -137
s-115.667 -47 -197 -47c-89.333 0 -165.5 20.833 -228.5 62.5s-111 102.834 -144 183.501s-49.5 178.667 -49.5 294c0 118 16.5 219 49.5 303s81.333 147.833 145 191.5s140.167 65.5 229.5 65.5c84.667 0 150.167 -17.5 196.5 -52.5s74.166 -88.167 83.499 -159.5h23
l17 192h192zM820.001 339.999l0.000976562 256.001c0 202.667 -90 304 -270 304c-78 0 -138.167 -33 -180.5 -99s-63.5 -159.667 -63.5 -281c0 -118.667 20.667 -208.334 62 -269.001s102.666 -91 183.999 -91c178.667 0 268 60 268 180zM363.002 1317
c-51.333 52.667 -77.002 127 -77.002 223v53h175v-53c0 -53.333 10.333 -94.333 31 -123s50 -43 88 -43s67.333 14.333 88 43s31 69.667 31 123v53h175v-53c0 -96 -25.667 -170.333 -77 -223s-123.666 -79 -216.999 -79s-165.666 26.333 -216.999 79z" />
    <glyph glyph-name="Gdotaccent" unicode="&#x120;" 
d="M1120 40c-44.667 -14.667 -101 -28.333 -169 -41s-141 -19 -219 -19c-424 0 -636 244 -636 732c0 153.333 24.667 284.5 74 393.5s121 192 215 249s207 85.5 339 85.5c99.333 0 186.333 -15.5 261 -46.5s129.667 -74.833 165 -131.5l-149 -148
c-31.333 45.333 -70.166 80.333 -116.499 105s-95.833 37 -148.5 37c-89.333 0 -165.833 -20.833 -229.5 -62.5s-112.334 -102.5 -146.001 -182.5s-50.5 -176.333 -50.5 -289c0 -186 37.333 -325.5 112 -418.5s186 -139.5 334 -139.5c55.333 0 113.333 6.66699 174 20v336
h-290v190h480v-670zM638 1598c-20.667 12 -37 28.333 -49 49s-18 43 -18 67c0 24.667 6 47.167 18 67.5s28.333 36.5 49 48.5s43 18 67 18s46.333 -6 67 -18s37 -28.167 49 -48.5s18 -42.833 18 -67.5c0 -24 -6 -46.333 -18 -67s-28.333 -37 -49 -49s-43 -18 -67 -18
s-46.333 6 -67 18z" />
    <glyph glyph-name="gdotaccent" unicode="&#x121;" 
d="M1032 1060l0.000976562 -966.001c0 -126.667 -18.833 -230.334 -56.5 -311.001s-96.167 -141.5 -175.5 -182.5s-182 -63.833 -308 -68.5l-310 -10l-10 188l340 16c106 4.66699 183.5 34.334 232.5 89.001s73.5 137 73.5 247v102h-18c-6.66699 -60 -35 -105.667 -85 -137
s-115.667 -47 -197 -47c-89.333 0 -165.5 20.833 -228.5 62.5s-111 102.834 -144 183.501s-49.5 178.667 -49.5 294c0 118 16.5 219 49.5 303s81.333 147.833 145 191.5s140.167 65.5 229.5 65.5c84.667 0 150.167 -17.5 196.5 -52.5s74.166 -88.167 83.499 -159.5h23
l17 192h192zM820.001 339.999l0.000976562 256.001c0 202.667 -90 304 -270 304c-78 0 -138.167 -33 -180.5 -99s-63.5 -159.667 -63.5 -281c0 -118.667 20.667 -208.334 62 -269.001s102.666 -91 183.999 -91c178.667 0 268 60 268 180zM511.002 1256
c-20.667 12 -37 28.333 -49 49s-18 43 -18 67c0 24.667 6 47.167 18 67.5s28.333 36.5 49 48.5s43 18 67 18s46.333 -6 67 -18s37 -28.167 49 -48.5s18 -42.833 18 -67.5c0 -24 -6 -46.333 -18 -67s-28.333 -37 -49 -49s-43 -18 -67 -18s-46.333 6 -67 18z" />
    <glyph glyph-name="uni0122" unicode="&#x122;" 
d="M1120 40c-44.667 -14.667 -101 -28.333 -169 -41s-141 -19 -219 -19c-424 0 -636 244 -636 732c0 153.333 24.667 284.5 74 393.5s121 192 215 249s207 85.5 339 85.5c99.333 0 186.333 -15.5 261 -46.5s129.667 -74.833 165 -131.5l-149 -148
c-31.333 45.333 -70.166 80.333 -116.499 105s-95.833 37 -148.5 37c-89.333 0 -165.833 -20.833 -229.5 -62.5s-112.334 -102.5 -146.001 -182.5s-50.5 -176.333 -50.5 -289c0 -186 37.333 -325.5 112 -418.5s186 -139.5 334 -139.5c55.333 0 113.333 6.66699 174 20v336
h-290v190h480v-670zM607 -139.999h222l-117 -340h-182z" />
    <glyph glyph-name="uni0123" unicode="&#x123;" 
d="M1032 1060l0.000976562 -966.001c0 -126.667 -18.833 -230.334 -56.5 -311.001s-96.167 -141.5 -175.5 -182.5s-182 -63.833 -308 -68.5l-310 -10l-10 188l340 16c106 4.66699 183.5 34.334 232.5 89.001s73.5 137 73.5 247v102h-18c-6.66699 -60 -35 -105.667 -85 -137
s-115.667 -47 -197 -47c-89.333 0 -165.5 20.833 -228.5 62.5s-111 102.834 -144 183.501s-49.5 178.667 -49.5 294c0 118 16.5 219 49.5 303s81.333 147.833 145 191.5s140.167 65.5 229.5 65.5c84.667 0 150.167 -17.5 196.5 -52.5s74.166 -88.167 83.499 -159.5h23
l17 192h192zM820.001 339.999l0.000976562 256.001c0 202.667 -90 304 -270 304c-78 0 -138.167 -33 -180.5 -99s-63.5 -159.667 -63.5 -281c0 -118.667 20.667 -208.334 62 -269.001s102.666 -91 183.999 -91c178.667 0 268 60 268 180zM694.002 1208h-212l90 380h172z" />
    <glyph glyph-name="Hcircumflex" unicode="&#x124;" 
d="M858 1420h200v-1420h-200v612h-518v-612h-200v1420h200v-618h518v618zM951 1580h-222l-124 144l-124 -144h-222l260 260h172z" />
    <glyph glyph-name="hcircumflex" unicode="&#x125;" 
d="M940 978c61.333 -68 92 -164.001 92 -288.001v-690h-212v690c0 66.667 -16.667 118.334 -50 155.001s-80 55 -140 55c-166.667 0 -250 -101.333 -250 -304v-596h-212v1500h212v-632h20c6 71.333 32 124.5 78 159.5s113.333 52.5 202 52.5c112 0 198.667 -34 260 -102z
M625 1660h-222l-124 144l-124 -144h-222l260 260h172z" />
    <glyph glyph-name="Hbar" unicode="&#x126;" 
d="M1138 1192v-190h-80v-1002h-200v612h-518v-612h-200v1002h-78v190h78v228h200v-228h518v228h200v-228h80zM858 802v200h-518v-200h518z" />
    <glyph glyph-name="hbar" unicode="&#x127;" 
d="M940 978c61.333 -68 92 -164.001 92 -288.001v-690h-212v690c0 66.667 -16.667 118.334 -50 155.001s-80 55 -140 55c-166.667 0 -250 -101.333 -250 -304v-596h-212v1216h-106v176h106v108h212v-108h358v-176h-358v-348h20c6 71.333 32 124.5 78 159.5
s113.333 52.5 202 52.5c112 0 198.667 -34 260 -102z" />
    <glyph glyph-name="Itilde" unicode="&#x128;" 
d="M1032 1230h-333v-1040h333v-190h-864v190h331v1040h-331v190h864v-190zM425 1866c25.333 0 51.832 -3.83203 79.499 -11.499s67.167 -20.167 118.5 -37.5l65 -24c29.333 -10.667 50.5 -17.834 63.5 -21.501s25.5 -5.5 37.5 -5.5c36 0 54 31.333 54 94v30h172v-50
c0 -160 -66 -240 -198 -240c-21.333 0 -46.833 4.33301 -76.5 13s-71.834 22.667 -126.501 42c-45.333 16 -79.166 27.5 -101.499 34.5s-42.166 10.5 -59.499 10.5c-49.333 0 -74 -34.667 -74 -104v-30h-174v50c0 166.667 73.333 250 220 250z" />
    <glyph glyph-name="itilde" unicode="&#x129;" 
d="M776 174h326v-174h-942v174h404v710h-344v176h556v-886zM495 1556c46 0 102.001 -16.334 168.001 -49.001c44 -21.333 74 -35.166 90 -41.499s31.333 -9.5 46 -9.5c36 0 54 31.333 54 94v60h172v-80c0 -160 -66 -240 -198 -240c-22 0 -47.667 4.5 -77 13.5
s-61.333 22.833 -96 41.5c-54.667 30 -98.334 45 -131.001 45c-49.333 0 -74 -34.667 -74 -104v-60h-174v80c0 166.667 73.333 250 220 250z" />
    <glyph glyph-name="Imacron" unicode="&#x12a;" 
d="M1032 1230h-333v-1040h333v-190h-864v190h331v1040h-331v190h864v-190zM213 1768h774v-188h-774v188z" />
    <glyph glyph-name="imacron" unicode="&#x12b;" 
d="M1037 1376v-188h-817v188h817zM776 174h326v-174h-942v174h404v710h-344v176h556v-886z" />
    <glyph glyph-name="Ibreve" unicode="&#x12c;" 
d="M1032 1230h-333v-1040h333v-190h-864v190h331v1040h-331v190h864v-190zM824.5 1648c-53 -45.333 -127.831 -68 -224.498 -68s-171.5 22.667 -224.5 68s-79.5 109.333 -79.5 192h175c0 -39.333 11.167 -69.833 33.5 -91.5s54.166 -32.5 95.499 -32.5
s73.166 10.833 95.499 32.5s33.5 52.167 33.5 91.5h175c0 -82.667 -26.5 -146.667 -79.5 -192z" />
    <glyph glyph-name="ibreve" unicode="&#x12d;" 
d="M776 174h326v-174h-942v174h404v710h-344v176h556v-886zM433 1317c-51.333 52.667 -77.002 127 -77.002 223v53h175v-53c0 -53.333 10.333 -94.333 31 -123s50 -43 88 -43s67.333 14.333 88 43s31 69.667 31 123v53h175v-53c0 -96 -25.667 -170.333 -77 -223
s-123.666 -79 -216.999 -79s-165.666 26.333 -216.999 79z" />
    <glyph glyph-name="Iogonek" unicode="&#x12e;" 
d="M699 1230l0.000976562 -1040h333v-190h-263c-71.333 -0 -126.5 -14.667 -165.5 -44s-58.5 -70.666 -58.5 -123.999c0 -28 10.167 -49.667 30.5 -65s48.833 -23 85.5 -23c24.667 0 52 4 82 12l-18 -171c-31.333 -6 -61.333 -9 -90 -9
c-76.667 0 -135.834 16.667 -177.501 50s-62.5 80.666 -62.5 141.999c0 54 13.333 99.5 40 136.5s64.667 62.167 114 75.5v20h-381v190h331v1040h-331v190h864v-190h-333z" />
    <glyph glyph-name="iogonek" unicode="&#x12f;" 
d="M584 1248c-22.667 13.333 -40.667 31.333 -54 54s-20 47.334 -20 74.001s6.66699 51.334 20 74.001s31.333 40.667 54 54s47.334 20 74.001 20s51.334 -6.66699 74.001 -20s40.667 -31.333 54 -54s20 -47.334 20 -74.001s-6.66699 -51.334 -20 -74.001
s-31.333 -40.667 -54 -54s-47.334 -20 -74.001 -20s-51.334 6.66699 -74.001 20zM1102 174l0.00195312 -174.001h-298c-71.333 0 -126.5 -14.667 -165.5 -44s-58.5 -70.666 -58.5 -123.999c0 -28 10.167 -49.667 30.5 -65s48.833 -23 85.5 -23
c23.333 0 50.666 3.66699 81.999 11l-18 -170c-30.667 -6 -60.667 -9 -90 -9c-76.667 0 -135.834 15.833 -177.501 47.5s-62.5 76.5 -62.5 134.5c0 51.333 11.667 94.5 35 129.5s56.333 59.167 99 72.5v40h-404v174h404v710h-344v176h556v-886h326z" />
    <glyph glyph-name="Idotaccent" unicode="&#x130;" 
d="M1032 1230h-333v-1040h333v-190h-864v190h331v1040h-331v190h864v-190zM533 1598c-20.667 12 -37 28.333 -49 49s-18 43 -18 67c0 24.667 6 47.167 18 67.5s28.333 36.5 49 48.5s43 18 67 18s46.333 -6 67 -18s37 -28.167 49 -48.5s18 -42.833 18 -67.5
c0 -24 -6 -46.333 -18 -67s-28.333 -37 -49 -49s-43 -18 -67 -18s-46.333 6 -67 18z" />
    <glyph glyph-name="dotlessi" unicode="&#x131;" 
d="M776 174h326v-174h-942v174h404v710h-344v176h556v-886z" />
    <glyph glyph-name="IJ" unicode="&#x132;" 
d="M45 517v190h176v523h-176v190h524v-190h-158v-523h178v-190h-544zM1072 456c0 -152.667 -37.167 -266.833 -111.5 -342.5s-186.5 -113.5 -336.5 -113.5c-272 -0 -408 125.333 -408 376h200c0 -130.667 71 -196 213 -196c162 0 243 92 243 276v774h-192v190h392v-964z" />
    <glyph glyph-name="ij" unicode="&#x133;" 
d="M274 1248c-22.667 13.333 -40.667 31.333 -54 54s-20 47.334 -20 74.001s6.66699 51.334 20 74.001s31.333 40.667 54 54s47.334 20 74.001 20s51.334 -6.66699 74.001 -20s40.667 -31.333 54 -54s20 -47.334 20 -74.001s-6.66699 -51.334 -20 -74.001
s-31.333 -40.667 -54 -54s-47.334 -20 -74.001 -20s-51.334 6.66699 -74.001 20zM778 1248c-22.667 13.333 -40.667 31.333 -54 54s-20 47.334 -20 74.001s6.66699 51.334 20 74.001s31.333 40.667 54 54s47.334 20 74.001 20s51.334 -6.66699 74.001 -20
s40.667 -31.333 54 -54s20 -47.334 20 -74.001s-6.66699 -51.334 -20 -74.001s-31.333 -40.667 -54 -54s-47.334 -20 -74.001 -20s-51.334 6.66699 -74.001 20zM960 1060l-0.000976562 -966.002c0 -126 -18.667 -228.667 -56 -308s-95.166 -139.166 -173.499 -179.499
s-181.166 -65.166 -308.499 -74.499l-170 -12l-10 188l200 18c107.333 9.33301 185.166 40.5 233.499 93.5s72.5 133.833 72.5 242.5v998h212zM243.999 -0.00195312v1060h212v-1060h-212z" />
    <glyph glyph-name="Jcircumflex" unicode="&#x134;" 
d="M1072 436c0 -96 -19.334 -178.167 -58.001 -246.5s-94.667 -120.333 -168 -156s-160.666 -53.5 -261.999 -53.5c-103.333 0 -191.5 19.5 -264.5 58.5s-128.5 95.667 -166.5 170s-57 163.5 -57 267.5h200c0 -100 25.5 -177.667 76.5 -233s123.167 -83 216.5 -83
c90.667 0 160.5 24 209.5 72s73.5 116 73.5 204v794h-372v190h572v-984zM1131 1580h-222l-124 144l-124 -144h-222l260 260h172z" />
    <glyph glyph-name="jcircumflex" unicode="&#x135;" 
d="M888 94c0 -126 -18.668 -228.333 -56.001 -307s-95.166 -138.334 -173.499 -179.001s-181.166 -66 -308.499 -76l-170 -12l-10 188l200 18c107.333 10 185.166 41.333 233.499 94s72.5 133.334 72.5 242.001v822h-412v176h624v-966zM1108 1248h-212l-114 235l-114 -235
h-212l240 380h172z" />
    <glyph glyph-name="uni0136" unicode="&#x136;" 
d="M649 541c-89.333 -47.333 -185.668 -75.999 -289.001 -85.999v-455h-200v1420h200v-778c118.667 10.667 218.334 53.167 299.001 127.5s140.667 168.666 180 282.999s59 236.833 59 367.5h206c0 -148 -24.833 -288 -74.5 -420s-120.167 -243.333 -211.5 -334l354 -666
h-242zM531.998 -139.999h222l-117 -340h-182z" />
    <glyph glyph-name="uni0137" unicode="&#x137;" 
d="M878 0l-229.999 393c-52 -14 -108 -21 -168 -21h-108v-372h-212v1500h212v-938h58c89.333 0 162 16.167 218 48.5s100.167 84.5 132.5 156.5s56.166 169.667 71.499 293h220c-32 -264 -110 -452 -234 -564l302 -496h-262zM472.001 -140h222l-117 -340h-182z" />
    <glyph glyph-name="kgreenlandic" unicode="&#x138;" 
d="M878 0l-229.999 393c-52 -14 -108 -21 -168 -21h-108v-372h-212v1060h212v-498h58c89.333 0 162 16.167 218 48.5s100.167 84.5 132.5 156.5s56.166 169.667 71.499 293h220c-32 -264 -110 -452 -234 -564l302 -496h-262z" />
    <glyph glyph-name="Lacute" unicode="&#x139;" 
d="M360 190h740v-190h-940v1420h200v-1230zM149 1580l220 250h282l-260 -250h-242z" />
    <glyph glyph-name="lacute" unicode="&#x13a;" 
d="M1064 22c-53.333 -14.667 -105 -25.332 -155 -31.999s-103.667 -10 -161 -10c-82.667 0 -149.334 14.667 -200.001 44s-88 74.666 -112 135.999s-36 141.333 -36 240v924h-312v176h524v-1090c0 -60 5.5 -106.833 16.5 -140.5s32 -58.667 63 -75s76.5 -24.5 136.5 -24.5
c29.333 0 60.833 3 94.5 9s72.834 15.667 117.501 29zM395 1660l220 250h282l-260 -250h-242z" />
    <glyph glyph-name="uni013B" unicode="&#x13b;" 
d="M360 190h740v-190h-940v1420h200v-1230zM512 -140h222l-117 -340h-182z" />
    <glyph glyph-name="uni013C" unicode="&#x13c;" 
d="M1064 22c-53.333 -14.667 -105 -25.332 -155 -31.999s-103.667 -10 -161 -10c-82.667 0 -149.334 14.667 -200.001 44s-88 74.666 -112 135.999s-36 141.333 -36 240v924h-312v176h524v-1090c0 -60 5.5 -106.833 16.5 -140.5s32 -58.667 63 -75s76.5 -24.5 136.5 -24.5
c29.333 0 60.833 3 94.5 9s72.834 15.667 117.501 29zM562 -139.998h222l-117 -340h-182z" />
    <glyph glyph-name="Lcaron" unicode="&#x13d;" 
d="M1024 1568l-90 -380h-172l50 380h212zM360 190h740v-190h-940v1420h200v-1230z" />
    <glyph glyph-name="lcaron" unicode="&#x13e;" 
d="M1024 1568l-90 -380h-172l50 380h212zM1064 22c-53.333 -14.667 -105 -25.332 -155 -31.999s-103.667 -10 -161 -10c-82.667 0 -149.334 14.667 -200.001 44s-88 74.666 -112 135.999s-36 141.333 -36 240v924h-312v176h524v-1090c0 -60 5.5 -106.833 16.5 -140.5
s32 -58.667 63 -75s76.5 -24.5 136.5 -24.5c29.333 0 60.833 3 94.5 9s72.834 15.667 117.501 29z" />
    <glyph glyph-name="Ldot" unicode="&#x13f;" 
d="M360 190h740v-190h-940v1420h200v-1230zM676 772c-22.667 13.333 -40.667 31.333 -54 54s-20 47.334 -20 74.001s6.66699 51.334 20 74.001s31.333 40.667 54 54s47.334 20 74.001 20s51.334 -6.66699 74.001 -20s40.667 -31.333 54 -54s20 -47.334 20 -74.001
s-6.66699 -51.334 -20 -74.001s-31.333 -40.667 -54 -54s-47.334 -20 -74.001 -20s-51.334 6.66699 -74.001 20z" />
    <glyph glyph-name="ldot" unicode="&#x140;" 
d="M1064 22c-53.333 -14.667 -105 -25.332 -155 -31.999s-103.667 -10 -161 -10c-82.667 0 -149.334 14.667 -200.001 44s-88 74.666 -112 135.999s-36 141.333 -36 240v924h-312v176h524v-1090c0 -60 5.5 -106.833 16.5 -140.5s32 -58.667 63 -75s76.5 -24.5 136.5 -24.5
c29.333 0 60.833 3 94.5 9s72.834 15.667 117.501 29zM842 702.002c-22.667 13.333 -40.667 31.333 -54 54s-20 47.334 -20 74.001s6.66699 51.334 20 74.001s31.333 40.667 54 54s47.334 20 74.001 20s51.334 -6.66699 74.001 -20s40.667 -31.333 54 -54
s20 -47.334 20 -74.001s-6.66699 -51.334 -20 -74.001s-31.333 -40.667 -54 -54s-47.334 -20 -74.001 -20s-51.334 6.66699 -74.001 20z" />
    <glyph glyph-name="Lslash" unicode="&#x141;" 
d="M360 190h740v-190h-940v528l-126 -66l-88 154l214 112v692h200v-588l388 203l87 -154l-475 -248v-443z" />
    <glyph glyph-name="lslash" unicode="&#x142;" 
d="M1064 22c-53.333 -14.667 -105 -25.332 -155 -31.999s-103.667 -10 -161 -10c-82.667 0 -149.334 14.667 -200.001 44s-88 74.666 -112 135.999s-36 141.333 -36 240v230l-242 -63l-40 175l282 74v508h-312v176h524v-629l272 71l40 -175l-312 -81v-276
c0 -60 5.5 -106.833 16.5 -140.5s32 -58.667 63 -75s76.5 -24.5 136.5 -24.5c29.333 0 60.833 3 94.5 9s72.834 15.667 117.501 29z" />
    <glyph glyph-name="Nacute" unicode="&#x143;" 
d="M860 1420h192v-1420h-252l-440 1050h-20v-1050h-192v1420h252l440 -1098h20v1098zM489 1580l220 250h282l-260 -250h-242z" />
    <glyph glyph-name="nacute" unicode="&#x144;" 
d="M940 978c61.333 -68 92 -164.001 92 -288.001v-690h-212v690c0 66.667 -16.667 118.334 -50 155.001s-80 55 -140 55c-166.667 0 -250 -101.333 -250 -304v-596h-212v1060h192l17 -192h23c6 71.333 32 124.5 78 159.5s113.333 52.5 202 52.5c112 0 198.667 -34 260 -102z
M489 1248l170 380h212l-190 -380h-192z" />
    <glyph glyph-name="uni0145" unicode="&#x145;" 
d="M860 1420h192v-1420h-252l-440 1050h-20v-1050h-192v1420h252l440 -1098h20v1098zM492 -140h222l-117 -340h-182z" />
    <glyph glyph-name="uni0146" unicode="&#x146;" 
d="M940 978c61.333 -68 92 -164.001 92 -288.001v-690h-212v690c0 66.667 -16.667 118.334 -50 155.001s-80 55 -140 55c-166.667 0 -250 -101.333 -250 -304v-596h-212v1060h192l17 -192h23c6 71.333 32 124.5 78 159.5s113.333 52.5 202 52.5c112 0 198.667 -34 260 -102z
M492 -140.001h222l-117 -340h-182z" />
    <glyph glyph-name="Ncaron" unicode="&#x147;" 
d="M860 1420h192v-1420h-252l-440 1050h-20v-1050h-192v1420h252l440 -1098h20v1098zM724 1840h222l-260 -260h-172l-260 260h222l124 -144z" />
    <glyph glyph-name="ncaron" unicode="&#x148;" 
d="M940 978c61.333 -68 92 -164.001 92 -288.001v-690h-212v690c0 66.667 -16.667 118.334 -50 155.001s-80 55 -140 55c-166.667 0 -250 -101.333 -250 -304v-596h-212v1060h192l17 -192h23c6 71.333 32 124.5 78 159.5s113.333 52.5 202 52.5c112 0 198.667 -34 260 -102z
M704 1628h212l-240 -380h-172l-240 380h212l114 -235z" />
    <glyph glyph-name="napostrophe" unicode="&#x149;" 
d="M70 1628h232l-140 -380h-162zM940 978c61.333 -68 92 -164.001 92 -288.001v-690h-212v690c0 66.667 -16.667 118.334 -50 155.001s-80 55 -140 55c-166.667 0 -250 -101.333 -250 -304v-596h-212v1060h192l17 -192h23c6 71.333 32 124.5 78 159.5s113.333 52.5 202 52.5
c112 0 198.667 -34 260 -102z" />
    <glyph glyph-name="Eng" unicode="&#x14a;" 
d="M1052 1420l-0.000976562 -1516c0 -108.667 -28.667 -195.5 -86 -260.5s-138.333 -102.167 -243 -111.5l-130 -12l-10 168l120 18c52.667 8 91.834 28.667 117.501 62s38.5 81.333 38.5 144v88h-59l-440 1050h-20v-1050h-192v1420h252l440 -1098h20v1098h192z" />
    <glyph glyph-name="eng" unicode="&#x14b;" 
d="M940 978c61.333 -68 91.999 -164.001 91.999 -288.001v-596c0 -126 -16.167 -228.333 -48.5 -307s-82.666 -138.334 -150.999 -179.001s-157.833 -66 -268.5 -76l-100 -12l-10 188l130 18c82.667 10 142.667 41.333 180 94s56 133.334 56 242.001v628
c0 66.667 -16.667 118.334 -50 155.001s-80 55 -140 55c-166.667 0 -250 -101.333 -250 -304v-596h-212v1060h192l17 -192h23c6 71.333 32 124.5 78 159.5s113.333 52.5 202 52.5c112 0 198.667 -34 260 -102z" />
    <glyph glyph-name="Omacron" unicode="&#x14c;" 
d="M76 700c0 493.333 174.667 740 524 740s524 -246.667 524 -740c0 -480 -174.667 -720 -524 -720s-524 240 -524 720zM914 700c0 370.667 -104.667 556 -314 556s-314 -185.333 -314 -556c0 -357.333 104.667 -536 314 -536s314 178.667 314 536zM213 1768h774v-188h-774
v188z" />
    <glyph glyph-name="omacron" unicode="&#x14d;" 
d="M349.5 44.5c-69.667 43 -122.667 105.667 -159 188s-54.5 181.5 -54.5 297.5s18.167 215.167 54.5 297.5s89.333 145 159 188s153.167 64.5 250.5 64.5s180.833 -21.5 250.5 -64.5s122.667 -105.667 159 -188s54.5 -181.5 54.5 -297.5s-18.167 -215.167 -54.5 -297.5
s-89.333 -145 -159 -188s-153.167 -64.5 -250.5 -64.5s-180.833 21.5 -250.5 64.5zM780.5 263.5c42.333 62.333 63.5 151.166 63.5 266.499s-21.167 204.166 -63.5 266.499s-102.5 93.5 -180.5 93.5s-138.167 -31.167 -180.5 -93.5s-63.5 -151.166 -63.5 -266.499
s21.167 -204.166 63.5 -266.499s102.5 -93.5 180.5 -93.5s138.167 31.167 180.5 93.5zM170 1436h860v-188h-860v188z" />
    <glyph glyph-name="Obreve" unicode="&#x14e;" 
d="M76 700c0 493.333 174.667 740 524 740s524 -246.667 524 -740c0 -480 -174.667 -720 -524 -720s-524 240 -524 720zM914 700c0 370.667 -104.667 556 -314 556s-314 -185.333 -314 -556c0 -357.333 104.667 -536 314 -536s314 178.667 314 536zM824.5 1648
c-53 -45.333 -127.831 -68 -224.498 -68s-171.5 22.667 -224.5 68s-79.5 109.333 -79.5 192h175c0 -39.333 11.167 -69.833 33.5 -91.5s54.166 -32.5 95.499 -32.5s73.166 10.833 95.499 32.5s33.5 52.167 33.5 91.5h175c0 -82.667 -26.5 -146.667 -79.5 -192z" />
    <glyph glyph-name="obreve" unicode="&#x14f;" 
d="M349.5 44.5c-69.667 43 -122.667 105.667 -159 188s-54.5 181.5 -54.5 297.5s18.167 215.167 54.5 297.5s89.333 145 159 188s153.167 64.5 250.5 64.5s180.833 -21.5 250.5 -64.5s122.667 -105.667 159 -188s54.5 -181.5 54.5 -297.5s-18.167 -215.167 -54.5 -297.5
s-89.333 -145 -159 -188s-153.167 -64.5 -250.5 -64.5s-180.833 21.5 -250.5 64.5zM780.5 263.5c42.333 62.333 63.5 151.166 63.5 266.499s-21.167 204.166 -63.5 266.499s-102.5 93.5 -180.5 93.5s-138.167 -31.167 -180.5 -93.5s-63.5 -151.166 -63.5 -266.499
s21.167 -204.166 63.5 -266.499s102.5 -93.5 180.5 -93.5s138.167 31.167 180.5 93.5zM383 1317c-51.333 52.667 -77.002 127 -77.002 223v53h175v-53c0 -53.333 10.333 -94.333 31 -123s50 -43 88 -43s67.333 14.333 88 43s31 69.667 31 123v53h175v-53
c0 -96 -25.667 -170.333 -77 -223s-123.666 -79 -216.999 -79s-165.666 26.333 -216.999 79z" />
    <glyph glyph-name="Ohungarumlaut" unicode="&#x150;" 
d="M76 700c0 493.333 174.667 740 524 740s524 -246.667 524 -740c0 -480 -174.667 -720 -524 -720s-524 240 -524 720zM914 700c0 370.667 -104.667 556 -314 556s-314 -185.333 -314 -556c0 -357.333 104.667 -536 314 -536s314 178.667 314 536zM249 1580l160 250h282
l-200 -250h-242zM659 1580l160 250h282l-200 -250h-242z" />
    <glyph glyph-name="ohungarumlaut" unicode="&#x151;" 
d="M349.5 44.5c-69.667 43 -122.667 105.667 -159 188s-54.5 181.5 -54.5 297.5s18.167 215.167 54.5 297.5s89.333 145 159 188s153.167 64.5 250.5 64.5s180.833 -21.5 250.5 -64.5s122.667 -105.667 159 -188s54.5 -181.5 54.5 -297.5s-18.167 -215.167 -54.5 -297.5
s-89.333 -145 -159 -188s-153.167 -64.5 -250.5 -64.5s-180.833 21.5 -250.5 64.5zM780.5 263.5c42.333 62.333 63.5 151.166 63.5 266.499s-21.167 204.166 -63.5 266.499s-102.5 93.5 -180.5 93.5s-138.167 -31.167 -180.5 -93.5s-63.5 -151.166 -63.5 -266.499
s21.167 -204.166 63.5 -266.499s102.5 -93.5 180.5 -93.5s138.167 31.167 180.5 93.5zM289 1248l150 380h222l-170 -380h-202zM669 1248l150 380h222l-170 -380h-202z" />
    <glyph glyph-name="OE" unicode="&#x152;" 
d="M780 1240v-438.999h260v-180h-260v-441h320v-180h-400c-12.667 0 -35.667 -2.66699 -69 -8c-44 -8 -81 -12 -111 -12c-93.333 0 -173.333 28.167 -240 84.5s-117.334 138.333 -152.001 246s-52 237.5 -52 389.5c0 156 17.333 289.333 52 400s85.334 195 152.001 253
s146.667 87 240 87c29.333 0 61.666 -3.66699 96.999 -11c4.66699 -0.666992 15.667 -2.33398 33 -5.00098c16.667 -2.66699 33.334 -4 50.001 -4h400v-180h-320zM600 170.001v1064c-28 14.667 -61.333 22 -100 22c-45.333 0 -84 -21.833 -116 -65.5s-56.333 -107 -73 -190
s-25 -183.167 -25 -300.5c0 -113.333 8.33301 -210 25 -290s41 -141 73 -183s70.667 -63 116 -63c38 0 71.333 2 100 6z" />
    <glyph glyph-name="oe" unicode="&#x153;" 
d="M1168 436h-459.002c13.333 -90 43.833 -159.167 91.5 -207.5s109.5 -72.5 185.5 -72.5c38 0 78 4.33301 120 13l26 -171c-58 -12 -114.667 -18 -170 -18c-77.333 0 -144.5 17.667 -201.5 53s-102.5 87 -136.5 155c-48 -138.667 -134.667 -208 -260 -208
c-115.333 0 -201.5 45.667 -258.5 137s-85.5 229 -85.5 413s28.5 321.667 85.5 413s143.167 137 258.5 137c119.333 0 203.333 -62.667 252 -188c26.667 61.333 61.334 108 104.001 140s92.334 48 149.001 48c64.667 0 119.667 -19.833 165 -59.5s80 -97.5 104 -173.5
s36 -167.667 36 -275c0 -50.667 -2 -96 -6 -136zM991.998 588c0 107.333 -11.499 185.168 -34.499 233.501s-60.167 72.5 -111.5 72.5c-47.333 0 -82.333 -24.333 -105 -73s-35.334 -126.334 -38.001 -233.001h289zM472.499 259.502
c23.667 59.667 35.5 149.834 35.5 270.501s-11.833 210.834 -35.5 270.501s-59.834 89.5 -108.501 89.5c-54.667 0 -95.334 -29.833 -122.001 -89.5s-40 -149.834 -40 -270.501s13.333 -210.834 40 -270.501s67.334 -89.5 122.001 -89.5
c48.667 0 84.834 29.833 108.501 89.5z" />
    <glyph glyph-name="Racute" unicode="&#x154;" 
d="M900 0l-256.999 540h-15h-290v-540h-200v1420h490c97.333 0 180.666 -16.833 249.999 -50.5s122 -82.667 158 -147s54 -141.833 54 -232.5c0 -101.333 -20.667 -187 -62 -257s-101 -121.333 -179 -154l293 -579h-242zM338.001 730h290.001
c79.333 0 141.166 21 185.499 63s66.5 101 66.5 177c0 82.667 -22 146.667 -66 192s-106 68 -186 68h-290v-500zM449.002 1580l220 250h282l-260 -250h-242z" />
    <glyph glyph-name="racute" unicode="&#x155;" 
d="M1018.5 1038.5c45.667 -27.667 79.333 -70.5 101 -128.5s32.5 -134 32.5 -228h-210c0 76.667 -11.5 132.167 -34.5 166.5s-60.167 51.5 -111.5 51.5c-88.667 0 -155.5 -38 -200.5 -114s-67.5 -186 -67.5 -330v-280h260v-176h-708v176h236v708h-196v176h368l36 -272h24
c6 98 33.167 171.167 81.5 219.5s118.5 72.5 210.5 72.5c73.333 0 132.833 -13.833 178.5 -41.5zM498.999 1248l170 380h212l-190 -380h-192z" />
    <glyph glyph-name="uni0156" unicode="&#x156;" 
d="M900 0l-256.999 540h-15h-290v-540h-200v1420h490c97.333 0 180.666 -16.833 249.999 -50.5s122 -82.667 158 -147s54 -141.833 54 -232.5c0 -101.333 -20.667 -187 -62 -257s-101 -121.333 -179 -154l293 -579h-242zM338.001 730h290.001
c79.333 0 141.166 21 185.499 63s66.5 101 66.5 177c0 82.667 -22 146.667 -66 192s-106 68 -186 68h-290v-500zM502.002 -140h222l-117 -340h-182z" />
    <glyph glyph-name="uni0157" unicode="&#x157;" 
d="M1018.5 1038.5c45.667 -27.667 79.333 -70.5 101 -128.5s32.5 -134 32.5 -228h-210c0 76.667 -11.5 132.167 -34.5 166.5s-60.167 51.5 -111.5 51.5c-88.667 0 -155.5 -38 -200.5 -114s-67.5 -186 -67.5 -330v-280h260v-176h-708v176h236v708h-196v176h368l36 -272h24
c6 98 33.167 171.167 81.5 219.5s118.5 72.5 210.5 72.5c73.333 0 132.833 -13.833 178.5 -41.5zM321.999 -140h222l-117 -340h-182z" />
    <glyph glyph-name="Rcaron" unicode="&#x158;" 
d="M900 0l-256.999 540h-15h-290v-540h-200v1420h490c97.333 0 180.666 -16.833 249.999 -50.5s122 -82.667 158 -147s54 -141.833 54 -232.5c0 -101.333 -20.667 -187 -62 -257s-101 -121.333 -179 -154l293 -579h-242zM338.001 730h290.001
c79.333 0 141.166 21 185.499 63s66.5 101 66.5 177c0 82.667 -22 146.667 -66 192s-106 68 -186 68h-290v-500zM684.002 1840h222l-260 -260h-172l-260 260h222l124 -144z" />
    <glyph glyph-name="rcaron" unicode="&#x159;" 
d="M1018.5 1038.5c45.667 -27.667 79.333 -70.5 101 -128.5s32.5 -134 32.5 -228h-210c0 76.667 -11.5 132.167 -34.5 166.5s-60.167 51.5 -111.5 51.5c-88.667 0 -155.5 -38 -200.5 -114s-67.5 -186 -67.5 -330v-280h260v-176h-708v176h236v708h-196v176h368l36 -272h24
c6 98 33.167 171.167 81.5 219.5s118.5 72.5 210.5 72.5c73.333 0 132.833 -13.833 178.5 -41.5zM713.999 1628h212l-240 -380h-172l-240 380h212l114 -235z" />
    <glyph glyph-name="Sacute" unicode="&#x15a;" 
d="M978.5 600c52.333 -62.667 78.5 -140.669 78.5 -234.002c0 -128.667 -42 -225.167 -126 -289.5s-210.667 -96.5 -380 -96.5c-161.333 0 -302 26 -422 78l26 202c148 -64 285.333 -96 412 -96c92.667 0 161.834 16.333 207.501 49s68.5 82.334 68.5 149.001
c0 84.667 -43.333 146.667 -130 186l-246 112c-100 45.333 -175 99.333 -225 162s-75 138.667 -75 228c0 82 18 152.167 54 210.5s88.333 102.833 157 133.5s151.334 46 248.001 46h1c98 0 183.167 -19.167 255.5 -57.5s125.166 -92.166 158.499 -161.499l-168 -127
c-28 51.333 -63.5 91.166 -106.5 119.499s-89.5 42.5 -139.5 42.5c-78.667 0 -139.334 -16.667 -182.001 -50s-64 -82 -64 -146c0 -44.667 11.833 -81.667 35.5 -111s60.5 -55.666 110.5 -78.999l208 -98c110 -52 191.167 -109.333 243.5 -172zM489 1580l220 250h282
l-260 -250h-242z" />
    <glyph glyph-name="sacute" unicode="&#x15b;" 
d="M310.5 -13c-57 4.66699 -108.501 12.3359 -154.501 23.0029l24 192c136 -21.333 248.667 -32 338 -32c106.667 0 184.334 10.5 233.001 31.5s73 54.5 73 100.5c0 30.667 -8.16699 54 -24.5 70s-42.833 28.667 -79.5 38l-244 62c-68 17.333 -122.333 37.333 -163 60
s-71 51.5 -91 86.5s-30 78.833 -30 131.5c0 78 18.833 141.167 56.5 189.5s96.334 83.833 176.001 106.5s183.5 34 311.5 34c97.333 0 190.666 -6.66699 279.999 -20l-22 -184c-100.667 9.33301 -188.667 14 -264 14c-112 0 -193 -10.167 -243 -30.5s-75 -53.5 -75 -99.5
c0 -29.333 8.66699 -51.333 26 -66s46.666 -27.334 87.999 -38.001l196 -48c76 -18.667 137.333 -40.667 184 -66s81.334 -57 104.001 -95s34 -85 34 -141c0 -76.667 -18.333 -138.834 -55 -186.501s-93.5 -82.834 -170.5 -105.501s-177.167 -34 -300.5 -34
c-81.333 0 -150.5 2.33301 -207.5 7zM528.999 1248l170 380h212l-190 -380h-192z" />
    <glyph glyph-name="Scircumflex" unicode="&#x15c;" 
d="M978.5 600c52.333 -62.667 78.5 -140.669 78.5 -234.002c0 -128.667 -42 -225.167 -126 -289.5s-210.667 -96.5 -380 -96.5c-161.333 0 -302 26 -422 78l26 202c148 -64 285.333 -96 412 -96c92.667 0 161.834 16.333 207.501 49s68.5 82.334 68.5 149.001
c0 84.667 -43.333 146.667 -130 186l-246 112c-100 45.333 -175 99.333 -225 162s-75 138.667 -75 228c0 82 18 152.167 54 210.5s88.333 102.833 157 133.5s151.334 46 248.001 46h1c98 0 183.167 -19.167 255.5 -57.5s125.166 -92.166 158.499 -161.499l-168 -127
c-28 51.333 -63.5 91.166 -106.5 119.499s-89.5 42.5 -139.5 42.5c-78.667 0 -139.334 -16.667 -182.001 -50s-64 -82 -64 -146c0 -44.667 11.833 -81.667 35.5 -111s60.5 -55.666 110.5 -78.999l208 -98c110 -52 191.167 -109.333 243.5 -172zM951 1580h-222l-124 144
l-124 -144h-222l260 260h172z" />
    <glyph glyph-name="scircumflex" unicode="&#x15d;" 
d="M310.5 -13c-57 4.66699 -108.501 12.3359 -154.501 23.0029l24 192c136 -21.333 248.667 -32 338 -32c106.667 0 184.334 10.5 233.001 31.5s73 54.5 73 100.5c0 30.667 -8.16699 54 -24.5 70s-42.833 28.667 -79.5 38l-244 62c-68 17.333 -122.333 37.333 -163 60
s-71 51.5 -91 86.5s-30 78.833 -30 131.5c0 78 18.833 141.167 56.5 189.5s96.334 83.833 176.001 106.5s183.5 34 311.5 34c97.333 0 190.666 -6.66699 279.999 -20l-22 -184c-100.667 9.33301 -188.667 14 -264 14c-112 0 -193 -10.167 -243 -30.5s-75 -53.5 -75 -99.5
c0 -29.333 8.66699 -51.333 26 -66s46.666 -27.334 87.999 -38.001l196 -48c76 -18.667 137.333 -40.667 184 -66s81.334 -57 104.001 -95s34 -85 34 -141c0 -76.667 -18.333 -138.834 -55 -186.501s-93.5 -82.834 -170.5 -105.501s-177.167 -34 -300.5 -34
c-81.333 0 -150.5 2.33301 -207.5 7zM955.999 1248h-212l-114 235l-114 -235h-212l240 380h172z" />
    <glyph glyph-name="Scedilla" unicode="&#x15e;" 
d="M678 -13l-22.999 -87.002c114.667 -24 172 -79.667 172 -167c0 -142 -126 -213 -378 -213v150c125.333 0 188 24 188 72c0 22.667 -13.333 39.667 -40 51s-67.334 17 -122.001 17l60 170c-154.667 2 -290 28 -406 78l26 202c148 -64 285.333 -96 412 -96
c92.667 0 161.834 16.333 207.501 49s68.5 82.334 68.5 149.001c0 84.667 -43.333 146.667 -130 186l-246 112c-100 45.333 -175 99.333 -225 162s-75 138.667 -75 228c0 82 18 152.167 54 210.5s88.333 102.833 157 133.5s151.334 46 248.001 46h1
c98 0 183.167 -19.167 255.5 -57.5s125.166 -92.166 158.499 -161.499l-168 -127c-28 51.333 -63.5 91.166 -106.5 119.499s-89.5 42.5 -139.5 42.5c-78.667 0 -139.334 -16.667 -182.001 -50s-64 -82 -64 -146c0 -44.667 11.833 -81.667 35.5 -111
s60.5 -55.666 110.5 -78.999l208 -98c110 -52 191.167 -109.333 243.5 -172s78.5 -140.667 78.5 -234c0 -222.667 -126.333 -349 -379 -379z" />
    <glyph glyph-name="scedilla" unicode="&#x15f;" 
d="M956 85c-58.667 -51.333 -151.333 -83.667 -278 -97l-23 -88c114.667 -24 172 -79.667 172 -167c0 -142 -126 -213 -378 -213v150c125.333 0 188 24 188 72c0 22.667 -13.333 39.667 -40 51s-67.334 17 -122.001 17l60 170h-17c-81.333 0 -150.5 2.33301 -207.5 7
s-108.5 12.334 -154.5 23.001l24 192c136 -21.333 248.667 -32 338 -32c106.667 0 184.334 10.5 233.001 31.5s73 54.5 73 100.5c0 30.667 -8.16699 54 -24.5 70s-42.833 28.667 -79.5 38l-244 62c-68 17.333 -122.333 37.333 -163 60s-71 51.5 -91 86.5
s-30 78.833 -30 131.5c0 78 18.833 141.167 56.5 189.5s96.334 83.833 176.001 106.5s183.5 34 311.5 34c97.333 0 190.666 -6.66699 279.999 -20l-22 -184c-100.667 9.33301 -188.667 14 -264 14c-112 0 -193 -10.167 -243 -30.5s-75 -53.5 -75 -99.5
c0 -29.333 8.66699 -51.333 26 -66s46.666 -27.334 87.999 -38.001l196 -48c76 -18.667 137.333 -40.667 184 -66s81.334 -57 104.001 -95s34 -85 34 -141c0 -96 -29.333 -169.667 -88 -221z" />
    <glyph glyph-name="Scaron" unicode="&#x160;" 
d="M978.5 600c52.333 -62.667 78.5 -140.669 78.5 -234.002c0 -128.667 -42 -225.167 -126 -289.5s-210.667 -96.5 -380 -96.5c-161.333 0 -302 26 -422 78l26 202c148 -64 285.333 -96 412 -96c92.667 0 161.834 16.333 207.501 49s68.5 82.334 68.5 149.001
c0 84.667 -43.333 146.667 -130 186l-246 112c-100 45.333 -175 99.333 -225 162s-75 138.667 -75 228c0 82 18 152.167 54 210.5s88.333 102.833 157 133.5s151.334 46 248.001 46h1c98 0 183.167 -19.167 255.5 -57.5s125.166 -92.166 158.499 -161.499l-168 -127
c-28 51.333 -63.5 91.166 -106.5 119.499s-89.5 42.5 -139.5 42.5c-78.667 0 -139.334 -16.667 -182.001 -50s-64 -82 -64 -146c0 -44.667 11.833 -81.667 35.5 -111s60.5 -55.666 110.5 -78.999l208 -98c110 -52 191.167 -109.333 243.5 -172zM724 1840h222l-260 -260h-172
l-260 260h222l124 -144z" />
    <glyph glyph-name="scaron" unicode="&#x161;" 
d="M310.5 -13c-57 4.66699 -108.501 12.3359 -154.501 23.0029l24 192c136 -21.333 248.667 -32 338 -32c106.667 0 184.334 10.5 233.001 31.5s73 54.5 73 100.5c0 30.667 -8.16699 54 -24.5 70s-42.833 28.667 -79.5 38l-244 62c-68 17.333 -122.333 37.333 -163 60
s-71 51.5 -91 86.5s-30 78.833 -30 131.5c0 78 18.833 141.167 56.5 189.5s96.334 83.833 176.001 106.5s183.5 34 311.5 34c97.333 0 190.666 -6.66699 279.999 -20l-22 -184c-100.667 9.33301 -188.667 14 -264 14c-112 0 -193 -10.167 -243 -30.5s-75 -53.5 -75 -99.5
c0 -29.333 8.66699 -51.333 26 -66s46.666 -27.334 87.999 -38.001l196 -48c76 -18.667 137.333 -40.667 184 -66s81.334 -57 104.001 -95s34 -85 34 -141c0 -76.667 -18.333 -138.834 -55 -186.501s-93.5 -82.834 -170.5 -105.501s-177.167 -34 -300.5 -34
c-81.333 0 -150.5 2.33301 -207.5 7zM743.999 1628h212l-240 -380h-172l-240 380h212l114 -235z" />
    <glyph glyph-name="uni0162" unicode="&#x162;" 
d="M667 0l-26.999 -100c114.667 -24 172 -79.667 172 -167c0 -142 -126 -213 -378 -213v150c125.333 0 188 24 188 72c0 22.667 -13.333 39.667 -40 51s-67.334 17 -122.001 17l67 190h-27v1230h-420v190h1040v-190h-420v-1230h-33z" />
    <glyph glyph-name="uni0163" unicode="&#x163;" 
d="M872 -267c0 -142 -125.997 -212.998 -377.997 -212.998v150c125.333 0 188 24 188 72c0 22.667 -13.333 39.667 -40 51s-67.334 17 -122.001 17l67 191c-90.667 23.333 -156.834 67.166 -198.501 131.499s-62.5 153.5 -62.5 267.5v484h-266v176h266v320h212v-320h482
v-176h-482v-474c0 -84.667 20.667 -145.834 62 -183.501s108.666 -56.5 201.999 -56.5c30.667 0 63.5 1.66699 98.5 5s80.167 8.33301 135.5 15l24 -186c-94 -16 -186.667 -24 -278 -24c-14.667 0 -34.667 0.666992 -60 2l-22 -82c114.667 -24 172 -79.667 172 -167z" />
    <glyph glyph-name="Tcaron" unicode="&#x164;" 
d="M1120 1420v-190h-420v-1230h-200v1230h-420v190h1040zM724 1840h222l-260 -260h-172l-260 260h222l124 -144z" />
    <glyph glyph-name="tcaron" unicode="&#x165;" 
d="M944 1568l-90 -380h-172l50 380h212zM1060 4c-94 -16 -186.666 -23.998 -277.999 -23.998c-108 0 -195.333 14.667 -262 44s-115.667 74.666 -147 135.999s-47 141.333 -47 240v484h-266v176h266v320h212v-320h482v-176h-482v-474c0 -84.667 20.667 -145.834 62 -183.501
s108.666 -56.5 201.999 -56.5c30.667 0 63.5 1.66699 98.5 5s80.167 8.33301 135.5 15z" />
    <glyph glyph-name="Tbar" unicode="&#x166;" 
d="M1120 1230h-420v-488h308v-180h-308v-562h-200v562h-308v180h308v488h-420v190h1040v-190z" />
    <glyph glyph-name="tbar" unicode="&#x167;" 
d="M1060 4c-94 -16 -186.666 -23.998 -277.999 -23.998c-108 0 -195.333 14.667 -262 44s-115.667 74.666 -147 135.999s-47 141.333 -47 240v96h-266v176h266v212h-266v176h266v320h212v-320h482v-176h-482v-212h482v-176h-482v-86c0 -84.667 20.667 -145.834 62 -183.501
s108.666 -56.5 201.999 -56.5c30.667 0 63.5 1.66699 98.5 5s80.167 8.33301 135.5 15z" />
    <glyph glyph-name="Utilde" unicode="&#x168;" 
d="M140 456v964h200v-964c0 -96 21 -167.667 63 -215s107.667 -71 197 -71c86 0 150.833 24 194.5 72s65.5 119.333 65.5 214v964h200v-964c0 -158 -39.167 -276.833 -117.5 -356.5s-193.833 -119.5 -346.5 -119.5c-304 0 -456 158.667 -456 476zM425 1866
c25.333 0 51.832 -3.83203 79.499 -11.499s67.167 -20.167 118.5 -37.5l65 -24c29.333 -10.667 50.5 -17.834 63.5 -21.501s25.5 -5.5 37.5 -5.5c36 0 54 31.333 54 94v30h172v-50c0 -160 -66 -240 -198 -240c-21.333 0 -46.833 4.33301 -76.5 13
s-71.834 22.667 -126.501 42c-45.333 16 -79.166 27.5 -101.499 34.5s-42.166 10.5 -59.499 10.5c-49.333 0 -74 -34.667 -74 -104v-30h-174v50c0 166.667 73.333 250 220 250z" />
    <glyph glyph-name="utilde" unicode="&#x169;" 
d="M1158 170l-0.000976562 -170.001l-340 -10l-15 214h-19c-16 -72 -46.5 -127.333 -91.5 -166s-100.5 -58 -166.5 -58c-118 0 -209.167 33 -273.5 99s-96.5 159.667 -96.5 281v720h208v-720c0 -64 17.667 -113.333 53 -148s85 -52 149 -52
c78.667 0 137.334 25.833 176.001 77.5s58 135.834 58 252.501v590h212v-888zM434.999 1556c46 0 102.001 -16.334 168.001 -49.001c44 -21.333 74 -35.166 90 -41.499s31.333 -9.5 46 -9.5c36 0 54 31.333 54 94v60h172v-80c0 -160 -66 -240 -198 -240
c-22 0 -47.667 4.5 -77 13.5s-61.333 22.833 -96 41.5c-54.667 30 -98.334 45 -131.001 45c-49.333 0 -74 -34.667 -74 -104v-60h-174v80c0 166.667 73.333 250 220 250z" />
    <glyph glyph-name="Umacron" unicode="&#x16a;" 
d="M140 456v964h200v-964c0 -96 21 -167.667 63 -215s107.667 -71 197 -71c86 0 150.833 24 194.5 72s65.5 119.333 65.5 214v964h200v-964c0 -158 -39.167 -276.833 -117.5 -356.5s-193.833 -119.5 -346.5 -119.5c-304 0 -456 158.667 -456 476zM213 1768h774v-188h-774
v188z" />
    <glyph glyph-name="umacron" unicode="&#x16b;" 
d="M1158 170l-0.000976562 -170.001l-340 -10l-15 214h-19c-16 -72 -46.5 -127.333 -91.5 -166s-100.5 -58 -166.5 -58c-118 0 -209.167 33 -273.5 99s-96.5 159.667 -96.5 281v720h208v-720c0 -64 17.667 -113.333 53 -148s85 -52 149 -52
c78.667 0 137.334 25.833 176.001 77.5s58 135.834 58 252.501v590h212v-888zM159.999 1436h860v-188h-860v188z" />
    <glyph glyph-name="Ubreve" unicode="&#x16c;" 
d="M140 456v964h200v-964c0 -96 21 -167.667 63 -215s107.667 -71 197 -71c86 0 150.833 24 194.5 72s65.5 119.333 65.5 214v964h200v-964c0 -158 -39.167 -276.833 -117.5 -356.5s-193.833 -119.5 -346.5 -119.5c-304 0 -456 158.667 -456 476zM824.5 1648
c-53 -45.333 -127.831 -68 -224.498 -68s-171.5 22.667 -224.5 68s-79.5 109.333 -79.5 192h175c0 -39.333 11.167 -69.833 33.5 -91.5s54.166 -32.5 95.499 -32.5s73.166 10.833 95.499 32.5s33.5 52.167 33.5 91.5h175c0 -82.667 -26.5 -146.667 -79.5 -192z" />
    <glyph glyph-name="ubreve" unicode="&#x16d;" 
d="M1158 170l-0.000976562 -170.001l-340 -10l-15 214h-19c-16 -72 -46.5 -127.333 -91.5 -166s-100.5 -58 -166.5 -58c-118 0 -209.167 33 -273.5 99s-96.5 159.667 -96.5 281v720h208v-720c0 -64 17.667 -113.333 53 -148s85 -52 149 -52
c78.667 0 137.334 25.833 176.001 77.5s58 135.834 58 252.501v590h212v-888zM372.999 1317c-51.333 52.667 -77.002 127 -77.002 223v53h175v-53c0 -53.333 10.333 -94.333 31 -123s50 -43 88 -43s67.333 14.333 88 43s31 69.667 31 123v53h175v-53
c0 -96 -25.667 -170.333 -77 -223s-123.666 -79 -216.999 -79s-165.666 26.333 -216.999 79z" />
    <glyph glyph-name="Uring" unicode="&#x16e;" 
d="M140 456v964h200v-964c0 -96 21 -167.667 63 -215s107.667 -71 197 -71c86 0 150.833 24 194.5 72s65.5 119.333 65.5 214v964h200v-964c0 -158 -39.167 -276.833 -117.5 -356.5s-193.833 -119.5 -346.5 -119.5c-304 0 -456 158.667 -456 476zM424.5 1542
c-41.667 36 -62.5 86.667 -62.5 152s20.833 116 62.5 152s100.167 54 175.5 54s133.833 -18 175.5 -54s62.5 -86.667 62.5 -152s-20.833 -116 -62.5 -152s-100.167 -54 -175.5 -54s-133.833 18 -175.5 54zM671 1627c16.667 15.333 25 37.666 25 66.999
s-8.33301 51.833 -25 67.5s-40.334 23.5 -71.001 23.5s-54.334 -7.83301 -71.001 -23.5s-25 -38.167 -25 -67.5s8.33301 -51.666 25 -66.999s40.334 -23 71.001 -23s54.334 7.66699 71.001 23z" />
    <glyph glyph-name="uring" unicode="&#x16f;" 
d="M1158 170l-0.000976562 -170.001l-340 -10l-15 214h-19c-16 -72 -46.5 -127.333 -91.5 -166s-100.5 -58 -166.5 -58c-118 0 -209.167 33 -273.5 99s-96.5 159.667 -96.5 281v720h208v-720c0 -64 17.667 -113.333 53 -148s85 -52 149 -52
c78.667 0 137.334 25.833 176.001 77.5s58 135.834 58 252.501v590h212v-888zM414.499 1254.5c-41.667 37.667 -62.5 90.834 -62.5 159.501s20.833 121.834 62.5 159.501s100.167 56.5 175.5 56.5s133.833 -18.833 175.5 -56.5s62.5 -90.834 62.5 -159.501
s-20.833 -121.834 -62.5 -159.501s-100.167 -56.5 -175.5 -56.5s-133.833 18.833 -175.5 56.5zM660.999 1340c16.667 17.333 25 42 25 74s-8.33301 56.833 -25 74.5s-40.334 26.5 -71.001 26.5s-54.334 -8.83301 -71.001 -26.5s-25 -42.5 -25 -74.5s8.33301 -56.667 25 -74
s40.334 -26 71.001 -26s54.334 8.66699 71.001 26z" />
    <glyph glyph-name="Uhungarumlaut" unicode="&#x170;" 
d="M140 456v964h200v-964c0 -96 21 -167.667 63 -215s107.667 -71 197 -71c86 0 150.833 24 194.5 72s65.5 119.333 65.5 214v964h200v-964c0 -158 -39.167 -276.833 -117.5 -356.5s-193.833 -119.5 -346.5 -119.5c-304 0 -456 158.667 -456 476zM249 1580l160 250h282
l-200 -250h-242zM659 1580l160 250h282l-200 -250h-242z" />
    <glyph glyph-name="uhungarumlaut" unicode="&#x171;" 
d="M1158 170l-0.000976562 -170.001l-340 -10l-15 214h-19c-16 -72 -46.5 -127.333 -91.5 -166s-100.5 -58 -166.5 -58c-118 0 -209.167 33 -273.5 99s-96.5 159.667 -96.5 281v720h208v-720c0 -64 17.667 -113.333 53 -148s85 -52 149 -52
c78.667 0 137.334 25.833 176.001 77.5s58 135.834 58 252.501v590h212v-888zM278.999 1248l150 380h222l-170 -380h-202zM658.999 1248l150 380h222l-170 -380h-202z" />
    <glyph glyph-name="Uogonek" unicode="&#x172;" 
d="M1060 1420l0.000976562 -963.998c0 -250 -96.667 -401.667 -290 -455c-40 -12.667 -73.167 -25.334 -99.5 -38.001s-48.333 -29.667 -66 -51s-26.5 -48 -26.5 -80c0 -22.667 9 -43 27 -61s47.667 -27 89 -27c24.667 0 52 3.66699 82 11l-18 -170c-34 -6 -64 -9 -90 -9
c-76.667 0 -135.834 16.667 -177.501 50s-62.5 80.666 -62.5 141.999c0 48.667 11.667 89.834 35 123.501s56.333 56.5 99 68.5v21c-281.333 11.333 -422 169.666 -422 474.999v964h200v-964c0 -96 21 -167.667 63 -215s107.667 -71 197 -71c86 0 150.833 24 194.5 72
s65.5 119.333 65.5 214v964h200z" />
    <glyph glyph-name="uogonek" unicode="&#x173;" 
d="M984 -50c-34 -28.667 -51 -68.001 -51 -118.001c0 -28 10.167 -49.667 30.5 -65s48.833 -23 85.5 -23c28.667 0 62.667 5.33301 102 16v-170c-45.333 -9.33301 -88 -14 -128 -14c-76.667 0 -135.834 15.833 -177.501 47.5s-62.5 76.5 -62.5 134.5
c0 51.333 11.667 94.5 35 129.5s56.333 59.167 99 72.5v33l-99 -3l-15 214h-19c-16 -72 -46.5 -127.333 -91.5 -166s-100.5 -58 -166.5 -58c-118 0 -209.167 33 -273.5 99s-96.5 159.667 -96.5 281v720h208v-720c0 -64 17.667 -113.333 53 -148s85 -52 149 -52
c78.667 0 137.334 25.833 176.001 77.5s58 135.834 58 252.501v590h212v-888l146 -22v-170l-30 -1c-62 -4 -110 -20.333 -144 -49z" />
    <glyph glyph-name="Wcircumflex" unicode="&#x174;" 
d="M970 1420h210l-160 -1420h-309l-105 862h-12l-105 -862h-309l-160 1420h210l120 -1260h20l131 900h200l129 -900h20zM951 1580h-222l-124 144l-124 -144h-222l260 260h172z" />
    <glyph glyph-name="wcircumflex" unicode="&#x175;" 
d="M920 1060h210l-150 -1060h-280l-104 842h-12l-104 -842h-290l-120 1060h200l80 -900h18l130 900h184l130 -900h18zM916 1248h-212l-114 235l-114 -235h-212l240 380h172z" />
    <glyph glyph-name="Ycircumflex" unicode="&#x176;" 
d="M1176 1420l-473 -913v-507h-200v499l-477 921h220l346 -710h18l346 710h220zM951 1580h-222l-124 144l-124 -144h-222l260 260h172z" />
    <glyph glyph-name="ycircumflex" unicode="&#x177;" 
d="M1110 1060l-306.001 -966.001c-40 -127.333 -84.667 -229.5 -134 -306.5s-107.666 -135 -174.999 -174s-149 -63.5 -245 -73.5l-180 -20l-10 190l166 20c86 10.667 156.5 36.834 211.5 78.501s101.167 105.5 138.5 191.5h-114l-412 1060h220l336 -900h22v-9l262 909h220z
M935.999 1248h-212l-114 235l-114 -235h-212l240 380h172z" />
    <glyph glyph-name="Ydieresis" unicode="&#x178;" 
d="M1176 1420l-473 -913v-507h-200v499l-477 921h220l346 -710h18l346 710h220zM321 1598c-20.667 12 -37 28.333 -49 49s-18 43 -18 67c0 24.667 6 47.167 18 67.5s28.333 36.5 49 48.5s43 18 67 18s46.333 -6 67 -18s37 -28.167 49 -48.5s18 -42.833 18 -67.5
c0 -24 -6 -46.333 -18 -67s-28.333 -37 -49 -49s-43 -18 -67 -18s-46.333 6 -67 18zM741 1598c-20.667 12 -37 28.333 -49 49s-18 43 -18 67c0 24.667 6 47.167 18 67.5s28.333 36.5 49 48.5s43 18 67 18s46.333 -6 67 -18s37 -28.167 49 -48.5s18 -42.833 18 -67.5
c0 -24 -6 -46.333 -18 -67s-28.333 -37 -49 -49s-43 -18 -67 -18s-46.333 6 -67 18z" />
    <glyph glyph-name="Zacute" unicode="&#x179;" 
d="M374 176h696v-176h-920v176l656 1054h-656v190h900v-190zM489 1580l220 250h282l-260 -250h-242z" />
    <glyph glyph-name="zacute" unicode="&#x17a;" 
d="M415 176h621v-176h-876v176l617 708h-617v176h856v-176zM499 1248l170 380h212l-190 -380h-192z" />
    <glyph glyph-name="Zdotaccent" unicode="&#x17b;" 
d="M374 176h696v-176h-920v176l656 1054h-656v190h900v-190zM533 1598c-20.667 12 -37 28.333 -49 49s-18 43 -18 67c0 24.667 6 47.167 18 67.5s28.333 36.5 49 48.5s43 18 67 18s46.333 -6 67 -18s37 -28.167 49 -48.5s18 -42.833 18 -67.5c0 -24 -6 -46.333 -18 -67
s-28.333 -37 -49 -49s-43 -18 -67 -18s-46.333 6 -67 18z" />
    <glyph glyph-name="zdotaccent" unicode="&#x17c;" 
d="M415 176h621v-176h-876v176l617 708h-617v176h856v-176zM531 1256c-20.667 12 -37 28.333 -49 49s-18 43 -18 67c0 24.667 6 47.167 18 67.5s28.333 36.5 49 48.5s43 18 67 18s46.333 -6 67 -18s37 -28.167 49 -48.5s18 -42.833 18 -67.5c0 -24 -6 -46.333 -18 -67
s-28.333 -37 -49 -49s-43 -18 -67 -18s-46.333 6 -67 18z" />
    <glyph glyph-name="Zcaron" unicode="&#x17d;" 
d="M374 176h696v-176h-920v176l656 1054h-656v190h900v-190zM724 1840h222l-260 -260h-172l-260 260h222l124 -144z" />
    <glyph glyph-name="zcaron" unicode="&#x17e;" 
d="M415 176h621v-176h-876v176l617 708h-617v176h856v-176zM714 1628h212l-240 -380h-172l-240 380h212l114 -235z" />
    <glyph glyph-name="uni018F" unicode="&#x18f;" 
d="M967.5 1255c104.333 -123.333 156.502 -308.333 156.502 -555c0 -480 -174.667 -720 -524 -720s-524 233.333 -524 700c0 46 1.33301 85.333 4 118h830c-22.667 305.333 -159.334 458 -410.001 458c-108.667 0 -210 -13 -304 -39l-28 177c104 30.667 214.667 46 332 46
c207.333 0 363.166 -61.667 467.499 -185zM911.002 608h-623.001c14 -296 118 -444 312 -444c190.667 0 294.334 148 311.001 444z" />
    <glyph glyph-name="florin" unicode="&#x192;" 
d="M614 900l0.00195312 -79.999h434v-138h-434v-588c0 -126 -15.833 -227.833 -47.5 -305.5s-80.834 -136.667 -147.501 -177s-154.334 -66.833 -263.001 -79.5l-78 -9l-10 188l108 15c79.333 11.333 136.833 43.166 172.5 95.499s53.5 132.5 53.5 240.5v620h-334v138h334
v70c0 184 41.667 321.667 125 413s209 137 377 137c76 0 149.333 -6.66699 220 -20l-22 -184c-78.667 9.33301 -146.667 14 -204 14c-189.333 0 -284 -116.667 -284 -350z" />
    <glyph glyph-name="uni019D" unicode="&#x19d;" 
d="M1052 1420v-1420h-252l-440 1050h-20v-866h1v-280c0 -110 -28.667 -197.5 -86 -262.5s-138.333 -101.5 -243 -109.5l-130 -12l-10 168l120 18c104 12 156 80.667 156 206v1508h252l440 -1098h20v1098h192z" />
    <glyph glyph-name="Gcaron" unicode="&#x1e6;" 
d="M1120 40c-44.667 -14.667 -101 -28.333 -169 -41s-141 -19 -219 -19c-424 0 -636 244 -636 732c0 153.333 24.667 284.5 74 393.5s121 192 215 249s207 85.5 339 85.5c99.333 0 186.333 -15.5 261 -46.5s129.667 -74.833 165 -131.5l-149 -148
c-31.333 45.333 -70.166 80.333 -116.499 105s-95.833 37 -148.5 37c-89.333 0 -165.833 -20.833 -229.5 -62.5s-112.334 -102.5 -146.001 -182.5s-50.5 -176.333 -50.5 -289c0 -186 37.333 -325.5 112 -418.5s186 -139.5 334 -139.5c55.333 0 113.333 6.66699 174 20v336
h-290v190h480v-670zM829 1840h222l-260 -260h-172l-260 260h222l124 -144z" />
    <glyph glyph-name="gcaron" unicode="&#x1e7;" 
d="M1032 1060l0.000976562 -966.001c0 -126.667 -18.833 -230.334 -56.5 -311.001s-96.167 -141.5 -175.5 -182.5s-182 -63.833 -308 -68.5l-310 -10l-10 188l340 16c106 4.66699 183.5 34.334 232.5 89.001s73.5 137 73.5 247v102h-18c-6.66699 -60 -35 -105.667 -85 -137
s-115.667 -47 -197 -47c-89.333 0 -165.5 20.833 -228.5 62.5s-111 102.834 -144 183.501s-49.5 178.667 -49.5 294c0 118 16.5 219 49.5 303s81.333 147.833 145 191.5s140.167 65.5 229.5 65.5c84.667 0 150.167 -17.5 196.5 -52.5s74.166 -88.167 83.499 -159.5h23
l17 192h192zM820.001 339.999l0.000976562 256.001c0 202.667 -90 304 -270 304c-78 0 -138.167 -33 -180.5 -99s-63.5 -159.667 -63.5 -281c0 -118.667 20.667 -208.334 62 -269.001s102.666 -91 183.999 -91c178.667 0 268 60 268 180zM694.002 1628h212l-240 -380h-172
l-240 380h212l114 -235z" />
    <glyph glyph-name="uni01EA" unicode="&#x1ea;" 
d="M658 -37.5c-26 -11 -49.166 -27.168 -69.499 -48.501s-30.5 -48.666 -30.5 -81.999c0 -22.667 9 -43 27 -61s47.667 -27 89 -27c24.667 0 52 3.66699 82 11l-18 -170c-34 -6 -64 -9 -90 -9c-76.667 0 -135.834 16.667 -177.501 50s-62.5 80.666 -62.5 141.999
c0 48.667 11.667 89.834 35 123.501s56.333 56.5 99 68.5v22c-310.667 26 -466 265.333 -466 718c0 493.333 174.667 740 524 740s524 -246.667 524 -740c0 -392 -116.333 -624 -349 -696c-52 -16.667 -91 -30.5 -117 -41.5zM600.001 163.999c209.333 0 314 178.667 314 536
c0 370.667 -104.667 556 -314 556s-314 -185.333 -314 -556c0 -357.333 104.667 -536 314 -536z" />
    <glyph glyph-name="uni01EB" unicode="&#x1eb;" 
d="M991.5 196c-48.333 -88.667 -117.832 -150.332 -208.499 -184.999l-3 -1c-24 -8 -42.333 -13.333 -55 -16c-51.333 -16.667 -91.833 -37.334 -121.5 -62.001s-44.5 -58 -44.5 -100c0 -22.667 9 -43 27 -61s47.667 -27 89 -27c24.667 0 52 3.66699 82 11l-18 -170
c-34 -6 -64 -9 -90 -9c-76.667 0 -135.834 16.667 -177.501 50s-62.5 80.666 -62.5 141.999c0 48.667 11.667 89.834 35 123.501s56.333 56.5 99 68.5v23c-86 8 -159.5 34.5 -220.5 79.5s-107.333 107 -139 186s-47.5 172.833 -47.5 281.5c0 116 18.167 215.167 54.5 297.5
s89.333 145 159 188s153.167 64.5 250.5 64.5s180.833 -21.5 250.5 -64.5s122.667 -105.667 159 -188s54.5 -181.5 54.5 -297.5c0 -134 -24.167 -245.333 -72.5 -334zM780.501 263.502c42.333 62.333 63.5 151.166 63.5 266.499s-21.167 204.166 -63.5 266.499
s-102.5 93.5 -180.5 93.5s-138.167 -31.167 -180.5 -93.5s-63.5 -151.166 -63.5 -266.499s21.167 -204.166 63.5 -266.499s102.5 -93.5 180.5 -93.5s138.167 31.167 180.5 93.5z" />
    <glyph glyph-name="Aringacute" unicode="&#x1fa;" 
d="M424.5 1542c-41.667 36 -62.499 86.666 -62.499 151.999c0 58.667 17 105.667 51 141s82.333 56.333 145 63l151 172h282l-225 -216c23.333 -17.333 41.166 -39.666 53.499 -66.999s18.5 -58.333 18.5 -93c0 -65.333 -20.833 -116 -62.5 -152s-100.167 -54 -175.5 -54
s-133.833 18 -175.5 54zM671.001 1627c16.667 15.333 25 37.666 25 66.999s-8.33301 51.833 -25 67.5s-40.334 23.5 -71.001 23.5s-54.334 -7.83301 -71.001 -23.5s-25 -38.167 -25 -67.5s8.33301 -51.666 25 -66.999s40.334 -23 71.001 -23s54.334 7.66699 71.001 23z
M942.001 -0.000976562l-93 346h-504l-93 -346h-210l410 1420h290l410 -1420h-210zM396.001 535.999h402l-192 712h-18z" />
    <glyph glyph-name="aringacute" unicode="&#x1fb;" 
d="M404.5 1254.5c-41.667 37.667 -62.5 90.835 -62.5 159.502c0 59.333 15.667 107.166 47 143.499s76 59.166 134 68.499l126 282h212l-152 -304c35.333 -16.667 62.333 -41.167 81 -73.5s28 -71.166 28 -116.499c0 -68.667 -20.833 -121.834 -62.5 -159.501
s-100.167 -56.5 -175.5 -56.5s-133.833 18.833 -175.5 56.5zM651 1340c16.667 17.333 25 42 25 74s-8.33301 56.833 -25 74.5s-40.334 26.5 -71.001 26.5s-54.334 -8.83301 -71.001 -26.5s-25 -42.5 -25 -74.5s8.33301 -56.667 25 -74s40.334 -26 71.001 -26
s54.334 8.66699 71.001 26zM1158 170.001v-170.001l-340 -10l-10 234h-21c-7.33301 -80 -41.166 -140.667 -101.499 -182s-140.833 -62 -241.5 -62c-110.667 0 -196.334 26.5 -257.001 79.5s-91 128.5 -91 226.5c0 112 40.833 198 122.5 258s197.5 90 347.5 90
c81.333 0 151.333 -8.33301 210 -25v57c0 69.333 -24.5 120.833 -73.5 154.5s-123.167 51.834 -222.5 54.501l-254 7l20 188l214 -3c345.333 -4.66699 518 -149 518 -433v-442zM639.5 183c45 22 79 50.666 102 85.999s34.5 72.333 34.5 111v64
c-33.333 8.66699 -66.5 14.167 -99.5 16.5s-74.5 3.5 -124.5 3.5c-84 0 -147.667 -13.333 -191 -40s-65 -66 -65 -118c0 -51.333 15.333 -90.166 46 -116.499s76 -39.5 136 -39.5c62.667 0 116.5 11 161.5 33z" />
    <glyph glyph-name="AEacute" unicode="&#x1fc;" 
d="M1100 1240h-320v-439h260v-180h-260v-441h320v-180h-500v246h-299l-69 -246h-190l400 1420h658v-180zM600 1248h-17l-235 -837h252v837zM529 1580l220 250h282l-260 -250h-242z" />
    <glyph glyph-name="aeacute" unicode="&#x1fd;" 
d="M1169 436l-459 0.000976562c13.333 -90 43.833 -159.167 91.5 -207.5s109.5 -72.5 185.5 -72.5c38 0 78 4.33301 120 13l26 -171c-58 -12 -114.667 -18 -170 -18c-82 0 -152.667 20 -212 60s-105.333 98 -138 174h-25c-14.667 -76.667 -45.167 -134.834 -91.5 -174.501
s-112.166 -59.5 -197.499 -59.5c-88.667 0 -157.167 26.667 -205.5 80s-72.5 128.666 -72.5 225.999c0 110.667 32.333 196.334 97 257.001s155.667 91 273 91c47.333 0 90.666 -7 129.999 -21v53c0 66 -26 118.333 -78 157s-124.667 59.334 -218 62.001l-94 3l20 182l94 -3
c86 -2.66699 160.167 -19.834 222.5 -51.501s110.833 -76.5 145.5 -134.5c26 64.667 60.833 114 104.5 148s94.5 51 152.5 51c64.667 0 119.667 -19.833 165 -59.5s80 -97.5 104 -173.5s36 -167.667 36 -275c0 -50.667 -2 -96 -6 -136zM993 588.001
c0 107.333 -11.499 185.168 -34.499 233.501s-60.167 72.5 -111.5 72.5c-47.333 0 -82.333 -24.333 -105 -73s-35.334 -126.334 -38.001 -233.001h289zM477.001 210.503c29.333 40.333 44.001 96.8311 44.001 169.498v74c-36 13.333 -80.667 20 -134 20
c-56 0 -99.333 -14.667 -130 -44s-46 -70.666 -46 -123.999c0 -49.333 12.333 -87.666 37 -114.999s59.667 -41 105 -41c53.333 0 94.666 20.167 123.999 60.5zM499.002 1248l170 380h212l-190 -380h-192z" />
    <glyph glyph-name="Oslashacute" unicode="&#x1fe;" 
d="M1124 700c0 -480 -174.667 -720 -524 -720c-114.667 0 -211 26 -289 78l-110 -192l-135 75l133 231c-82 120 -123 296 -123 528c0 493.333 174.667 740 524 740c112.667 0 206.667 -25.333 282 -76l97 168l135 -75l-118 -206c85.333 -123.333 128 -307 128 -551zM324 391
l458.001 797c-48.667 45.333 -109.334 68 -182.001 68c-209.333 0 -314 -185.333 -314 -556c0 -124 12.667 -227 38 -309zM914.001 700c0 137.333 -14.333 248.667 -43 334l-458 -799c48.667 -47.333 111 -71 187 -71c209.333 0 314 178.667 314 536zM489.001 1580l220 250
h282l-260 -250h-242z" />
    <glyph glyph-name="oslashacute" unicode="&#x1ff;" 
d="M1026 784c25.333 -73.333 38 -158 38 -254c0 -116 -18.167 -215.167 -54.5 -297.5s-89.333 -145 -159 -188s-153.167 -64.5 -250.5 -64.5c-78 0 -148.333 14.333 -211 43l-88 -157l-105 75l87 156c-48 46.667 -84.5 106.5 -109.5 179.5s-37.5 157.5 -37.5 253.5
c0 116 18.167 215.167 54.5 297.5s89.333 145 159 188s153.167 64.5 250.5 64.5c77.333 0 146.333 -13.667 207 -41l89 159l115 -65l-95 -169c48 -46.667 84.667 -106.667 110 -180zM397 303l312 560c-30.667 18 -67 27 -109 27c-78 0 -138.167 -31.167 -180.5 -93.5
s-63.5 -151.166 -63.5 -266.499c0 -92.667 13.667 -168.334 41 -227.001zM780.5 263.5c42.333 62.333 63.5 151.167 63.5 266.5c0 92.667 -14 169 -42 229l-315 -560c33.333 -19.333 71 -29 113 -29c78 0 138.167 31.167 180.5 93.5zM499 1248l170 380h212l-190 -380h-192z
" />
    <glyph glyph-name="uni0218" unicode="&#x218;" 
d="M978.5 600c52.333 -62.667 78.5 -140.669 78.5 -234.002c0 -128.667 -42 -225.167 -126 -289.5s-210.667 -96.5 -380 -96.5c-161.333 0 -302 26 -422 78l26 202c148 -64 285.333 -96 412 -96c92.667 0 161.834 16.333 207.501 49s68.5 82.334 68.5 149.001
c0 84.667 -43.333 146.667 -130 186l-246 112c-100 45.333 -175 99.333 -225 162s-75 138.667 -75 228c0 82 18 152.167 54 210.5s88.333 102.833 157 133.5s151.334 46 248.001 46h1c98 0 183.167 -19.167 255.5 -57.5s125.166 -92.166 158.499 -161.499l-168 -127
c-28 51.333 -63.5 91.166 -106.5 119.499s-89.5 42.5 -139.5 42.5c-78.667 0 -139.334 -16.667 -182.001 -50s-64 -82 -64 -146c0 -44.667 11.833 -81.667 35.5 -111s60.5 -55.666 110.5 -78.999l208 -98c110 -52 191.167 -109.333 243.5 -172zM502 -140.002h222l-117 -340
h-182z" />
    <glyph glyph-name="uni0219" unicode="&#x219;" 
d="M310.5 -13c-57 4.66699 -108.501 12.3359 -154.501 23.0029l24 192c136 -21.333 248.667 -32 338 -32c106.667 0 184.334 10.5 233.001 31.5s73 54.5 73 100.5c0 30.667 -8.16699 54 -24.5 70s-42.833 28.667 -79.5 38l-244 62c-68 17.333 -122.333 37.333 -163 60
s-71 51.5 -91 86.5s-30 78.833 -30 131.5c0 78 18.833 141.167 56.5 189.5s96.334 83.833 176.001 106.5s183.5 34 311.5 34c97.333 0 190.666 -6.66699 279.999 -20l-22 -184c-100.667 9.33301 -188.667 14 -264 14c-112 0 -193 -10.167 -243 -30.5s-75 -53.5 -75 -99.5
c0 -29.333 8.66699 -51.333 26 -66s46.666 -27.334 87.999 -38.001l196 -48c76 -18.667 137.333 -40.667 184 -66s81.334 -57 104.001 -95s34 -85 34 -141c0 -76.667 -18.333 -138.834 -55 -186.501s-93.5 -82.834 -170.5 -105.501s-177.167 -34 -300.5 -34
c-81.333 0 -150.5 2.33301 -207.5 7zM501.999 -139.998h222l-117 -340h-182z" />
    <glyph glyph-name="uni021A" unicode="&#x21a;" 
d="M1120 1420v-190h-420v-1230h-200v1230h-420v190h1040zM487 -140h222l-117 -340h-182z" />
    <glyph glyph-name="uni021B" unicode="&#x21b;" 
d="M1060 4c-94 -16 -186.666 -23.998 -277.999 -23.998c-108 0 -195.333 14.667 -262 44s-115.667 74.666 -147 135.999s-47 141.333 -47 240v484h-266v176h266v320h212v-320h482v-176h-482v-474c0 -84.667 20.667 -145.834 62 -183.501s108.666 -56.5 201.999 -56.5
c30.667 0 63.5 1.66699 98.5 5s80.167 8.33301 135.5 15zM547.001 -139.998h222l-117 -340h-182z" />
    <glyph glyph-name="uni0232" unicode="&#x232;" 
d="M1176 1420l-473 -913v-507h-200v499l-477 921h220l346 -710h18l346 710h220zM213 1768h774v-188h-774v188z" />
    <glyph glyph-name="uni0233" unicode="&#x233;" 
d="M1110 1060l-306.001 -966.001c-40 -127.333 -84.667 -229.5 -134 -306.5s-107.666 -135 -174.999 -174s-149 -63.5 -245 -73.5l-180 -20l-10 190l166 20c86 10.667 156.5 36.834 211.5 78.501s101.167 105.5 138.5 191.5h-114l-412 1060h220l336 -900h22v-9l262 909h220z
M179.999 1436h860v-188h-860v188z" />
    <glyph glyph-name="uni0237" unicode="&#x237;" 
d="M888 94c0 -126 -18.668 -228.333 -56.001 -307s-95.166 -138.334 -173.499 -179.001s-181.166 -66 -308.499 -76l-170 -12l-10 188l200 18c107.333 10 185.166 41.333 233.499 94s72.5 133.334 72.5 242.001v822h-412v176h624v-966z" />
    <glyph glyph-name="uni0259" unicode="&#x259;" 
d="M805.5 1016c84.333 -42.667 148.502 -105.167 192.502 -187.5s66 -182.5 66 -300.5c0 -114.667 -18.667 -213 -56 -295s-91.833 -144.667 -163.5 -188s-157.834 -65 -258.501 -65c-144 0 -255 43.667 -333 131s-117 213 -117 377c0 48.667 2 94 6 136h716
c-18.667 88 -60.667 155 -126 201s-151.333 69 -258 69c-80.667 0 -167.334 -12.667 -260.001 -38l-26 176c98.667 32 202 48 310 48c120.667 0 223.167 -21.333 307.5 -64zM780.002 243c48.667 51.333 77.333 124.333 86 219h-538c0 -94.667 22.5 -167.667 67.5 -219
s107.833 -77 188.5 -77c82 0 147.333 25.667 196 77z" />
    <glyph glyph-name="uni0272" unicode="&#x272;" 
d="M940 978c61.333 -68 92.001 -164.004 92.001 -288.004v-690h-212v690c0 66.667 -16.667 118.334 -50 155.001s-80 55 -140 55c-166.667 0 -250 -101.333 -250 -304v-502c0 -126 -16.167 -227.667 -48.5 -305s-82.5 -136.166 -150.5 -176.499
s-157.667 -67.166 -269 -80.499l-100 -12l-10 188l130 18c56 8 101.167 24.5 135.5 49.5s59.666 60.833 75.999 107.5s24.5 106.334 24.5 179.001v998h192l17 -192h23c6 71.333 32 124.5 78 159.5s113.333 52.5 202 52.5c112 0 198.667 -34 260 -102z" />
    <glyph glyph-name="circumflex" unicode="&#x2c6;" 
d="M926 1248h-212l-114 235l-114 -235h-212l240 380h172z" />
    <glyph glyph-name="caron" unicode="&#x2c7;" 
d="M714 1628h212l-240 -380h-172l-240 380h212l114 -235z" />
    <glyph glyph-name="breve" unicode="&#x2d8;" 
d="M383 1317c-51.333 52.667 -77.002 127 -77.002 223v53h175v-53c0 -53.333 10.333 -94.333 31 -123s50 -43 88 -43s67.333 14.333 88 43s31 69.667 31 123v53h175v-53c0 -96 -25.667 -170.333 -77 -223s-123.666 -79 -216.999 -79s-165.666 26.333 -216.999 79z" />
    <glyph glyph-name="dotaccent" unicode="&#x2d9;" 
d="M533 1256c-20.667 12 -37 28.333 -49 49s-18 43 -18 67c0 24.667 6 47.167 18 67.5s28.333 36.5 49 48.5s43 18 67 18s46.333 -6 67 -18s37 -28.167 49 -48.5s18 -42.833 18 -67.5c0 -24 -6 -46.333 -18 -67s-28.333 -37 -49 -49s-43 -18 -67 -18s-46.333 6 -67 18z" />
    <glyph glyph-name="ring" unicode="&#x2da;" 
d="M424.5 1254.5c-41.667 37.667 -62.5 90.834 -62.5 159.501s20.833 121.834 62.5 159.501s100.167 56.5 175.5 56.5s133.833 -18.833 175.5 -56.5s62.5 -90.834 62.5 -159.501s-20.833 -121.834 -62.5 -159.501s-100.167 -56.5 -175.5 -56.5s-133.833 18.833 -175.5 56.5z
M671 1340c16.667 17.333 25 42 25 74s-8.33301 56.833 -25 74.5s-40.334 26.5 -71.001 26.5s-54.334 -8.83301 -71.001 -26.5s-25 -42.5 -25 -74.5s8.33301 -56.667 25 -74s40.334 -26 71.001 -26s54.334 8.66699 71.001 26z" />
    <glyph glyph-name="ogonek" unicode="&#x2db;" 
d="M620.5 -44c-39 -29.333 -58.498 -70.667 -58.498 -124c0 -28 10.167 -49.667 30.5 -65s48.833 -23 85.5 -23c23.333 0 50.666 3.66699 81.999 11l-18 -170c-30 -6 -60 -9 -90 -9c-76.667 0 -135.834 16.667 -177.501 50s-62.5 80.666 -62.5 141.999
c0 48.667 11.667 89.834 35 123.501s56.333 56.5 99 68.5v70l240 2v-32c-71.333 -0 -126.5 -14.667 -165.5 -44z" />
    <glyph glyph-name="tilde" unicode="&#x2dc;" 
d="M445 1556c46 0 102.001 -16.334 168.001 -49.001c44 -21.333 74 -35.166 90 -41.499s31.333 -9.5 46 -9.5c36 0 54 31.333 54 94v60h172v-80c0 -160 -66 -240 -198 -240c-22 0 -47.667 4.5 -77 13.5s-61.333 22.833 -96 41.5c-54.667 30 -98.334 45 -131.001 45
c-49.333 0 -74 -34.667 -74 -104v-60h-174v80c0 166.667 73.333 250 220 250z" />
    <glyph glyph-name="hungarumlaut" unicode="&#x2dd;" 
d="M219 1248l150 380h222l-170 -380h-202zM599 1248l150 380h222l-170 -380h-202z" />
    <glyph glyph-name="gravecomb" unicode="&#x300;" horiz-adv-x="0" 
d="M-911 1628h212l170 -380h-192z" />
    <glyph glyph-name="acutecomb" unicode="&#x301;" horiz-adv-x="0" 
d="M-731 1248l170 380h212l-190 -380h-192z" />
    <glyph glyph-name="uni0302" unicode="&#x302;" horiz-adv-x="0" 
d="M-274 1248h-212l-114 235l-114 -235h-212l240 380h172z" />
    <glyph glyph-name="tildecomb" unicode="&#x303;" horiz-adv-x="0" 
d="M-755 1556c46 0 102.001 -16.334 168.001 -49.001c44 -21.333 74 -35.166 90 -41.499s31.333 -9.5 46 -9.5c36 0 54 31.333 54 94v60h172v-80c0 -160 -66 -240 -198 -240c-22 0 -47.667 4.5 -77 13.5s-61.333 22.833 -96 41.5c-54.667 30 -98.334 45 -131.001 45
c-49.333 0 -74 -34.667 -74 -104v-60h-174v80c0 166.667 73.333 250 220 250z" />
    <glyph glyph-name="uni0304" unicode="&#x304;" horiz-adv-x="0" 
d="M-1030 1436h860v-188h-860v188z" />
    <glyph glyph-name="uni0306" unicode="&#x306;" horiz-adv-x="0" 
d="M-817 1317c-51.333 52.667 -77.002 127 -77.002 223v53h175v-53c0 -53.333 10.333 -94.333 31 -123s50 -43 88 -43s67.333 14.333 88 43s31 69.667 31 123v53h175v-53c0 -96 -25.667 -170.333 -77 -223s-123.666 -79 -216.999 -79s-165.666 26.333 -216.999 79z" />
    <glyph glyph-name="uni0307" unicode="&#x307;" horiz-adv-x="0" 
d="M-667 1256c-20.667 12 -37 28.333 -49 49s-18 43 -18 67c0 24.667 6 47.167 18 67.5s28.333 36.5 49 48.5s43 18 67 18s46.333 -6 67 -18s37 -28.167 49 -48.5s18 -42.833 18 -67.5c0 -24 -6 -46.333 -18 -67s-28.333 -37 -49 -49s-43 -18 -67 -18s-46.333 6 -67 18z" />
    <glyph glyph-name="uni0308" unicode="&#x308;" horiz-adv-x="0" 
d="M-877 1256c-20.667 12 -37 28.333 -49 49s-18 43 -18 67c0 24.667 6 47.167 18 67.5s28.333 36.5 49 48.5s43 18 67 18s46.333 -6 67 -18s37 -28.167 49 -48.5s18 -42.833 18 -67.5c0 -24 -6 -46.333 -18 -67s-28.333 -37 -49 -49s-43 -18 -67 -18s-46.333 6 -67 18z
M-457 1256c-20.667 12 -37 28.333 -49 49s-18 43 -18 67c0 24.667 6 47.167 18 67.5s28.333 36.5 49 48.5s43 18 67 18s46.333 -6 67 -18s37 -28.167 49 -48.5s18 -42.833 18 -67.5c0 -24 -6 -46.333 -18 -67s-28.333 -37 -49 -49s-43 -18 -67 -18s-46.333 6 -67 18z" />
    <glyph glyph-name="uni030A" unicode="&#x30a;" horiz-adv-x="0" 
d="M-775.5 1254.5c-41.667 37.667 -62.5 90.834 -62.5 159.501s20.833 121.834 62.5 159.501s100.167 56.5 175.5 56.5s133.833 -18.833 175.5 -56.5s62.5 -90.834 62.5 -159.501s-20.833 -121.834 -62.5 -159.501s-100.167 -56.5 -175.5 -56.5s-133.833 18.833 -175.5 56.5
zM-529 1340c16.667 17.333 25 42 25 74s-8.33301 56.833 -25 74.5s-40.334 26.5 -71.001 26.5s-54.334 -8.83301 -71.001 -26.5s-25 -42.5 -25 -74.5s8.33301 -56.667 25 -74s40.334 -26 71.001 -26s54.334 8.66699 71.001 26z" />
    <glyph glyph-name="uni030B" unicode="&#x30b;" horiz-adv-x="0" 
d="M-981 1248l150 380h222l-170 -380h-202zM-601 1248l150 380h222l-170 -380h-202z" />
    <glyph glyph-name="uni030C" unicode="&#x30c;" horiz-adv-x="0" 
d="M-486 1628h212l-240 -380h-172l-240 380h212l114 -235z" />
    <glyph glyph-name="uni0312" unicode="&#x312;" horiz-adv-x="0" 
d="M-496 1208h-212l90 380h172z" />
    <glyph glyph-name="dotbelowcomb" unicode="&#x323;" horiz-adv-x="0" 
d="M-667 -402c-20.667 12 -37 28.333 -49 49s-18 43 -18 67c0 24.667 6 47.167 18 67.5s28.333 36.5 49 48.5s43 18 67 18s46.333 -6 67 -18s37 -28.167 49 -48.5s18 -42.833 18 -67.5c0 -24 -6 -46.333 -18 -67s-28.333 -37 -49 -49s-43 -18 -67 -18s-46.333 6 -67 18z" />
    <glyph glyph-name="uni0326" unicode="&#x326;" horiz-adv-x="0" 
d="M-708 -140h222l-117 -340h-182z" />
    <glyph glyph-name="uni0327" unicode="&#x327;" horiz-adv-x="0" 
d="M-450 12l-29.999 -112c114.667 -24 172 -79.667 172 -167c0 -142 -126 -213 -378 -213v150c125.333 0 188 24 188 72c0 22.667 -13.333 39.667 -40 51s-67.334 17 -122.001 17l84 239z" />
    <glyph glyph-name="uni0328" unicode="&#x328;" horiz-adv-x="0" 
d="M-579.5 -44c-39 -29.333 -58.498 -70.667 -58.498 -124c0 -28 10.167 -49.667 30.5 -65s48.833 -23 85.5 -23c23.333 0 50.666 3.66699 81.999 11l-18 -170c-30 -6 -60 -9 -90 -9c-76.667 0 -135.834 16.667 -177.501 50s-62.5 80.666 -62.5 141.999
c0 48.667 11.667 89.834 35 123.501s56.333 56.5 99 68.5v70l240 2v-32c-71.333 -0 -126.5 -14.667 -165.5 -44z" />
    <glyph glyph-name="uni03BC" unicode="&#x3bc;" 
d="M1158 170l-0.000976562 -169.999l-340 -10l-15 214h-19c-28 -149.333 -100.667 -224 -218 -224c-115.333 0 -188.333 74.667 -219 224h-22l63 -664h-232v1540h208v-650c0 -76.667 17.667 -135.834 53 -177.501s85 -62.5 149 -62.5c78.667 0 137.334 23.5 176.001 70.5
s58 123.5 58 229.5v590h212v-888z" />
    <glyph glyph-name="Wgrave" unicode="&#x1e80;" 
d="M970 1420h210l-160 -1420h-309l-105 862h-12l-105 -862h-309l-160 1420h210l120 -1260h20l131 900h200l129 -900h20zM239 1830h282l220 -250h-242z" />
    <glyph glyph-name="wgrave" unicode="&#x1e81;" 
d="M920 1060h210l-150 -1060h-280l-104 842h-12l-104 -842h-290l-120 1060h200l80 -900h18l130 900h184l130 -900h18zM324 1628h212l170 -380h-192z" />
    <glyph glyph-name="Wacute" unicode="&#x1e82;" 
d="M970 1420h210l-160 -1420h-309l-105 862h-12l-105 -862h-309l-160 1420h210l120 -1260h20l131 900h200l129 -900h20zM489 1580l220 250h282l-260 -250h-242z" />
    <glyph glyph-name="wacute" unicode="&#x1e83;" 
d="M920 1060h210l-150 -1060h-280l-104 842h-12l-104 -842h-290l-120 1060h200l80 -900h18l130 900h184l130 -900h18zM489 1248l170 380h212l-190 -380h-192z" />
    <glyph glyph-name="Wdieresis" unicode="&#x1e84;" 
d="M970 1420h210l-160 -1420h-309l-105 862h-12l-105 -862h-309l-160 1420h210l120 -1260h20l131 900h200l129 -900h20zM321 1598c-20.667 12 -37 28.333 -49 49s-18 43 -18 67c0 24.667 6 47.167 18 67.5s28.333 36.5 49 48.5s43 18 67 18s46.333 -6 67 -18
s37 -28.167 49 -48.5s18 -42.833 18 -67.5c0 -24 -6 -46.333 -18 -67s-28.333 -37 -49 -49s-43 -18 -67 -18s-46.333 6 -67 18zM741 1598c-20.667 12 -37 28.333 -49 49s-18 43 -18 67c0 24.667 6 47.167 18 67.5s28.333 36.5 49 48.5s43 18 67 18s46.333 -6 67 -18
s37 -28.167 49 -48.5s18 -42.833 18 -67.5c0 -24 -6 -46.333 -18 -67s-28.333 -37 -49 -49s-43 -18 -67 -18s-46.333 6 -67 18z" />
    <glyph glyph-name="wdieresis" unicode="&#x1e85;" 
d="M920 1060h210l-150 -1060h-280l-104 842h-12l-104 -842h-290l-120 1060h200l80 -900h18l130 900h184l130 -900h18zM315 1256c-20.667 12 -37 28.333 -49 49s-18 43 -18 67c0 24.667 6 47.167 18 67.5s28.333 36.5 49 48.5s43 18 67 18s46.333 -6 67 -18
s37 -28.167 49 -48.5s18 -42.833 18 -67.5c0 -24 -6 -46.333 -18 -67s-28.333 -37 -49 -49s-43 -18 -67 -18s-46.333 6 -67 18zM735 1256c-20.667 12 -37 28.333 -49 49s-18 43 -18 67c0 24.667 6 47.167 18 67.5s28.333 36.5 49 48.5s43 18 67 18s46.333 -6 67 -18
s37 -28.167 49 -48.5s18 -42.833 18 -67.5c0 -24 -6 -46.333 -18 -67s-28.333 -37 -49 -49s-43 -18 -67 -18s-46.333 6 -67 18z" />
    <glyph glyph-name="uni1E9E" unicode="&#x1e9e;" 
d="M1070.5 718.5c57.667 -73 86.499 -163.832 86.499 -272.499c0 -98 -19.5 -181.833 -58.5 -251.5s-95.5 -122.834 -169.5 -159.501s-163.333 -55 -268 -55c-38.667 0 -75.667 2 -111 6s-65.666 9.66699 -90.999 17l26 187c65.333 -12 129.333 -18 192 -18
c84.667 0 150.167 22.667 196.5 68s69.5 109.333 69.5 192c0 64 -19.333 119.667 -58 167s-93.334 82.333 -164.001 105l-175 50l288 446c-59.333 33.333 -118.666 50 -177.999 50c-110.667 0.666992 -191 -24.5 -241 -75.5s-75 -132.5 -75 -244.5v-930h-200v930
c0 120 17.833 217.333 53.5 292s91.334 129.667 167.001 165s174.167 53 295.5 53c169.333 0 318.666 -56.667 447.999 -170h1l-280 -403c106 -26 187.833 -75.5 245.5 -148.5z" />
    <glyph glyph-name="uni1EA0" unicode="&#x1ea0;" 
d="M942 0l-93 346h-504l-93 -346h-210l410 1420h290l410 -1420h-210zM396 536h402l-192 712h-18zM533 -402c-20.667 12 -37 28.333 -49 49s-18 43 -18 67c0 24.667 6 47.167 18 67.5s28.333 36.5 49 48.5s43 18 67 18s46.333 -6 67 -18s37 -28.167 49 -48.5
s18 -42.833 18 -67.5c0 -24 -6 -46.333 -18 -67s-28.333 -37 -49 -49s-43 -18 -67 -18s-46.333 6 -67 18z" />
    <glyph glyph-name="uni1EA1" unicode="&#x1ea1;" 
d="M1158 170v-170.001l-340 -10l-10 234h-21c-7.33301 -80 -41.166 -140.667 -101.499 -182s-140.833 -62 -241.5 -62c-110.667 0 -196.334 26.5 -257.001 79.5s-91 128.5 -91 226.5c0 112 40.833 198 122.5 258s197.5 90 347.5 90c81.333 0 151.333 -8.33301 210 -25v57
c0 69.333 -24.5 120.833 -73.5 154.5s-123.167 51.834 -222.5 54.501l-254 7l20 188l214 -3c345.333 -4.66699 518 -149 518 -433v-442zM639.5 182.999c45 22 79 50.666 102 85.999s34.5 72.333 34.5 111v64c-33.333 8.66699 -66.5 14.167 -99.5 16.5s-74.5 3.5 -124.5 3.5
c-84 0 -147.667 -13.333 -191 -40s-65 -66 -65 -118c0 -51.333 15.333 -90.166 46 -116.499s76 -39.5 136 -39.5c62.667 0 116.5 11 161.5 33zM533 -402.002c-20.667 12 -37 28.333 -49 49s-18 43 -18 67c0 24.667 6 47.167 18 67.5s28.333 36.5 49 48.5s43 18 67 18
s46.333 -6 67 -18s37 -28.167 49 -48.5s18 -42.833 18 -67.5c0 -24 -6 -46.333 -18 -67s-28.333 -37 -49 -49s-43 -18 -67 -18s-46.333 6 -67 18z" />
    <glyph glyph-name="uni1EB8" unicode="&#x1eb8;" 
d="M1100 1230h-740v-424h560v-190h-560v-426h740v-190h-940v1420h940v-190zM563 -402c-20.667 12 -37 28.333 -49 49s-18 43 -18 67c0 24.667 6 47.167 18 67.5s28.333 36.5 49 48.5s43 18 67 18s46.333 -6 67 -18s37 -28.167 49 -48.5s18 -42.833 18 -67.5
c0 -24 -6 -46.333 -18 -67s-28.333 -37 -49 -49s-43 -18 -67 -18s-46.333 6 -67 18z" />
    <glyph glyph-name="uni1EB9" unicode="&#x1eb9;" 
d="M1058 436h-716.001c18.667 -88 60.667 -155 126 -201s151.333 -69 258 -69c82 0 168.667 9.33301 260 28l26 -186c-98 -18.667 -201.333 -28 -310 -28c-120.667 0 -223.167 21.333 -307.5 64s-148.5 105.167 -192.5 187.5s-66 182.5 -66 300.5
c0 114.667 18.667 213 56 295s91.833 144.667 163.5 188s157.834 65 258.501 65c144 0 255 -43.667 333 -131s117 -213 117 -377c0 -48.667 -2 -94 -6 -136zM871.999 598c0 94.667 -22.499 167.667 -67.499 219s-107.833 77 -188.5 77c-82 0 -147.333 -25.667 -196 -77
s-77.334 -124.333 -86.001 -219h538zM563 -402c-20.667 12 -37 28.333 -49 49s-18 43 -18 67c0 24.667 6 47.167 18 67.5s28.333 36.5 49 48.5s43 18 67 18s46.333 -6 67 -18s37 -28.167 49 -48.5s18 -42.833 18 -67.5c0 -24 -6 -46.333 -18 -67s-28.333 -37 -49 -49
s-43 -18 -67 -18s-46.333 6 -67 18z" />
    <glyph glyph-name="uni1EBC" unicode="&#x1ebc;" 
d="M1100 1230h-740v-424h560v-190h-560v-426h740v-190h-940v1420h940v-190zM455 1866c25.333 0 51.832 -3.83203 79.499 -11.499s67.167 -20.167 118.5 -37.5l65 -24c29.333 -10.667 50.5 -17.834 63.5 -21.501s25.5 -5.5 37.5 -5.5c36 0 54 31.333 54 94v30h172v-50
c0 -160 -66 -240 -198 -240c-21.333 0 -46.833 4.33301 -76.5 13s-71.834 22.667 -126.501 42c-45.333 16 -79.166 27.5 -101.499 34.5s-42.166 10.5 -59.499 10.5c-49.333 0 -74 -34.667 -74 -104v-30h-174v50c0 166.667 73.333 250 220 250z" />
    <glyph glyph-name="uni1EBD" unicode="&#x1ebd;" 
d="M1058 436h-716.001c18.667 -88 60.667 -155 126 -201s151.333 -69 258 -69c82 0 168.667 9.33301 260 28l26 -186c-98 -18.667 -201.333 -28 -310 -28c-120.667 0 -223.167 21.333 -307.5 64s-148.5 105.167 -192.5 187.5s-66 182.5 -66 300.5
c0 114.667 18.667 213 56 295s91.833 144.667 163.5 188s157.834 65 258.501 65c144 0 255 -43.667 333 -131s117 -213 117 -377c0 -48.667 -2 -94 -6 -136zM871.999 598c0 94.667 -22.499 167.667 -67.499 219s-107.833 77 -188.5 77c-82 0 -147.333 -25.667 -196 -77
s-77.334 -124.333 -86.001 -219h538zM465 1556c46 0 102.001 -16.334 168.001 -49.001c44 -21.333 74 -35.166 90 -41.499s31.333 -9.5 46 -9.5c36 0 54 31.333 54 94v60h172v-80c0 -160 -66 -240 -198 -240c-22 0 -47.667 4.5 -77 13.5s-61.333 22.833 -96 41.5
c-54.667 30 -98.334 45 -131.001 45c-49.333 0 -74 -34.667 -74 -104v-60h-174v80c0 166.667 73.333 250 220 250z" />
    <glyph glyph-name="uni1ECA" unicode="&#x1eca;" 
d="M1032 1230h-333v-1040h333v-190h-864v190h331v1040h-331v190h864v-190zM533 -402c-20.667 12 -37 28.333 -49 49s-18 43 -18 67c0 24.667 6 47.167 18 67.5s28.333 36.5 49 48.5s43 18 67 18s46.333 -6 67 -18s37 -28.167 49 -48.5s18 -42.833 18 -67.5
c0 -24 -6 -46.333 -18 -67s-28.333 -37 -49 -49s-43 -18 -67 -18s-46.333 6 -67 18z" />
    <glyph glyph-name="uni1ECB" unicode="&#x1ecb;" 
d="M584 1248c-22.667 13.333 -40.667 31.333 -54 54s-20 47.334 -20 74.001s6.66699 51.334 20 74.001s31.333 40.667 54 54s47.334 20 74.001 20s51.334 -6.66699 74.001 -20s40.667 -31.333 54 -54s20 -47.334 20 -74.001s-6.66699 -51.334 -20 -74.001
s-31.333 -40.667 -54 -54s-47.334 -20 -74.001 -20s-51.334 6.66699 -74.001 20zM776 174h326v-174h-942v174h404v710h-344v176h556v-886zM603 -402c-20.667 12 -37 28.333 -49 49s-18 43 -18 67c0 24.667 6 47.167 18 67.5s28.333 36.5 49 48.5s43 18 67 18
s46.333 -6 67 -18s37 -28.167 49 -48.5s18 -42.833 18 -67.5c0 -24 -6 -46.333 -18 -67s-28.333 -37 -49 -49s-43 -18 -67 -18s-46.333 6 -67 18z" />
    <glyph glyph-name="uni1ECC" unicode="&#x1ecc;" 
d="M76 700c0 493.333 174.667 740 524 740s524 -246.667 524 -740c0 -480 -174.667 -720 -524 -720s-524 240 -524 720zM914 700c0 370.667 -104.667 556 -314 556s-314 -185.333 -314 -556c0 -357.333 104.667 -536 314 -536s314 178.667 314 536zM533 -402
c-20.667 12 -37 28.333 -49 49s-18 43 -18 67c0 24.667 6 47.167 18 67.5s28.333 36.5 49 48.5s43 18 67 18s46.333 -6 67 -18s37 -28.167 49 -48.5s18 -42.833 18 -67.5c0 -24 -6 -46.333 -18 -67s-28.333 -37 -49 -49s-43 -18 -67 -18s-46.333 6 -67 18z" />
    <glyph glyph-name="uni1ECD" unicode="&#x1ecd;" 
d="M349.5 44.5c-69.667 43 -122.667 105.667 -159 188s-54.5 181.5 -54.5 297.5s18.167 215.167 54.5 297.5s89.333 145 159 188s153.167 64.5 250.5 64.5s180.833 -21.5 250.5 -64.5s122.667 -105.667 159 -188s54.5 -181.5 54.5 -297.5s-18.167 -215.167 -54.5 -297.5
s-89.333 -145 -159 -188s-153.167 -64.5 -250.5 -64.5s-180.833 21.5 -250.5 64.5zM780.5 263.5c42.333 62.333 63.5 151.166 63.5 266.499s-21.167 204.166 -63.5 266.499s-102.5 93.5 -180.5 93.5s-138.167 -31.167 -180.5 -93.5s-63.5 -151.166 -63.5 -266.499
s21.167 -204.166 63.5 -266.499s102.5 -93.5 180.5 -93.5s138.167 31.167 180.5 93.5zM533 -402c-20.667 12 -37 28.333 -49 49s-18 43 -18 67c0 24.667 6 47.167 18 67.5s28.333 36.5 49 48.5s43 18 67 18s46.333 -6 67 -18s37 -28.167 49 -48.5s18 -42.833 18 -67.5
c0 -24 -6 -46.333 -18 -67s-28.333 -37 -49 -49s-43 -18 -67 -18s-46.333 6 -67 18z" />
    <glyph glyph-name="uni1EE4" unicode="&#x1ee4;" 
d="M140 456v964h200v-964c0 -96 21 -167.667 63 -215s107.667 -71 197 -71c86 0 150.833 24 194.5 72s65.5 119.333 65.5 214v964h200v-964c0 -158 -39.167 -276.833 -117.5 -356.5s-193.833 -119.5 -346.5 -119.5c-304 0 -456 158.667 -456 476zM533 -402
c-20.667 12 -37 28.333 -49 49s-18 43 -18 67c0 24.667 6 47.167 18 67.5s28.333 36.5 49 48.5s43 18 67 18s46.333 -6 67 -18s37 -28.167 49 -48.5s18 -42.833 18 -67.5c0 -24 -6 -46.333 -18 -67s-28.333 -37 -49 -49s-43 -18 -67 -18s-46.333 6 -67 18z" />
    <glyph glyph-name="uni1EE5" unicode="&#x1ee5;" 
d="M1158 170l-0.000976562 -170.001l-340 -10l-15 214h-19c-16 -72 -46.5 -127.333 -91.5 -166s-100.5 -58 -166.5 -58c-118 0 -209.167 33 -273.5 99s-96.5 159.667 -96.5 281v720h208v-720c0 -64 17.667 -113.333 53 -148s85 -52 149 -52
c78.667 0 137.334 25.833 176.001 77.5s58 135.834 58 252.501v590h212v-888zM502.999 -402.001c-20.667 12 -37 28.333 -49 49s-18 43 -18 67c0 24.667 6 47.167 18 67.5s28.333 36.5 49 48.5s43 18 67 18s46.333 -6 67 -18s37 -28.167 49 -48.5s18 -42.833 18 -67.5
c0 -24 -6 -46.333 -18 -67s-28.333 -37 -49 -49s-43 -18 -67 -18s-46.333 6 -67 18z" />
    <glyph glyph-name="Ygrave" unicode="&#x1ef2;" 
d="M1176 1420l-473 -913v-507h-200v499l-477 921h220l346 -710h18l346 710h220zM239 1830h282l220 -250h-242z" />
    <glyph glyph-name="ygrave" unicode="&#x1ef3;" 
d="M1110 1060l-306.001 -966.001c-40 -127.333 -84.667 -229.5 -134 -306.5s-107.666 -135 -174.999 -174s-149 -63.5 -245 -73.5l-180 -20l-10 190l166 20c86 10.667 156.5 36.834 211.5 78.501s101.167 105.5 138.5 191.5h-114l-412 1060h220l336 -900h22v-9l262 909h220z
M343.999 1628h212l170 -380h-192z" />
    <glyph glyph-name="uni1EF8" unicode="&#x1ef8;" 
d="M1176 1420l-473 -913v-507h-200v499l-477 921h220l346 -710h18l346 710h220zM425 1866c25.333 0 51.832 -3.83203 79.499 -11.499s67.167 -20.167 118.5 -37.5l65 -24c29.333 -10.667 50.5 -17.834 63.5 -21.501s25.5 -5.5 37.5 -5.5c36 0 54 31.333 54 94v30h172v-50
c0 -160 -66 -240 -198 -240c-21.333 0 -46.833 4.33301 -76.5 13s-71.834 22.667 -126.501 42c-45.333 16 -79.166 27.5 -101.499 34.5s-42.166 10.5 -59.499 10.5c-49.333 0 -74 -34.667 -74 -104v-30h-174v50c0 166.667 73.333 250 220 250z" />
    <glyph glyph-name="uni1EF9" unicode="&#x1ef9;" 
d="M1110 1060l-306.001 -966.001c-40 -127.333 -84.667 -229.5 -134 -306.5s-107.666 -135 -174.999 -174s-149 -63.5 -245 -73.5l-180 -20l-10 190l166 20c86 10.667 156.5 36.834 211.5 78.501s101.167 105.5 138.5 191.5h-114l-412 1060h220l336 -900h22v-9l262 909h220z
M454.999 1556c46 0 102.001 -16.334 168.001 -49.001c44 -21.333 74 -35.166 90 -41.499s31.333 -9.5 46 -9.5c36 0 54 31.333 54 94v60h172v-80c0 -160 -66 -240 -198 -240c-22 0 -47.667 4.5 -77 13.5s-61.333 22.833 -96 41.5c-54.667 30 -98.334 45 -131.001 45
c-49.333 0 -74 -34.667 -74 -104v-60h-174v80c0 166.667 73.333 250 220 250z" />
    <glyph glyph-name="endash" unicode="&#x2013;" 
d="M100 802h1000v-186h-1000v186z" />
    <glyph glyph-name="emdash" unicode="&#x2014;" 
d="M100 802h1000v-186h-1000v186z" />
    <glyph glyph-name="quoteleft" unicode="&#x2018;" 
d="M286 1420h192l200 -640h-262z" />
    <glyph glyph-name="quoteright" unicode="&#x2019;" 
d="M572 1420h262l-200 -640h-192z" />
    <glyph glyph-name="quotesinglbase" unicode="&#x201a;" 
d="M572 254h262l-200 -640h-192z" />
    <glyph glyph-name="quotedblleft" unicode="&#x201c;" 
d="M168 1420h192l200 -640h-262zM608 1420h192l200 -640h-262z" />
    <glyph glyph-name="quotedblright" unicode="&#x201d;" 
d="M790 1420h262l-200 -640h-192zM350 1420h262l-200 -640h-192z" />
    <glyph glyph-name="quotedblbase" unicode="&#x201e;" 
d="M790 254h262l-200 -640h-192zM350 254h262l-200 -640h-192z" />
    <glyph glyph-name="dagger" unicode="&#x2020;" 
d="M980 1132v-168h-291l-6 -692h-172l-6 692h-285v168h284l-3 308h192l-3 -308h290z" />
    <glyph glyph-name="daggerdbl" unicode="&#x2021;" 
d="M980 1024h-297v-316h297v-158h-295l8 -278h-192l8 278h-289v158h291v316h-291v158h288l-7 258h192l-7 -258h294v-158z" />
    <glyph glyph-name="bullet" unicode="&#x2022;" 
d="M451 273.5c-45.333 26.333 -81.166 62.166 -107.499 107.499s-39.5 95 -39.5 149s13.167 103.667 39.5 149s62.166 81.166 107.499 107.499s95 39.5 149 39.5s103.667 -13.167 149 -39.5s81.166 -62.166 107.499 -107.499s39.5 -95 39.5 -149
s-13.167 -103.667 -39.5 -149s-62.166 -81.166 -107.499 -107.499s-95 -39.5 -149 -39.5s-103.667 13.167 -149 39.5z" />
    <glyph glyph-name="ellipsis" unicode="&#x2026;" 
d="M128 0c-22.667 13.333 -40.667 31.333 -54 54s-20 47.334 -20 74.001s6.66699 51.334 20 74.001s31.333 40.667 54 54s47.334 20 74.001 20s51.334 -6.66699 74.001 -20s40.667 -31.333 54 -54s20 -47.334 20 -74.001s-6.66699 -51.334 -20 -74.001
s-31.333 -40.667 -54 -54s-47.334 -20 -74.001 -20s-51.334 6.66699 -74.001 20zM924 0c-22.667 13.333 -40.667 31.333 -54 54s-20 47.334 -20 74.001s6.66699 51.334 20 74.001s31.333 40.667 54 54s47.334 20 74.001 20s51.334 -6.66699 74.001 -20
s40.667 -31.333 54 -54s20 -47.334 20 -74.001s-6.66699 -51.334 -20 -74.001s-31.333 -40.667 -54 -54s-47.334 -20 -74.001 -20s-51.334 6.66699 -74.001 20zM526 0c-22.667 13.333 -40.667 31.333 -54 54s-20 47.334 -20 74.001s6.66699 51.334 20 74.001
s31.333 40.667 54 54s47.334 20 74.001 20s51.334 -6.66699 74.001 -20s40.667 -31.333 54 -54s20 -47.334 20 -74.001s-6.66699 -51.334 -20 -74.001s-31.333 -40.667 -54 -54s-47.334 -20 -74.001 -20s-51.334 6.66699 -74.001 20z" />
    <glyph glyph-name="perthousand" unicode="&#x2030;" 
d="M181 834c-47.333 26.667 -84 64.334 -110 113.001s-39 105 -39 169c0 64.667 13 121.5 39 170.5s62.667 86.833 110 113.5s102.333 40 165 40s117.5 -13.167 164.5 -39.5s83.333 -63.833 109 -112.5s38.5 -106 38.5 -172c0 -64 -13 -120.333 -39 -169
s-62.5 -86.334 -109.5 -113.001s-101.5 -40 -163.5 -40c-62.667 0 -117.667 13.333 -165 40zM437.5 1004.5c23 28.333 34.5 65.5 34.5 111.5c0 48 -11.5 86.333 -34.5 115s-53.5 43 -91.5 43c-38.667 0 -69.667 -14.333 -93 -43s-35 -67 -35 -115
c0 -46 11.667 -83.167 35 -111.5s54.333 -42.5 93 -42.5c38 0 68.5 14.167 91.5 42.5zM44 442l930 664l92 -130l-930 -670zM836.5 317c-35.667 20.667 -63.334 50 -83.001 88s-29.5 82 -29.5 132s9.83301 94 29.5 132s47.334 67.5 83.001 88.5s77.167 31.5 124.5 31.5
c46.667 0 87.834 -10.5 123.501 -31.5s63.334 -50.5 83.001 -88.5s29.5 -82 29.5 -132s-9.83301 -94 -29.5 -132s-47.334 -67.333 -83.001 -88s-76.834 -31 -123.501 -31c-47.333 0 -88.833 10.333 -124.5 31zM1021 459.5c15.333 19.667 23 45.5 23 77.5
c0 32.667 -7.66699 58.834 -23 78.501s-35.333 29.5 -60 29.5c-25.333 0 -45.666 -9.83301 -60.999 -29.5s-23 -45.834 -23 -78.501c0 -32 7.66699 -57.833 23 -77.5s35.666 -29.5 60.999 -29.5c24.667 0 44.667 9.83301 60 29.5zM417.5 11
c-35.667 20.667 -63.334 50 -83.001 88s-29.5 82 -29.5 132s9.83301 94 29.5 132s47.334 67.5 83.001 88.5s77.167 31.5 124.5 31.5c46.667 0 87.834 -10.5 123.501 -31.5s63.334 -50.5 83.001 -88.5s29.5 -82 29.5 -132s-9.83301 -94 -29.5 -132
s-47.334 -67.333 -83.001 -88s-76.834 -31 -123.501 -31c-47.333 0 -88.833 10.333 -124.5 31zM602 153.5c15.333 19.667 23 45.5 23 77.5c0 32.667 -7.66699 58.834 -23 78.501s-35.333 29.5 -60 29.5c-25.333 0 -45.666 -9.83301 -60.999 -29.5s-23 -45.834 -23 -78.501
c0 -32 7.66699 -57.833 23 -77.5s35.666 -29.5 60.999 -29.5c24.667 0 44.667 9.83301 60 29.5z" />
    <glyph glyph-name="guilsinglleft" unicode="&#x2039;" 
d="M236 458v142l698 384v-200l-470 -246v-18l470 -246v-200z" />
    <glyph glyph-name="guilsinglright" unicode="&#x203a;" 
d="M266 274l470 246v18l-470 246v200l698 -384v-142l-698 -384v200z" />
    <glyph glyph-name="fraction" unicode="&#x2044;" 
d="M94 432l930 674l92 -120l-930 -680z" />
    <glyph glyph-name="uni2074" unicode="&#x2074;" 
d="M866 1048v-140h-69v-106h-156v106h-321l2 4l77 475h164l-55 -339h133v374h156v-374h69z" />
    <glyph glyph-name="Euro" unicode="&#x20ac;" 
d="M1078 224l46.0029 -175.999c-110.667 -45.333 -226 -68 -346 -68c-324.667 0 -513.334 170.333 -566.001 511h-193v138h179c-1.33301 36 -2 63.667 -2 83c0 16.667 0.666992 39.667 2 69h-179v138h192c26.667 167.333 85.667 296 177 386s210 135 356 135
c96 0 179.167 -19.167 249.5 -57.5s122.166 -92.166 155.499 -161.499l-168 -127c-26.667 51.333 -60.5 91.166 -101.5 119.499s-85.5 42.5 -133.5 42.5c-80.667 0 -148.834 -29.167 -204.501 -87.5s-93.834 -141.5 -114.501 -249.5h470v-138h-486
c-0.666992 -12.667 -1 -32.334 -1 -59.001c0 -32 1 -63 3 -93h484v-138h-465c49.333 -218 176 -327 380 -327c90.667 0 179.334 20 266.001 60z" />
    <glyph glyph-name="trademark" unicode="&#x2122;" 
d="M499 1420v-132h-161v-514h-151v514h-158v132h470zM1143 1420v-646h-146v474h-14l-74 -266h-118l-84 266h-14v-474h-146v646h219l80 -277h8l80 277h209z" />
    <glyph glyph-name="minus" unicode="&#x2212;" 
d="M100 802h1000v-186h-1000v186z" />
    <glyph glyph-name="uni2215" unicode="&#x2215;" 
d="M910 1610h212l-804 -1800h-212z" />
    <glyph glyph-name="revlogicalnot" unicode="&#x2310;" 
d="M1100 903v-186h-808v-367h-192v553h1000z" />
    <glyph glyph-name="uni2500" unicode="&#x2500;" 
d="M-106 635h1412v-212h-1412v212z" />
    <glyph glyph-name="uni2501" unicode="&#x2501;" 
d="M-106 741h1412v-424h-1412v424z" />
    <glyph glyph-name="uni2502" unicode="&#x2502;" 
d="M494 1808h212v-2558h-212v2558z" />
    <glyph glyph-name="uni2503" unicode="&#x2503;" 
d="M388 1808h424v-2558h-424v2558z" />
    <glyph glyph-name="uni2504" unicode="&#x2504;" 
d="M66 635h267v-212h-267v212zM466 635h267v-212h-267v212zM866 635h267v-212h-267v212z" />
    <glyph glyph-name="uni2505" unicode="&#x2505;" 
d="M66 741h267v-424h-267v424zM466 741h267v-424h-267v424zM866 741h267v-424h-267v424z" />
    <glyph glyph-name="uni2506" unicode="&#x2506;" 
d="M494 1224h212v-348h-212v348zM494 702h212v-348h-212v348zM494 180h212v-348h-212v348z" />
    <glyph glyph-name="uni2507" unicode="&#x2507;" 
d="M388 1224h424v-348h-424v348zM388 702h424v-348h-424v348zM388 180h424v-348h-424v348z" />
    <glyph glyph-name="uni2508" unicode="&#x2508;" 
d="M37 635h225v-212h-225v212zM337 635h225v-212h-225v212zM637 635h225v-212h-225v212zM937 635h225v-212h-225v212z" />
    <glyph glyph-name="uni2509" unicode="&#x2509;" 
d="M37 741h225v-424h-225v424zM337 741h225v-424h-225v424zM637 741h225v-424h-225v424zM937 741h225v-424h-225v424z" />
    <glyph glyph-name="uni250A" unicode="&#x250a;" 
d="M494 1264h212v-294h-212v294zM494 872h212v-294h-212v294zM494 480h212v-294h-212v294zM494 88h212v-294h-212v294z" />
    <glyph glyph-name="uni250B" unicode="&#x250b;" 
d="M388 1264h424v-294h-424v294zM388 872h424v-294h-424v294zM388 480h424v-294h-424v294zM388 88h424v-294h-424v294z" />
    <glyph glyph-name="uni250C" unicode="&#x250c;" 
d="M494 635h812v-212h-600v-1173h-212v1385z" />
    <glyph glyph-name="uni250D" unicode="&#x250d;" 
d="M494 741h812v-424h-600v-1067h-212v1491z" />
    <glyph glyph-name="uni250E" unicode="&#x250e;" 
d="M388 635h918v-212h-494v-1173h-424v1385z" />
    <glyph glyph-name="uni250F" unicode="&#x250f;" 
d="M388 741h918v-424h-494v-1067h-424v1491z" />
    <glyph glyph-name="uni2510" unicode="&#x2510;" 
d="M494 423h-600v212h812v-1385h-212v1173z" />
    <glyph glyph-name="uni2511" unicode="&#x2511;" 
d="M494 317h-600v424h812v-1491h-212v1067z" />
    <glyph glyph-name="uni2512" unicode="&#x2512;" 
d="M388 423h-494v212h918v-1385h-424v1173z" />
    <glyph glyph-name="uni2513" unicode="&#x2513;" 
d="M388 317h-494v424h918v-1491h-424v1067z" />
    <glyph glyph-name="uni2514" unicode="&#x2514;" 
d="M494 1808h212v-1173h600v-212h-812v1385z" />
    <glyph glyph-name="uni2515" unicode="&#x2515;" 
d="M494 1808h212v-1067h600v-424h-812v1491z" />
    <glyph glyph-name="uni2516" unicode="&#x2516;" 
d="M388 1808h424v-1173h494v-212h-918v1385z" />
    <glyph glyph-name="uni2517" unicode="&#x2517;" 
d="M388 1808h424v-1067h494v-424h-918v1491z" />
    <glyph glyph-name="uni2518" unicode="&#x2518;" 
d="M-106 635h600v1173h212v-1385h-812v212z" />
    <glyph glyph-name="uni2519" unicode="&#x2519;" 
d="M-106 741h600v1067h212v-1491h-812v424z" />
    <glyph glyph-name="uni251A" unicode="&#x251a;" 
d="M-106 635h494v1173h424v-1385h-918v212z" />
    <glyph glyph-name="uni251B" unicode="&#x251b;" 
d="M-106 741h494v1067h424v-1491h-918v424z" />
    <glyph glyph-name="uni251C" unicode="&#x251c;" 
d="M494 1808h212v-1173h600v-212h-600v-1173h-212v2558z" />
    <glyph glyph-name="uni251D" unicode="&#x251d;" 
d="M494 1808h212v-1067h600v-424h-600v-1067h-212v2558z" />
    <glyph glyph-name="uni251E" unicode="&#x251e;" 
d="M494 423h-106v1385h424v-1173h494v-212h-600v-1173h-212v1173z" />
    <glyph glyph-name="uni251F" unicode="&#x251f;" 
d="M388 635h106v1173h212v-1173h600v-212h-494v-1173h-424v1385z" />
    <glyph glyph-name="uni2520" unicode="&#x2520;" 
d="M388 1808h424v-1173h494v-212h-494v-1173h-424v2558z" />
    <glyph glyph-name="uni2521" unicode="&#x2521;" 
d="M494 317h-106v1491h424v-1067h494v-424h-600v-1067h-212v1067z" />
    <glyph glyph-name="uni2522" unicode="&#x2522;" 
d="M388 741h106v1067h212v-1067h600v-424h-494v-1067h-424v1491z" />
    <glyph glyph-name="uni2523" unicode="&#x2523;" 
d="M388 1808h424v-1067h494v-424h-494v-1067h-424v2558z" />
    <glyph glyph-name="uni2524" unicode="&#x2524;" 
d="M494 423h-600v212h600v1173h212v-2558h-212v1173z" />
    <glyph glyph-name="uni2525" unicode="&#x2525;" 
d="M494 317h-600v424h600v1067h212v-2558h-212v1067z" />
    <glyph glyph-name="uni2526" unicode="&#x2526;" 
d="M494 423h-600v212h494v1173h424v-1385h-106v-1173h-212v1173z" />
    <glyph glyph-name="uni2527" unicode="&#x2527;" 
d="M388 423h-494v212h600v1173h212v-1173h106v-1385h-424v1173z" />
    <glyph glyph-name="uni2528" unicode="&#x2528;" 
d="M388 423h-494v212h494v1173h424v-2558h-424v1173z" />
    <glyph glyph-name="uni2529" unicode="&#x2529;" 
d="M494 317h-600v424h494v1067h424v-1491h-106v-1067h-212v1067z" />
    <glyph glyph-name="uni252A" unicode="&#x252a;" 
d="M388 317h-494v424h600v1067h212v-1067h106v-1491h-424v1067z" />
    <glyph glyph-name="uni252B" unicode="&#x252b;" 
d="M388 317h-494v424h494v1067h424v-2558h-424v1067z" />
    <glyph glyph-name="uni252C" unicode="&#x252c;" 
d="M494 423h-600v212h1412v-212h-600v-1173h-212v1173z" />
    <glyph glyph-name="uni252D" unicode="&#x252d;" 
d="M494 317h-600v424h812v-106h600v-212h-600v-1173h-212v1067z" />
    <glyph glyph-name="uni252E" unicode="&#x252e;" 
d="M494 423h-600v212h600v106h812v-424h-600v-1067h-212v1173z" />
    <glyph glyph-name="uni252F" unicode="&#x252f;" 
d="M494 317h-600v424h1412v-424h-600v-1067h-212v1067z" />
    <glyph glyph-name="uni2530" unicode="&#x2530;" 
d="M388 423h-494v212h1412v-212h-494v-1173h-424v1173z" />
    <glyph glyph-name="uni2531" unicode="&#x2531;" 
d="M388 317h-494v424h918v-106h494v-212h-494v-1173h-424v1067z" />
    <glyph glyph-name="uni2532" unicode="&#x2532;" 
d="M388 423h-494v212h494v106h918v-424h-494v-1067h-424v1173z" />
    <glyph glyph-name="uni2533" unicode="&#x2533;" 
d="M388 317h-494v424h1412v-424h-494v-1067h-424v1067z" />
    <glyph glyph-name="uni2534" unicode="&#x2534;" 
d="M-106 635h600v1173h212v-1173h600v-212h-1412v212z" />
    <glyph glyph-name="uni2535" unicode="&#x2535;" 
d="M-106 741h600v1067h212v-1173h600v-212h-600v-106h-812v424z" />
    <glyph glyph-name="uni2536" unicode="&#x2536;" 
d="M494 423h-600v212h600v1173h212v-1067h600v-424h-812v106z" />
    <glyph glyph-name="uni2537" unicode="&#x2537;" 
d="M-106 741h600v1067h212v-1067h600v-424h-1412v424z" />
    <glyph glyph-name="uni2538" unicode="&#x2538;" 
d="M-106 635h494v1173h424v-1173h494v-212h-1412v212z" />
    <glyph glyph-name="uni2539" unicode="&#x2539;" 
d="M-106 741h494v1067h424v-1173h494v-212h-494v-106h-918v424z" />
    <glyph glyph-name="uni253A" unicode="&#x253a;" 
d="M388 423h-494v212h494v1173h424v-1067h494v-424h-918v106z" />
    <glyph glyph-name="uni253B" unicode="&#x253b;" 
d="M-106 741h494v1067h424v-1067h494v-424h-1412v424z" />
    <glyph glyph-name="uni253C" unicode="&#x253c;" 
d="M494 423h-600v212h600v1173h212v-1173h600v-212h-600v-1173h-212v1173z" />
    <glyph glyph-name="uni253D" unicode="&#x253d;" 
d="M494 317h-600v424h600v1067h212v-1173h600v-212h-600v-1173h-212v1067z" />
    <glyph glyph-name="uni253E" unicode="&#x253e;" 
d="M494 423h-600v212h600v1173h212v-1067h600v-424h-600v-1067h-212v1173z" />
    <glyph glyph-name="uni253F" unicode="&#x253f;" 
d="M494 317h-600v424h600v1067h212v-1067h600v-424h-600v-1067h-212v1067z" />
    <glyph glyph-name="uni2540" unicode="&#x2540;" 
d="M494 423h-600v212h494v1173h424v-1173h494v-212h-600v-1173h-212v1173z" />
    <glyph glyph-name="uni2541" unicode="&#x2541;" 
d="M388 423h-494v212h600v1173h212v-1173h600v-212h-494v-1173h-424v1173z" />
    <glyph glyph-name="uni2542" unicode="&#x2542;" 
d="M388 423h-494v212h494v1173h424v-1173h494v-212h-494v-1173h-424v1173z" />
    <glyph glyph-name="uni2543" unicode="&#x2543;" 
d="M494 317h-600v424h494v1067h424v-1173h494v-212h-494v-106h-106v-1067h-212v1067z" />
    <glyph glyph-name="uni2544" unicode="&#x2544;" 
d="M494 317h-106v106h-494v212h494v1173h424v-1067h494v-424h-600v-1067h-212v1067z" />
    <glyph glyph-name="uni2545" unicode="&#x2545;" 
d="M388 317h-494v424h600v1067h212v-1067h106v-106h494v-212h-494v-1173h-424v1067z" />
    <glyph glyph-name="uni2546" unicode="&#x2546;" 
d="M388 423h-494v212h494v106h106v1067h212v-1067h600v-424h-494v-1067h-424v1173z" />
    <glyph glyph-name="uni2547" unicode="&#x2547;" 
d="M494 317h-600v424h494v1067h424v-1067h494v-424h-600v-1067h-212v1067z" />
    <glyph glyph-name="uni2548" unicode="&#x2548;" 
d="M388 317h-494v424h600v1067h212v-1067h600v-424h-494v-1067h-424v1067z" />
    <glyph glyph-name="uni2549" unicode="&#x2549;" 
d="M388 317h-494v424h494v1067h424v-1173h494v-212h-494v-1173h-424v1067z" />
    <glyph glyph-name="uni254A" unicode="&#x254a;" 
d="M388 423h-494v212h494v1173h424v-1067h494v-424h-494v-1067h-424v1173z" />
    <glyph glyph-name="uni254B" unicode="&#x254b;" 
d="M388 317h-494v424h494v1067h424v-1067h494v-424h-494v-1067h-424v1067z" />
    <glyph glyph-name="uni254C" unicode="&#x254c;" 
d="M150 635h300v-212h-300v212zM750 635h300v-212h-300v212z" />
    <glyph glyph-name="uni254D" unicode="&#x254d;" 
d="M150 741h300v-424h-300v424zM750 741h300v-424h-300v424z" />
    <glyph glyph-name="uni254E" unicode="&#x254e;" 
d="M494 1117h212v-392h-212v392zM494 333h212v-392h-212v392z" />
    <glyph glyph-name="uni254F" unicode="&#x254f;" 
d="M388 1117h424v-392h-424v392zM388 333h424v-392h-424v392z" />
    <glyph glyph-name="uni2550" unicode="&#x2550;" 
d="M-106 847h1412v-212h-1412v212zM-106 423h1412v-212h-1412v212z" />
    <glyph glyph-name="uni2551" unicode="&#x2551;" 
d="M282 1808h212v-2558h-212v2558zM706 1808h212v-2558h-212v2558z" />
    <glyph glyph-name="uni2552" unicode="&#x2552;" 
d="M494 847h812v-212h-600v-212h600v-212h-600v-961h-212v1597z" />
    <glyph glyph-name="uni2553" unicode="&#x2553;" 
d="M282 635h1024v-212h-388v-1173h-212v1173h-212v-1173h-212v1385z" />
    <glyph glyph-name="uni2554" unicode="&#x2554;" 
d="M282 847h1024v-212h-812v-1385h-212v1597zM706 423h600v-212h-388v-961h-212v1173z" />
    <glyph glyph-name="uni2555" unicode="&#x2555;" 
d="M494 211h-600v212h600v212h-600v212h812v-1597h-212v961z" />
    <glyph glyph-name="uni2556" unicode="&#x2556;" 
d="M282 423h-388v212h1024v-1385h-212v1173h-212v-1173h-212v1173z" />
    <glyph glyph-name="uni2557" unicode="&#x2557;" 
d="M706 635h-812v212h1024v-1597h-212v1385zM282 211h-388v212h600v-1173h-212v961z" />
    <glyph glyph-name="uni2558" unicode="&#x2558;" 
d="M494 1808h212v-961h600v-212h-600v-212h600v-212h-812v1597z" />
    <glyph glyph-name="uni2559" unicode="&#x2559;" 
d="M282 1808h212v-1173h212v1173h212v-1173h388v-212h-1024v1385z" />
    <glyph glyph-name="uni255A" unicode="&#x255a;" 
d="M282 1808h212v-1385h812v-212h-1024v1597zM706 1808h212v-961h388v-212h-600v1173z" />
    <glyph glyph-name="uni255B" unicode="&#x255b;" 
d="M-106 423h600v212h-600v212h600v961h212v-1597h-812v212z" />
    <glyph glyph-name="uni255C" unicode="&#x255c;" 
d="M-106 635h388v1173h212v-1173h212v1173h212v-1385h-1024v212z" />
    <glyph glyph-name="uni255D" unicode="&#x255d;" 
d="M-106 423h812v1385h212v-1597h-1024v212zM-106 847h388v961h212v-1173h-600v212z" />
    <glyph glyph-name="uni255E" unicode="&#x255e;" 
d="M494 1808h212v-961h600v-212h-600v-212h600v-212h-600v-961h-212v2558z" />
    <glyph glyph-name="uni255F" unicode="&#x255f;" 
d="M282 1808h212v-2558h-212v2558zM706 1808h212v-1173h388v-212h-388v-1173h-212v2558z" />
    <glyph glyph-name="uni2560" unicode="&#x2560;" 
d="M282 1808h212v-2558h-212v2558zM706 1808h212v-961h388v-212h-600v1173zM706 423h600v-212h-388v-961h-212v1173z" />
    <glyph glyph-name="uni2561" unicode="&#x2561;" 
d="M494 211h-600v212h600v212h-600v212h600v961h212v-2558h-212v961z" />
    <glyph glyph-name="uni2562" unicode="&#x2562;" 
d="M282 423h-388v212h388v1173h212v-2558h-212v1173zM706 1808h212v-2558h-212v2558z" />
    <glyph glyph-name="uni2563" unicode="&#x2563;" 
d="M-106 847h388v961h212v-1173h-600v212zM706 1808h212v-2558h-212v2558zM282 211h-388v212h600v-1173h-212v961z" />
    <glyph glyph-name="uni2564" unicode="&#x2564;" 
d="M-106 847h1412v-212h-1412v212zM494 211h-600v212h1412v-212h-600v-961h-212v961z" />
    <glyph glyph-name="uni2565" unicode="&#x2565;" 
d="M282 423h-388v212h1412v-212h-388v-1173h-212v1173h-212v-1173h-212v1173z" />
    <glyph glyph-name="uni2566" unicode="&#x2566;" 
d="M-106 847h1412v-212h-1412v212zM282 211h-388v212h600v-1173h-212v961zM706 423h600v-212h-388v-961h-212v1173z" />
    <glyph glyph-name="uni2567" unicode="&#x2567;" 
d="M-106 847h600v961h212v-961h600v-212h-1412v212zM-106 423h1412v-212h-1412v212z" />
    <glyph glyph-name="uni2568" unicode="&#x2568;" 
d="M-106 635h388v1173h212v-1173h212v1173h212v-1173h388v-212h-1412v212z" />
    <glyph glyph-name="uni2569" unicode="&#x2569;" 
d="M-106 847h388v961h212v-1173h-600v212zM706 1808h212v-961h388v-212h-600v1173zM-106 423h1412v-212h-1412v212z" />
    <glyph glyph-name="uni256A" unicode="&#x256a;" 
d="M494 211h-600v212h600v212h-600v212h600v961h212v-961h600v-212h-600v-212h600v-212h-600v-961h-212v961z" />
    <glyph glyph-name="uni256B" unicode="&#x256b;" 
d="M282 423h-388v212h388v1173h212v-1173h212v1173h212v-1173h388v-212h-388v-1173h-212v1173h-212v-1173h-212v1173z" />
    <glyph glyph-name="uni256C" unicode="&#x256c;" 
d="M-106 847h388v961h212v-1173h-600v212zM706 1808h212v-961h388v-212h-600v1173zM282 211h-388v212h600v-1173h-212v961zM706 423h600v-212h-388v-961h-212v1173z" />
    <glyph glyph-name="uni256D" unicode="&#x256d;" 
d="M589 283c63.333 108 149 193.667 257 257s226 95 354 95h106v-212h-106c-89.333 0 -171.833 -22.167 -247.5 -66.5s-135.667 -104.333 -180 -180s-66.5 -158.167 -66.5 -247.5v-679h-212v679c0 128 31.667 246 95 354z" />
    <glyph glyph-name="uni256E" unicode="&#x256e;" 
d="M427.5 176.5c-44.333 75.667 -104.333 135.667 -180 180s-158.167 66.5 -247.5 66.5h-106v212h106c128 0 246 -31.667 354 -95s193.667 -149 257 -257s95 -226 95 -354v-679h-212v679c0 89.333 -22.167 171.833 -66.5 247.5z" />
    </font>
</defs>
</svg>
